G04*
G04 #@! TF.GenerationSoftware,Altium Limited,Altium Designer,20.1.12 (249)*
G04*
G04 Layer_Color=65535*
%FSLAX25Y25*%
%MOIN*%
G70*
G04*
G04 #@! TF.SameCoordinates,7C2EAEED-1B34-4CDB-9279-0DCC4619808E*
G04*
G04*
G04 #@! TF.FilePolarity,Positive*
G04*
G01*
G75*
%ADD10C,0.01000*%
%ADD11C,0.00394*%
D10*
X-163465Y-55172D02*
X-162516Y-54912D01*
X-162777Y-53962D02*
X-162516Y-54912D01*
X-167476Y-36880D02*
X-162777Y-53962D01*
X-167737Y-35931D02*
X-167476Y-36880D01*
X-168686Y-36193D02*
X-167737Y-35931D01*
X-181023Y-39586D02*
X-173431Y-37498D01*
X-186717Y-41152D02*
X-185768Y-40891D01*
X-186717Y-41152D02*
X-186456Y-42101D01*
X-182802Y-55387D01*
X-175802Y-58566D02*
X-168210Y-56478D01*
X-182802Y-55387D02*
X-181591Y-56075D01*
X-9843Y171260D02*
Y172244D01*
Y171260D02*
X-8858D01*
X8858D01*
X9843D01*
Y172244D01*
Y177165D02*
Y185039D01*
Y189961D02*
Y190945D01*
X8858D02*
X9843D01*
X-4921D02*
X8858D01*
X-9843Y177165D02*
Y185039D01*
X-5906Y189961D02*
X-4921Y190945D01*
X-156042Y73593D02*
X-155177Y73123D01*
X-154707Y73987D01*
X-146248Y89554D01*
X-145778Y90419D01*
X-146643Y90889D02*
X-145778Y90419D01*
X-157886Y96998D02*
X-150967Y93239D01*
X-163074Y99818D02*
X-162209Y99348D01*
X-163544Y98953D02*
X-163074Y99818D01*
X-170124Y86845D02*
X-163544Y98953D01*
X-167284Y79702D02*
X-160366Y75942D01*
X-170124Y86845D02*
X-169729Y85511D01*
X-165446Y48912D02*
X-164520Y48579D01*
X-164188Y49506D01*
X-158204Y66181D01*
X-157871Y67108D01*
X-158798Y67440D02*
X-157871Y67108D01*
X-170841Y71762D02*
X-163430Y69102D01*
X-176400Y73756D02*
X-175473Y73424D01*
X-176732Y72830D02*
X-176400Y73756D01*
X-181386Y59860D02*
X-176732Y72830D01*
X-177490Y53233D02*
X-170079Y50574D01*
X-181386Y59860D02*
X-180792Y58601D01*
X-170974Y23085D02*
X-170007Y22898D01*
X-169820Y23864D01*
X-166452Y41257D01*
X-166265Y42224D01*
X-167231Y42411D02*
X-166265Y42224D01*
X-179793Y44843D02*
X-172063Y43346D01*
X-185591Y45966D02*
X-184625Y45779D01*
X-185778Y45000D02*
X-185591Y45966D01*
X-188398Y31472D02*
X-185778Y45000D01*
X-183536Y25517D02*
X-175805Y24020D01*
X-188398Y31472D02*
X-187619Y30318D01*
X-172494Y-3283D02*
X-171510Y-3321D01*
X-171473Y-2337D01*
X-170799Y15366D01*
X-170762Y16350D01*
X-171745Y16387D02*
X-170762Y16350D01*
X-184531Y16874D02*
X-176663Y16575D01*
X-190432Y17099D02*
X-189449Y17061D01*
X-190470Y16115D02*
X-190432Y17099D01*
X-190994Y2346D02*
X-190470Y16115D01*
X-185280Y-2797D02*
X-177411Y-3096D01*
X-190994Y2346D02*
X-190048Y1325D01*
X-169971Y-29574D02*
X-168994Y-29461D01*
X-169107Y-28484D02*
X-168994Y-29461D01*
X-171143Y-10885D02*
X-169107Y-28484D01*
X-171256Y-9907D02*
X-171143Y-10885D01*
X-172234Y-10020D02*
X-171256Y-9907D01*
X-184944Y-11491D02*
X-177122Y-10586D01*
X-190811Y-12169D02*
X-189833Y-12056D01*
X-190811Y-12169D02*
X-190698Y-13147D01*
X-189114Y-26835D01*
X-182682Y-31045D02*
X-174860Y-30140D01*
X-189114Y-26835D02*
X-188023Y-27700D01*
X-61407Y161227D02*
X-61110Y160289D01*
X-60171Y160586D01*
X-43282Y165937D01*
X-42344Y166234D01*
X-42641Y167172D02*
X-42344Y166234D01*
X-46506Y179370D02*
X-44128Y171864D01*
X-48290Y185000D02*
X-47992Y184062D01*
X-49228Y184703D02*
X-48290Y185000D01*
X-62364Y180541D02*
X-49228Y184703D01*
X-65272Y173424D02*
X-62893Y165918D01*
X-63005Y179305D02*
X-62364Y180541D01*
X-85297Y149964D02*
X-84860Y149082D01*
X-83978Y149519D01*
X-68104Y157386D01*
X-67222Y157823D01*
X-67659Y158705D02*
X-67222Y157823D01*
X-73340Y170169D02*
X-69844Y163114D01*
X-75962Y175461D02*
X-75525Y174579D01*
X-76844Y175024D02*
X-75962Y175461D01*
X-89191Y168906D02*
X-76844Y175024D01*
X-90978Y161429D02*
X-87482Y154374D01*
X-89636Y167587D02*
X-89191Y168906D01*
X-107188Y135187D02*
X-106622Y134382D01*
X-105817Y134949D01*
X-91329Y145146D01*
X-90524Y145712D01*
X-91091Y146517D02*
X-90524Y145712D01*
X-98456Y156981D02*
X-93923Y150542D01*
X-101855Y161810D02*
X-101288Y161005D01*
X-102659Y161243D02*
X-101855Y161810D01*
X-113928Y153312D02*
X-102659Y161243D01*
X-114553Y145650D02*
X-110021Y139211D01*
X-114166Y151941D02*
X-113928Y153312D01*
X-126567Y117242D02*
X-125885Y116533D01*
X-125176Y117216D01*
X-112414Y129505D01*
X-111705Y130187D01*
X-112388Y130896D02*
X-111705Y130187D01*
X-121264Y140113D02*
X-115802Y134441D01*
X-125360Y144367D02*
X-124677Y143658D01*
X-126069Y143684D02*
X-125360Y144367D01*
X-135994Y134126D02*
X-126069Y143684D01*
X-135443Y126458D02*
X-129981Y120786D01*
X-136021Y132734D02*
X-135994Y134126D01*
X-142980Y96548D02*
X-142197Y95952D01*
X-141601Y96735D01*
X-130865Y110828D01*
X-130268Y111611D01*
X-131051Y112207D02*
X-130268Y111611D01*
X-141229Y119961D02*
X-134966Y115190D01*
X-145927Y123540D02*
X-145144Y122943D01*
X-146524Y122757D02*
X-145927Y123540D01*
X-154874Y111796D02*
X-146524Y122757D01*
X-153158Y104302D02*
X-146895Y99531D01*
X-154874Y111796D02*
X-154687Y110416D01*
X-36078Y168711D02*
X-35927Y167738D01*
X-34954Y167889D01*
X-17446Y170599D01*
X-16474Y170750D01*
X-16624Y171722D02*
X-16474Y170750D01*
X-18582Y184367D02*
X-17377Y176586D01*
X-19485Y190203D02*
X-19335Y189230D01*
X-20458Y190052D02*
X-19485Y190203D01*
X-34075Y187944D02*
X-20458Y190052D01*
X-38035Y181355D02*
X-36830Y173574D01*
X-34897Y186821D02*
X-34075Y187944D01*
X166250Y42282D02*
X167216Y42469D01*
X166250Y42282D02*
X166437Y41315D01*
X169812Y23923D01*
X169999Y22957D01*
X170966Y23144D01*
X175797Y24082D02*
X183527Y25581D01*
X188358Y26519D02*
X189324Y26706D01*
X189137Y27672D02*
X189324Y26706D01*
X186512Y41200D02*
X189137Y27672D01*
X172047Y43406D02*
X179777Y44906D01*
X185358Y41978D02*
X186512Y41200D01*
X170756Y16409D02*
X171739Y16447D01*
X170756Y16409D02*
X170794Y15426D01*
X171474Y-2277D01*
X171511Y-3261D01*
X172495Y-3223D01*
X177413Y-3034D02*
X185281Y-2732D01*
X190198Y-2543D02*
X191182Y-2505D01*
X191144Y-1522D02*
X191182Y-2505D01*
X190615Y12248D02*
X191144Y-1522D01*
X176657Y16636D02*
X184525Y16939D01*
X189594Y13193D02*
X190615Y12248D01*
X90474Y145744D02*
X91040Y146549D01*
X90474Y145744D02*
X91279Y145178D01*
X105770Y134986D01*
X106575Y134420D01*
X107141Y135225D01*
X109972Y139250D02*
X114502Y145691D01*
X117333Y149716D02*
X117900Y150521D01*
X117095Y151087D02*
X117900Y150521D01*
X105824Y159014D02*
X117095Y151087D01*
X93871Y150575D02*
X98401Y157015D01*
X104452Y158775D02*
X105824Y159014D01*
X67167Y157846D02*
X67603Y158728D01*
X67167Y157846D02*
X68049Y157410D01*
X83926Y149549D01*
X84808Y149112D01*
X85245Y149994D01*
X87428Y154404D02*
X90922Y161461D01*
X93106Y165871D02*
X93542Y166753D01*
X92660Y167190D02*
X93542Y166753D01*
X80311Y173304D02*
X92660Y167190D01*
X69787Y163139D02*
X73281Y170195D01*
X78993Y172859D02*
X80311Y173304D01*
X42286Y166249D02*
X42583Y167187D01*
X42286Y166249D02*
X43224Y165952D01*
X60115Y160607D01*
X61054Y160310D01*
X61351Y161248D01*
X62835Y165940D02*
X65211Y173447D01*
X66696Y178139D02*
X66993Y179078D01*
X66054Y179375D02*
X66993Y179078D01*
X52917Y183532D02*
X66054Y179375D01*
X44068Y171879D02*
X46443Y179386D01*
X51682Y182890D02*
X52917Y183532D01*
X16414Y170756D02*
X16564Y171728D01*
X16414Y170756D02*
X17387Y170605D01*
X34896Y167901D01*
X35868Y167751D01*
X36019Y168723D01*
X36770Y173587D02*
X37972Y181369D01*
X38723Y186232D02*
X38873Y187205D01*
X37901Y187355D02*
X38873Y187205D01*
X24282Y189459D02*
X37901Y187355D01*
X17315Y176592D02*
X18517Y184373D01*
X23159Y188636D02*
X24282Y189459D01*
X157848Y67163D02*
X158774Y67495D01*
X157848Y67163D02*
X158181Y66236D01*
X164170Y49563D01*
X164503Y48637D01*
X165429Y48970D01*
X170061Y50633D02*
X177471Y53295D01*
X182103Y54959D02*
X183029Y55292D01*
X182696Y56218D02*
X183029Y55292D01*
X178038Y69186D02*
X182696Y56218D01*
X163406Y69159D02*
X170816Y71821D01*
X176779Y69780D02*
X178038Y69186D01*
X145747Y90470D02*
X146611Y90940D01*
X145747Y90470D02*
X146217Y89605D01*
X154681Y74041D01*
X155151Y73177D01*
X156016Y73647D01*
X160339Y75998D02*
X167257Y79760D01*
X171580Y82111D02*
X172444Y82582D01*
X171974Y83446D02*
X172444Y82582D01*
X165391Y95551D02*
X171974Y83446D01*
X150934Y93291D02*
X157852Y97053D01*
X164056Y95946D02*
X165391Y95551D01*
X130229Y111656D02*
X131012Y112253D01*
X130229Y111656D02*
X130826Y110874D01*
X141567Y96784D01*
X142164Y96002D01*
X142946Y96598D01*
X146860Y99582D02*
X153122Y104356D01*
X157036Y107339D02*
X157818Y107936D01*
X157222Y108719D02*
X157818Y107936D01*
X148868Y119677D02*
X157222Y108719D01*
X134926Y115237D02*
X141188Y120010D01*
X147488Y119863D02*
X148868Y119677D01*
X111660Y130226D02*
X112342Y130936D01*
X111660Y130226D02*
X112369Y129544D01*
X125135Y117259D01*
X125844Y116577D01*
X126526Y117286D01*
X129939Y120832D02*
X135399Y126505D01*
X138811Y130052D02*
X139494Y130761D01*
X138784Y131443D02*
X139494Y130761D01*
X128856Y140998D02*
X138784Y131443D01*
X115755Y134482D02*
X121215Y140155D01*
X127464Y140971D02*
X128856Y140998D01*
X149110Y-84812D02*
X149936Y-85347D01*
X148575Y-85638D02*
X149110Y-84812D01*
X138946Y-100510D02*
X148575Y-85638D01*
X138412Y-101336D02*
X138946Y-100510D01*
X138412Y-101336D02*
X139238Y-101871D01*
X143369Y-104546D02*
X149978Y-108825D01*
X154110Y-111500D02*
X154936Y-112034D01*
X155471Y-111208D01*
X162959Y-99641D01*
X154067Y-88021D02*
X160677Y-92301D01*
X162668Y-98280D02*
X162959Y-99641D01*
X160308Y-61058D02*
X161206Y-61461D01*
X159906Y-61956D02*
X160308Y-61058D01*
X152660Y-78123D02*
X159906Y-61956D01*
X152258Y-79022D02*
X152660Y-78123D01*
X152258Y-79022D02*
X153156Y-79424D01*
X157647Y-81437D02*
X164832Y-84657D01*
X169323Y-86669D02*
X170221Y-87072D01*
X170624Y-86174D01*
X176259Y-73599D01*
X165697Y-63473D02*
X172883Y-66693D01*
X175763Y-72299D02*
X176259Y-73599D01*
X167750Y-35873D02*
X168699Y-36134D01*
X167489Y-36822D02*
X167750Y-35873D01*
X162796Y-53906D02*
X167489Y-36822D01*
X162535Y-54855D02*
X162796Y-53906D01*
X162535Y-54855D02*
X163485Y-55115D01*
X168230Y-56419D02*
X175823Y-58505D01*
X180568Y-59808D02*
X181517Y-60069D01*
X181778Y-59120D01*
X185428Y-45833D01*
X173444Y-37437D02*
X181037Y-39523D01*
X184740Y-44623D02*
X185428Y-45833D01*
X171260Y-9847D02*
X172237Y-9960D01*
X171147Y-10825D02*
X171260Y-9847D01*
X169117Y-28425D02*
X171147Y-10825D01*
X169004Y-29402D02*
X169117Y-28425D01*
X169004Y-29402D02*
X169982Y-29515D01*
X174871Y-30079D02*
X182693Y-30981D01*
X187582Y-31545D02*
X188559Y-31658D01*
X188672Y-30680D01*
X190251Y-16992D01*
X177126Y-10524D02*
X184948Y-11426D01*
X189386Y-15901D02*
X190251Y-16992D01*
X48632Y-164504D02*
X48857Y-165463D01*
X47674Y-164729D02*
X48632Y-164504D01*
X30424Y-168768D02*
X47674Y-164729D01*
X29466Y-168993D02*
X30424Y-168768D01*
X29466Y-168993D02*
X29690Y-169951D01*
X30812Y-174743D02*
X32608Y-182409D01*
X33730Y-187201D02*
X33954Y-188159D01*
X34913Y-187935D01*
X48329Y-184793D01*
X49979Y-170254D02*
X51774Y-177921D01*
X48329Y-184793D02*
X49063Y-183610D01*
X73173Y-155153D02*
X73541Y-156066D01*
X72260Y-155522D02*
X73173Y-155153D01*
X55829Y-162147D02*
X72260Y-155522D01*
X54916Y-162515D02*
X55829Y-162147D01*
X54916Y-162515D02*
X55284Y-163428D01*
X57124Y-167992D02*
X60069Y-175295D01*
X61909Y-179859D02*
X62277Y-180772D01*
X63190Y-180403D01*
X75970Y-175251D01*
X75381Y-160630D02*
X78326Y-167933D01*
X75970Y-175251D02*
X76515Y-173970D01*
X95998Y-142166D02*
X96501Y-143012D01*
X95152Y-142669D02*
X95998Y-142166D01*
X79925Y-151725D02*
X95152Y-142669D01*
X79079Y-152228D02*
X79925Y-151725D01*
X79079Y-152228D02*
X79582Y-153074D01*
X82097Y-157304D02*
X86122Y-164072D01*
X88638Y-168301D02*
X89140Y-169147D01*
X89986Y-168644D01*
X101830Y-161601D01*
X99016Y-147242D02*
X103041Y-154010D01*
X101830Y-161601D02*
X102173Y-160252D01*
X116573Y-125847D02*
X117200Y-126606D01*
X115814Y-126473D02*
X116573Y-125847D01*
X102147Y-137747D02*
X115814Y-126473D01*
X101388Y-138373D02*
X102147Y-137747D01*
X101388Y-138373D02*
X102015Y-139133D01*
X105146Y-142929D02*
X110157Y-149003D01*
X113288Y-152799D02*
X113915Y-153559D01*
X114674Y-152932D01*
X125304Y-144164D01*
X120331Y-130403D02*
X125342Y-136477D01*
X125304Y-144164D02*
X125436Y-142778D01*
X134417Y-106578D02*
X135152Y-107233D01*
X133762Y-107313D02*
X134417Y-106578D01*
X121976Y-120541D02*
X133762Y-107313D01*
X121322Y-121276D02*
X121976Y-120541D01*
X121322Y-121276D02*
X122056Y-121931D01*
X125731Y-125205D02*
X131610Y-130443D01*
X135284Y-133716D02*
X136019Y-134371D01*
X136674Y-133636D01*
X145841Y-123348D01*
X138826Y-110507D02*
X144705Y-115745D01*
X145760Y-121958D02*
X145841Y-123348D01*
X-79528Y-153102D02*
X-79026Y-152256D01*
X-79872Y-151753D02*
X-79026Y-152256D01*
X-95102Y-142702D02*
X-79872Y-151753D01*
X-95948Y-142200D02*
X-95102Y-142702D01*
X-96451Y-143046D02*
X-95948Y-142200D01*
X-102987Y-154046D02*
X-98965Y-147276D01*
X-106004Y-159122D02*
X-105501Y-158276D01*
X-106004Y-159122D02*
X-105158Y-159625D01*
X-93312Y-166664D01*
X-86065Y-164102D02*
X-82042Y-157332D01*
X-93312Y-166664D02*
X-91963Y-166321D01*
X-55227Y-163447D02*
X-54859Y-162534D01*
X-55772Y-162166D02*
X-54859Y-162534D01*
X-72206Y-155547D02*
X-55772Y-162166D01*
X-73118Y-155179D02*
X-72206Y-155547D01*
X-73486Y-156092D02*
X-73118Y-155179D01*
X-78267Y-167961D02*
X-75325Y-160657D01*
X-80474Y-173438D02*
X-80106Y-172525D01*
X-80474Y-173438D02*
X-79561Y-173806D01*
X-66779Y-178955D01*
X-60008Y-175315D02*
X-57066Y-168012D01*
X-66779Y-178955D02*
X-65498Y-178409D01*
X-29631Y-169962D02*
X-29407Y-169003D01*
X-30365Y-168779D02*
X-29407Y-169003D01*
X-47617Y-164745D02*
X-30365Y-168779D01*
X-48575Y-164521D02*
X-47617Y-164745D01*
X-48799Y-165480D02*
X-48575Y-164521D01*
X-51712Y-177939D02*
X-49920Y-170272D01*
X-53057Y-183689D02*
X-52833Y-182731D01*
X-53057Y-183689D02*
X-52098Y-183914D01*
X-38681Y-187051D01*
X-32544Y-182421D02*
X-30751Y-174753D01*
X-38681Y-187051D02*
X-37498Y-186316D01*
X-3341Y-172493D02*
X-3266Y-171511D01*
X-4247Y-171436D02*
X-3266Y-171511D01*
X-21912Y-170083D02*
X-4247Y-171436D01*
X-22893Y-170008D02*
X-21912Y-170083D01*
X-22968Y-170989D02*
X-22893Y-170008D01*
X-23945Y-183747D02*
X-23344Y-175896D01*
X-24396Y-189636D02*
X-24321Y-188654D01*
X-24396Y-189636D02*
X-23415Y-189711D01*
X-9676Y-190763D01*
X-4318Y-185251D02*
X-3717Y-177400D01*
X-9676Y-190763D02*
X-8619Y-189857D01*
X22952Y-170000D02*
X23028Y-170981D01*
X21971Y-170076D02*
X22952Y-170000D01*
X4307Y-171435D02*
X21971Y-170076D01*
X3325Y-171510D02*
X4307Y-171435D01*
X3325Y-171510D02*
X3401Y-172492D01*
X3778Y-177398D02*
X4383Y-185249D01*
X4760Y-190156D02*
X4836Y-191137D01*
X5817Y-191062D01*
X19556Y-190005D01*
X23405Y-175888D02*
X24010Y-183739D01*
X19556Y-190005D02*
X20462Y-188948D01*
X-153128Y-79478D02*
X-152230Y-79075D01*
X-152633Y-78177D02*
X-152230Y-79075D01*
X-159884Y-62012D02*
X-152633Y-78177D01*
X-160287Y-61114D02*
X-159884Y-62012D01*
X-161185Y-61517D02*
X-160287Y-61114D01*
X-172860Y-66754D02*
X-165675Y-63531D01*
X-178248Y-69171D02*
X-177350Y-68768D01*
X-178248Y-69171D02*
X-177845Y-70069D01*
X-172205Y-82641D01*
X-164803Y-84714D02*
X-157618Y-81492D01*
X-172205Y-82641D02*
X-170904Y-83136D01*
X-139202Y-101920D02*
X-138376Y-101385D01*
X-138911Y-100559D02*
X-138376Y-101385D01*
X-148545Y-85690D02*
X-138911Y-100559D01*
X-149080Y-84864D02*
X-148545Y-85690D01*
X-149906Y-85399D02*
X-149080Y-84864D01*
X-160644Y-92357D02*
X-154036Y-88075D01*
X-165601Y-95568D02*
X-164775Y-95033D01*
X-165601Y-95568D02*
X-165066Y-96394D01*
X-157573Y-107958D01*
X-149941Y-108877D02*
X-143332Y-104596D01*
X-157573Y-107958D02*
X-156211Y-108249D01*
X-122014Y-121973D02*
X-121279Y-121318D01*
X-121934Y-120584D02*
X-121279Y-121318D01*
X-133724Y-107360D02*
X-121934Y-120584D01*
X-134379Y-106625D02*
X-133724Y-107360D01*
X-135114Y-107280D02*
X-134379Y-106625D01*
X-144665Y-115796D02*
X-138787Y-110555D01*
X-149073Y-119726D02*
X-148338Y-119071D01*
X-149073Y-119726D02*
X-148417Y-120460D01*
X-139247Y-130745D01*
X-131564Y-130489D02*
X-125687Y-125249D01*
X-139247Y-130745D02*
X-137858Y-130825D01*
X-101966Y-139168D02*
X-101340Y-138409D01*
X-102099Y-137783D02*
X-101340Y-138409D01*
X-115770Y-126514D02*
X-102099Y-137783D01*
X-116529Y-125888D02*
X-115770Y-126514D01*
X-117155Y-126647D02*
X-116529Y-125888D01*
X-125294Y-136520D02*
X-120286Y-130445D01*
X-129051Y-141077D02*
X-128425Y-140318D01*
X-129051Y-141077D02*
X-128291Y-141703D01*
X-117658Y-150468D01*
X-110105Y-149041D02*
X-105096Y-142966D01*
X-117658Y-150468D02*
X-116273Y-150335D01*
D11*
X-146873Y79986D02*
X-145933Y81715D01*
X-142030Y77354D02*
X-141090Y79084D01*
X-157413Y56042D02*
X-156748Y57894D01*
X-152225Y54180D02*
X-151560Y56033D01*
X-164885Y30096D02*
X-164511Y32029D01*
X-159474Y29048D02*
X-159100Y30981D01*
X-166790Y4661D02*
X-166715Y6628D01*
X-161282Y4451D02*
X-161207Y6418D01*
X-166355Y-17300D02*
X-166129Y-19255D01*
X-160880Y-16666D02*
X-160654Y-18622D01*
X-50733Y159842D02*
X-48857Y160436D01*
X-49068Y154587D02*
X-47192Y155182D01*
X-75070Y150050D02*
X-73307Y150924D01*
X-72623Y145111D02*
X-70859Y145985D01*
X-97359Y136710D02*
X-95749Y137843D01*
X-94186Y132202D02*
X-92577Y133335D01*
X-116592Y120830D02*
X-115174Y122195D01*
X-112769Y116859D02*
X-111351Y118225D01*
X-133765Y101418D02*
X-132572Y102984D01*
X-129380Y98078D02*
X-128187Y99644D01*
X-26355Y166079D02*
X-24410Y166380D01*
X-25512Y160632D02*
X-23567Y160933D01*
X95813Y137798D02*
X97423Y136665D01*
X92642Y133289D02*
X94252Y132157D01*
X73376Y150889D02*
X75140Y150016D01*
X70930Y145949D02*
X72695Y145076D01*
X49431Y160913D02*
X51307Y160319D01*
X47768Y155658D02*
X49645Y155064D01*
X23987Y166368D02*
X25932Y166067D01*
X23145Y160921D02*
X25091Y160620D01*
X-945Y168256D02*
X1024D01*
X-945Y162744D02*
X1024D01*
X164025Y31453D02*
X164400Y29520D01*
X158615Y30403D02*
X158990Y28470D01*
X157274Y56821D02*
X157940Y54968D01*
X152087Y54957D02*
X152752Y53105D01*
X146970Y80147D02*
X147910Y78417D01*
X142128Y77513D02*
X143068Y75784D01*
X132619Y102422D02*
X133812Y100857D01*
X128235Y99081D02*
X129429Y97515D01*
X115230Y121141D02*
X116648Y119776D01*
X111408Y117169D02*
X112827Y115804D01*
X140257Y-91357D02*
X141327Y-89705D01*
X135630Y-88362D02*
X136700Y-86709D01*
X152096Y-68561D02*
X152901Y-66765D01*
X147066Y-66307D02*
X147871Y-64511D01*
X160886Y-44717D02*
X161408Y-42819D01*
X155571Y-43257D02*
X156093Y-41359D01*
X165621Y-20333D02*
X165846Y-18377D01*
X160145Y-19701D02*
X160371Y-17745D01*
X166218Y6050D02*
X166293Y4083D01*
X160710Y5838D02*
X160785Y3871D01*
X37632Y-162417D02*
X39548Y-161968D01*
X36375Y-157050D02*
X38292Y-156601D01*
X61581Y-155439D02*
X63407Y-154703D01*
X59520Y-150327D02*
X61346Y-149591D01*
X84529Y-143392D02*
X86221Y-142386D01*
X81712Y-138654D02*
X83403Y-137648D01*
X105964Y-128277D02*
X107483Y-127025D01*
X102457Y-124025D02*
X103975Y-122773D01*
X124877Y-110098D02*
X126186Y-108628D01*
X120761Y-106431D02*
X122071Y-104961D01*
X-87788Y-142846D02*
X-86096Y-143852D01*
X-84972Y-138108D02*
X-83280Y-139113D01*
X-63479Y-155174D02*
X-61653Y-155909D01*
X-61420Y-150061D02*
X-59594Y-150797D01*
X-40124Y-162451D02*
X-38207Y-162899D01*
X-38869Y-157083D02*
X-36952Y-157532D01*
X-13731Y-166170D02*
X-11768Y-166320D01*
X-13310Y-160674D02*
X-11347Y-160824D01*
X11191Y-166326D02*
X13153Y-166175D01*
X10768Y-160831D02*
X12731Y-160680D01*
X-161429Y-42744D02*
X-160907Y-44642D01*
X-156114Y-41282D02*
X-155592Y-43180D01*
X-152934Y-66194D02*
X-152128Y-67990D01*
X-147904Y-63938D02*
X-147099Y-65734D01*
X-141369Y-89640D02*
X-140299Y-91291D01*
X-136744Y-86642D02*
X-135673Y-88294D01*
X-126738Y-109070D02*
X-125428Y-110539D01*
X-122624Y-105402D02*
X-121314Y-106871D01*
X-107543Y-127975D02*
X-106024Y-129227D01*
X-104037Y-123722D02*
X-102518Y-124975D01*
M02*
