G04*
G04 #@! TF.GenerationSoftware,Altium Limited,Altium Designer,20.1.12 (249)*
G04*
G04 Layer_Color=16711935*
%FSLAX25Y25*%
%MOIN*%
G70*
G04*
G04 #@! TF.SameCoordinates,7C2EAEED-1B34-4CDB-9279-0DCC4619808E*
G04*
G04*
G04 #@! TF.FilePolarity,Positive*
G04*
G01*
G75*
%ADD11C,0.00394*%
D11*
X-7480Y182480D02*
G03*
X-7480Y182480I-1969J0D01*
G01*
X-12992Y186024D02*
X12992D01*
X-12992Y168307D02*
X12992D01*
X-12992D02*
Y186024D01*
X12992Y168307D02*
Y186024D01*
X-167915Y-35286D02*
X-162318Y-55633D01*
X-186895Y-40507D02*
X-181298Y-60854D01*
X-186895Y-40507D02*
X-167915Y-35286D01*
X-181298Y-60854D02*
X-162318Y-55633D01*
X-10591Y171260D02*
X10512D01*
X-10591Y190945D02*
X10512D01*
Y171260D02*
Y190945D01*
X-10591Y171260D02*
Y190945D01*
X-155534Y72465D02*
X-145458Y91007D01*
X-172830Y81864D02*
X-162755Y100406D01*
X-145458Y91007D01*
X-172830Y81864D02*
X-155534Y72465D01*
X-164773Y47875D02*
X-157645Y67738D01*
X-183301Y54524D02*
X-176174Y74386D01*
X-157645Y67738D01*
X-183301Y54524D02*
X-164773Y47875D01*
X-170150Y22163D02*
X-166138Y42881D01*
X-189476Y25906D02*
X-185464Y46623D01*
X-166138Y42881D01*
X-189476Y25906D02*
X-170150Y22163D01*
X-171539Y-4068D02*
X-170736Y17019D01*
X-191209Y-3320D02*
X-190407Y17767D01*
X-170736Y17019D01*
X-191209Y-3320D02*
X-171539Y-4068D01*
X-171333Y-9242D02*
X-168908Y-30204D01*
X-190888Y-11505D02*
X-188462Y-32467D01*
X-190888Y-11505D02*
X-171333Y-9242D01*
X-188462Y-32467D02*
X-168908Y-30204D01*
X-61823Y160063D02*
X-41706Y166436D01*
X-67768Y178828D02*
X-47652Y185202D01*
X-41706Y166436D01*
X-67768Y178828D02*
X-61823Y160063D01*
X-85530Y148750D02*
X-66622Y158120D01*
X-94271Y166388D02*
X-75363Y175758D01*
X-66622Y158120D01*
X-94271Y166388D02*
X-85530Y148750D01*
X-107234Y133952D02*
X-89977Y146098D01*
X-118564Y150049D02*
X-101307Y162195D01*
X-89977Y146098D01*
X-118564Y150049D02*
X-107234Y133952D01*
X-126423Y116014D02*
X-111223Y130652D01*
X-140078Y130193D02*
X-124878Y144831D01*
X-111223Y130652D01*
X-140078Y130193D02*
X-126423Y116014D01*
X-142650Y95357D02*
X-129863Y112143D01*
X-158309Y107286D02*
X-145522Y124072D01*
X-129863Y112143D01*
X-158309Y107286D02*
X-142650Y95357D01*
X-36666Y167624D02*
X-15812Y170852D01*
X-39678Y187077D02*
X-18824Y190305D01*
X-15812Y170852D01*
X-39678Y187077D02*
X-36666Y167624D01*
X166108Y43016D02*
X170127Y22300D01*
X185432Y46765D02*
X189452Y26049D01*
X170127Y22300D02*
X189452Y26049D01*
X166108Y43016D02*
X185432Y46765D01*
X170727Y17157D02*
X171537Y-3930D01*
X190398Y17913D02*
X191208Y-3174D01*
X171537Y-3930D02*
X191208Y-3174D01*
X170727Y17157D02*
X190398Y17913D01*
X89862Y146175D02*
X107122Y134035D01*
X101186Y162276D02*
X118447Y150136D01*
X107122Y134035D02*
X118447Y150136D01*
X89862Y146175D02*
X101186Y162276D01*
X66496Y158178D02*
X85408Y148815D01*
X75231Y175819D02*
X94142Y166456D01*
X85408Y148815D02*
X94142Y166456D01*
X66496Y158178D02*
X75231Y175819D01*
X41573Y166475D02*
X61692Y160108D01*
X47512Y185242D02*
X67631Y178876D01*
X61692Y160108D02*
X67631Y178876D01*
X41573Y166475D02*
X47512Y185242D01*
X15675Y170870D02*
X36530Y167649D01*
X18679Y190324D02*
X39535Y187103D01*
X36530Y167649D02*
X39535Y187103D01*
X15675Y170870D02*
X18679Y190324D01*
X157595Y67867D02*
X164729Y48007D01*
X176121Y74522D02*
X183255Y54662D01*
X164729Y48007D02*
X183255Y54662D01*
X157595Y67867D02*
X176121Y74522D01*
X145389Y91127D02*
X155471Y72589D01*
X162682Y100532D02*
X172764Y81994D01*
X155471Y72589D02*
X172764Y81994D01*
X145389Y91127D02*
X162682Y100532D01*
X129776Y112251D02*
X142569Y95469D01*
X145431Y124186D02*
X158224Y107404D01*
X142569Y95469D02*
X158224Y107404D01*
X129776Y112251D02*
X145431Y124186D01*
X111121Y130745D02*
X126326Y116113D01*
X124770Y144929D02*
X139976Y130297D01*
X126326Y116113D02*
X139976Y130297D01*
X111121Y130745D02*
X124770Y144929D01*
X138048Y-101898D02*
X149516Y-84184D01*
X154572Y-112596D02*
X166041Y-94882D01*
X138048Y-101898D02*
X154572Y-112596D01*
X149516Y-84184D02*
X166041Y-94882D01*
X151984Y-79632D02*
X160614Y-60375D01*
X169948Y-87683D02*
X178578Y-68426D01*
X151984Y-79632D02*
X169948Y-87683D01*
X160614Y-60375D02*
X178578Y-68426D01*
X162358Y-55500D02*
X167948Y-35151D01*
X181340Y-60714D02*
X186930Y-40366D01*
X162358Y-55500D02*
X181340Y-60714D01*
X167948Y-35151D02*
X186930Y-40366D01*
X168927Y-30067D02*
X171345Y-9104D01*
X188482Y-32323D02*
X190901Y-11360D01*
X168927Y-30067D02*
X188482Y-32323D01*
X171345Y-9104D02*
X190901Y-11360D01*
X28814Y-169145D02*
X49361Y-164334D01*
X33303Y-188312D02*
X53849Y-183500D01*
X28814Y-169145D02*
X33303Y-188312D01*
X49361Y-164334D02*
X53849Y-183500D01*
X54295Y-162765D02*
X73866Y-154874D01*
X61656Y-181022D02*
X81228Y-173131D01*
X54295Y-162765D02*
X61656Y-181022D01*
X73866Y-154874D02*
X81228Y-173131D01*
X78503Y-152570D02*
X96641Y-141784D01*
X88565Y-169489D02*
X106703Y-158703D01*
X78503Y-152570D02*
X88565Y-169489D01*
X96641Y-141784D02*
X106703Y-158703D01*
X100872Y-138799D02*
X117150Y-125371D01*
X113399Y-153984D02*
X129677Y-140556D01*
X100872Y-138799D02*
X113399Y-153984D01*
X117150Y-125371D02*
X129677Y-140556D01*
X120876Y-121776D02*
X134914Y-106020D01*
X135574Y-134871D02*
X149612Y-119115D01*
X120876Y-121776D02*
X135574Y-134871D01*
X134914Y-106020D02*
X149612Y-119115D01*
X-96524Y-141858D02*
X-78382Y-152638D01*
X-106580Y-158781D02*
X-88438Y-169561D01*
X-106580Y-158781D02*
X-96524Y-141858D01*
X-88438Y-169561D02*
X-78382Y-152638D01*
X-73739Y-154929D02*
X-54165Y-162813D01*
X-81094Y-173188D02*
X-61520Y-181073D01*
X-81094Y-173188D02*
X-73739Y-154929D01*
X-61520Y-181073D02*
X-54165Y-162813D01*
X-49227Y-164369D02*
X-28679Y-169173D01*
X-53708Y-183537D02*
X-33160Y-188341D01*
X-53708Y-183537D02*
X-49227Y-164369D01*
X-33160Y-188341D02*
X-28679Y-169173D01*
X-23560Y-169957D02*
X-2520Y-171569D01*
X-25064Y-189584D02*
X-4023Y-191196D01*
X-25064Y-189584D02*
X-23560Y-169957D01*
X-4023Y-191196D02*
X-2520Y-171569D01*
X2658Y-171562D02*
X23698Y-169943D01*
X4168Y-191189D02*
X25208Y-189570D01*
X2658Y-171562D02*
X4168Y-191189D01*
X23698Y-169943D02*
X25208Y-189570D01*
X-160561Y-60503D02*
X-151924Y-79757D01*
X-178522Y-68560D02*
X-169885Y-87814D01*
X-178522Y-68560D02*
X-160561Y-60503D01*
X-169885Y-87814D02*
X-151924Y-79757D01*
X-149444Y-84302D02*
X-137970Y-102012D01*
X-165965Y-95006D02*
X-154490Y-112716D01*
X-165965Y-95006D02*
X-149444Y-84302D01*
X-154490Y-112716D02*
X-137970Y-102012D01*
X-134825Y-106126D02*
X-120781Y-121877D01*
X-149518Y-119226D02*
X-135475Y-134977D01*
X-149518Y-119226D02*
X-134825Y-106126D01*
X-135475Y-134977D02*
X-120781Y-121877D01*
X-117046Y-125462D02*
X-100763Y-138885D01*
X-129567Y-140651D02*
X-113284Y-154074D01*
X-129567Y-140651D02*
X-117046Y-125462D01*
X-113284Y-154074D02*
X-100763Y-138885D01*
M02*
