G04*
G04 #@! TF.GenerationSoftware,Altium Limited,Altium Designer,20.1.12 (249)*
G04*
G04 Layer_Color=255*
%FSLAX25Y25*%
%MOIN*%
G70*
G04*
G04 #@! TF.SameCoordinates,7C2EAEED-1B34-4CDB-9279-0DCC4619808E*
G04*
G04*
G04 #@! TF.FilePolarity,Positive*
G04*
G01*
G75*
G04:AMPARAMS|DCode=12|XSize=59.06mil|YSize=35.43mil|CornerRadius=0mil|HoleSize=0mil|Usage=FLASHONLY|Rotation=105.380|XOffset=0mil|YOffset=0mil|HoleType=Round|Shape=Rectangle|*
%AMROTATEDRECTD12*
4,1,4,0.02491,-0.02377,-0.00925,-0.03317,-0.02491,0.02377,0.00925,0.03317,0.02491,-0.02377,0.0*
%
%ADD12ROTATEDRECTD12*%

%ADD13R,0.05906X0.03543*%
G04:AMPARAMS|DCode=14|XSize=43.31mil|YSize=39.37mil|CornerRadius=0mil|HoleSize=0mil|Usage=FLASHONLY|Rotation=61.480|XOffset=0mil|YOffset=0mil|HoleType=Round|Shape=Rectangle|*
%AMROTATEDRECTD14*
4,1,4,0.00696,-0.02843,-0.02764,-0.00963,-0.00696,0.02843,0.02764,0.00963,0.00696,-0.02843,0.0*
%
%ADD14ROTATEDRECTD14*%

G04:AMPARAMS|DCode=15|XSize=43.31mil|YSize=39.37mil|CornerRadius=0mil|HoleSize=0mil|Usage=FLASHONLY|Rotation=70.260|XOffset=0mil|YOffset=0mil|HoleType=Round|Shape=Rectangle|*
%AMROTATEDRECTD15*
4,1,4,0.01122,-0.02703,-0.02584,-0.01373,-0.01122,0.02703,0.02584,0.01373,0.01122,-0.02703,0.0*
%
%ADD15ROTATEDRECTD15*%

G04:AMPARAMS|DCode=16|XSize=43.31mil|YSize=39.37mil|CornerRadius=0mil|HoleSize=0mil|Usage=FLASHONLY|Rotation=79.040|XOffset=0mil|YOffset=0mil|HoleType=Round|Shape=Rectangle|*
%AMROTATEDRECTD16*
4,1,4,0.01521,-0.02500,-0.02344,-0.01752,-0.01521,0.02500,0.02344,0.01752,0.01521,-0.02500,0.0*
%
%ADD16ROTATEDRECTD16*%

G04:AMPARAMS|DCode=17|XSize=43.31mil|YSize=39.37mil|CornerRadius=0mil|HoleSize=0mil|Usage=FLASHONLY|Rotation=87.820|XOffset=0mil|YOffset=0mil|HoleType=Round|Shape=Rectangle|*
%AMROTATEDRECTD17*
4,1,4,0.01885,-0.02239,-0.02049,-0.02089,-0.01885,0.02239,0.02049,0.02089,0.01885,-0.02239,0.0*
%
%ADD17ROTATEDRECTD17*%

G04:AMPARAMS|DCode=18|XSize=43.31mil|YSize=39.37mil|CornerRadius=0mil|HoleSize=0mil|Usage=FLASHONLY|Rotation=96.600|XOffset=0mil|YOffset=0mil|HoleType=Round|Shape=Rectangle|*
%AMROTATEDRECTD18*
4,1,4,0.02204,-0.01925,-0.01707,-0.02377,-0.02204,0.01925,0.01707,0.02377,0.02204,-0.01925,0.0*
%
%ADD18ROTATEDRECTD18*%

G04:AMPARAMS|DCode=19|XSize=59.06mil|YSize=35.43mil|CornerRadius=0mil|HoleSize=0mil|Usage=FLASHONLY|Rotation=61.480|XOffset=0mil|YOffset=0mil|HoleType=Round|Shape=Rectangle|*
%AMROTATEDRECTD19*
4,1,4,0.00147,-0.03440,-0.02967,-0.01749,-0.00147,0.03440,0.02967,0.01749,0.00147,-0.03440,0.0*
%
%ADD19ROTATEDRECTD19*%

G04:AMPARAMS|DCode=20|XSize=59.06mil|YSize=35.43mil|CornerRadius=0mil|HoleSize=0mil|Usage=FLASHONLY|Rotation=70.260|XOffset=0mil|YOffset=0mil|HoleType=Round|Shape=Rectangle|*
%AMROTATEDRECTD20*
4,1,4,0.00670,-0.03378,-0.02665,-0.02181,-0.00670,0.03378,0.02665,0.02181,0.00670,-0.03378,0.0*
%
%ADD20ROTATEDRECTD20*%

G04:AMPARAMS|DCode=21|XSize=59.06mil|YSize=35.43mil|CornerRadius=0mil|HoleSize=0mil|Usage=FLASHONLY|Rotation=79.040|XOffset=0mil|YOffset=0mil|HoleType=Round|Shape=Rectangle|*
%AMROTATEDRECTD21*
4,1,4,0.01178,-0.03236,-0.02301,-0.02562,-0.01178,0.03236,0.02301,0.02562,0.01178,-0.03236,0.0*
%
%ADD21ROTATEDRECTD21*%

G04:AMPARAMS|DCode=22|XSize=59.06mil|YSize=35.43mil|CornerRadius=0mil|HoleSize=0mil|Usage=FLASHONLY|Rotation=87.820|XOffset=0mil|YOffset=0mil|HoleType=Round|Shape=Rectangle|*
%AMROTATEDRECTD22*
4,1,4,0.01658,-0.03018,-0.01883,-0.02883,-0.01658,0.03018,0.01883,0.02883,0.01658,-0.03018,0.0*
%
%ADD22ROTATEDRECTD22*%

G04:AMPARAMS|DCode=23|XSize=59.06mil|YSize=35.43mil|CornerRadius=0mil|HoleSize=0mil|Usage=FLASHONLY|Rotation=96.600|XOffset=0mil|YOffset=0mil|HoleType=Round|Shape=Rectangle|*
%AMROTATEDRECTD23*
4,1,4,0.02099,-0.02730,-0.01421,-0.03137,-0.02099,0.02730,0.01421,0.03137,0.02099,-0.02730,0.0*
%
%ADD23ROTATEDRECTD23*%

G04:AMPARAMS|DCode=24|XSize=43.31mil|YSize=39.37mil|CornerRadius=0mil|HoleSize=0mil|Usage=FLASHONLY|Rotation=17.580|XOffset=0mil|YOffset=0mil|HoleType=Round|Shape=Rectangle|*
%AMROTATEDRECTD24*
4,1,4,-0.01470,-0.02531,-0.02659,0.01223,0.01470,0.02531,0.02659,-0.01223,-0.01470,-0.02531,0.0*
%
%ADD24ROTATEDRECTD24*%

G04:AMPARAMS|DCode=25|XSize=43.31mil|YSize=39.37mil|CornerRadius=0mil|HoleSize=0mil|Usage=FLASHONLY|Rotation=26.360|XOffset=0mil|YOffset=0mil|HoleType=Round|Shape=Rectangle|*
%AMROTATEDRECTD25*
4,1,4,-0.01066,-0.02725,-0.02814,0.00802,0.01066,0.02725,0.02814,-0.00802,-0.01066,-0.02725,0.0*
%
%ADD25ROTATEDRECTD25*%

G04:AMPARAMS|DCode=26|XSize=43.31mil|YSize=39.37mil|CornerRadius=0mil|HoleSize=0mil|Usage=FLASHONLY|Rotation=35.140|XOffset=0mil|YOffset=0mil|HoleType=Round|Shape=Rectangle|*
%AMROTATEDRECTD26*
4,1,4,-0.00638,-0.02856,-0.02904,0.00363,0.00638,0.02856,0.02904,-0.00363,-0.00638,-0.02856,0.0*
%
%ADD26ROTATEDRECTD26*%

G04:AMPARAMS|DCode=27|XSize=43.31mil|YSize=39.37mil|CornerRadius=0mil|HoleSize=0mil|Usage=FLASHONLY|Rotation=43.920|XOffset=0mil|YOffset=0mil|HoleType=Round|Shape=Rectangle|*
%AMROTATEDRECTD27*
4,1,4,-0.00194,-0.02920,-0.02925,-0.00084,0.00194,0.02920,0.02925,0.00084,-0.00194,-0.02920,0.0*
%
%ADD27ROTATEDRECTD27*%

G04:AMPARAMS|DCode=28|XSize=43.31mil|YSize=39.37mil|CornerRadius=0mil|HoleSize=0mil|Usage=FLASHONLY|Rotation=52.700|XOffset=0mil|YOffset=0mil|HoleType=Round|Shape=Rectangle|*
%AMROTATEDRECTD28*
4,1,4,0.00254,-0.02915,-0.02878,-0.00530,-0.00254,0.02915,0.02878,0.00530,0.00254,-0.02915,0.0*
%
%ADD28ROTATEDRECTD28*%

G04:AMPARAMS|DCode=29|XSize=59.06mil|YSize=35.43mil|CornerRadius=0mil|HoleSize=0mil|Usage=FLASHONLY|Rotation=17.580|XOffset=0mil|YOffset=0mil|HoleType=Round|Shape=Rectangle|*
%AMROTATEDRECTD29*
4,1,4,-0.02280,-0.02581,-0.03350,0.00797,0.02280,0.02581,0.03350,-0.00797,-0.02280,-0.02581,0.0*
%
%ADD29ROTATEDRECTD29*%

G04:AMPARAMS|DCode=30|XSize=59.06mil|YSize=35.43mil|CornerRadius=0mil|HoleSize=0mil|Usage=FLASHONLY|Rotation=26.360|XOffset=0mil|YOffset=0mil|HoleType=Round|Shape=Rectangle|*
%AMROTATEDRECTD30*
4,1,4,-0.01859,-0.02899,-0.03432,0.00276,0.01859,0.02899,0.03432,-0.00276,-0.01859,-0.02899,0.0*
%
%ADD30ROTATEDRECTD30*%

G04:AMPARAMS|DCode=31|XSize=59.06mil|YSize=35.43mil|CornerRadius=0mil|HoleSize=0mil|Usage=FLASHONLY|Rotation=35.140|XOffset=0mil|YOffset=0mil|HoleType=Round|Shape=Rectangle|*
%AMROTATEDRECTD31*
4,1,4,-0.01395,-0.03148,-0.03434,-0.00251,0.01395,0.03148,0.03434,0.00251,-0.01395,-0.03148,0.0*
%
%ADD31ROTATEDRECTD31*%

G04:AMPARAMS|DCode=32|XSize=59.06mil|YSize=35.43mil|CornerRadius=0mil|HoleSize=0mil|Usage=FLASHONLY|Rotation=43.920|XOffset=0mil|YOffset=0mil|HoleType=Round|Shape=Rectangle|*
%AMROTATEDRECTD32*
4,1,4,-0.00898,-0.03324,-0.03356,-0.00772,0.00898,0.03324,0.03356,0.00772,-0.00898,-0.03324,0.0*
%
%ADD32ROTATEDRECTD32*%

G04:AMPARAMS|DCode=33|XSize=59.06mil|YSize=35.43mil|CornerRadius=0mil|HoleSize=0mil|Usage=FLASHONLY|Rotation=52.700|XOffset=0mil|YOffset=0mil|HoleType=Round|Shape=Rectangle|*
%AMROTATEDRECTD33*
4,1,4,-0.00380,-0.03422,-0.03199,-0.01275,0.00380,0.03422,0.03199,0.01275,-0.00380,-0.03422,0.0*
%
%ADD33ROTATEDRECTD33*%

G04:AMPARAMS|DCode=34|XSize=43.31mil|YSize=39.37mil|CornerRadius=0mil|HoleSize=0mil|Usage=FLASHONLY|Rotation=8.800|XOffset=0mil|YOffset=0mil|HoleType=Round|Shape=Rectangle|*
%AMROTATEDRECTD34*
4,1,4,-0.01839,-0.02277,-0.02441,0.01614,0.01839,0.02277,0.02441,-0.01614,-0.01839,-0.02277,0.0*
%
%ADD34ROTATEDRECTD34*%

G04:AMPARAMS|DCode=35|XSize=59.06mil|YSize=35.43mil|CornerRadius=0mil|HoleSize=0mil|Usage=FLASHONLY|Rotation=8.800|XOffset=0mil|YOffset=0mil|HoleType=Round|Shape=Rectangle|*
%AMROTATEDRECTD35*
4,1,4,-0.02647,-0.02203,-0.03189,0.01299,0.02647,0.02203,0.03189,-0.01299,-0.02647,-0.02203,0.0*
%
%ADD35ROTATEDRECTD35*%

G04:AMPARAMS|DCode=36|XSize=59.06mil|YSize=35.43mil|CornerRadius=0mil|HoleSize=0mil|Usage=FLASHONLY|Rotation=280.980|XOffset=0mil|YOffset=0mil|HoleType=Round|Shape=Rectangle|*
%AMROTATEDRECTD36*
4,1,4,-0.02302,0.02561,0.01177,0.03236,0.02302,-0.02561,-0.01177,-0.03236,-0.02302,0.02561,0.0*
%
%ADD36ROTATEDRECTD36*%

G04:AMPARAMS|DCode=37|XSize=59.06mil|YSize=35.43mil|CornerRadius=0mil|HoleSize=0mil|Usage=FLASHONLY|Rotation=272.200|XOffset=0mil|YOffset=0mil|HoleType=Round|Shape=Rectangle|*
%AMROTATEDRECTD37*
4,1,4,-0.01884,0.02883,0.01657,0.03019,0.01884,-0.02883,-0.01657,-0.03019,-0.01884,0.02883,0.0*
%
%ADD37ROTATEDRECTD37*%

G04:AMPARAMS|DCode=38|XSize=43.31mil|YSize=39.37mil|CornerRadius=0mil|HoleSize=0mil|Usage=FLASHONLY|Rotation=324.880|XOffset=0mil|YOffset=0mil|HoleType=Round|Shape=Rectangle|*
%AMROTATEDRECTD38*
4,1,4,-0.02904,-0.00364,-0.00639,0.02856,0.02904,0.00364,0.00639,-0.02856,-0.02904,-0.00364,0.0*
%
%ADD38ROTATEDRECTD38*%

G04:AMPARAMS|DCode=39|XSize=43.31mil|YSize=39.37mil|CornerRadius=0mil|HoleSize=0mil|Usage=FLASHONLY|Rotation=333.660|XOffset=0mil|YOffset=0mil|HoleType=Round|Shape=Rectangle|*
%AMROTATEDRECTD39*
4,1,4,-0.02814,-0.00803,-0.01067,0.02725,0.02814,0.00803,0.01067,-0.02725,-0.02814,-0.00803,0.0*
%
%ADD39ROTATEDRECTD39*%

G04:AMPARAMS|DCode=40|XSize=43.31mil|YSize=39.37mil|CornerRadius=0mil|HoleSize=0mil|Usage=FLASHONLY|Rotation=342.440|XOffset=0mil|YOffset=0mil|HoleType=Round|Shape=Rectangle|*
%AMROTATEDRECTD40*
4,1,4,-0.02658,-0.01224,-0.01471,0.02530,0.02658,0.01224,0.01471,-0.02530,-0.02658,-0.01224,0.0*
%
%ADD40ROTATEDRECTD40*%

G04:AMPARAMS|DCode=41|XSize=43.31mil|YSize=39.37mil|CornerRadius=0mil|HoleSize=0mil|Usage=FLASHONLY|Rotation=351.220|XOffset=0mil|YOffset=0mil|HoleType=Round|Shape=Rectangle|*
%AMROTATEDRECTD41*
4,1,4,-0.02441,-0.01615,-0.01840,0.02276,0.02441,0.01615,0.01840,-0.02276,-0.02441,-0.01615,0.0*
%
%ADD41ROTATEDRECTD41*%

%ADD42R,0.04331X0.03937*%
G04:AMPARAMS|DCode=43|XSize=59.06mil|YSize=35.43mil|CornerRadius=0mil|HoleSize=0mil|Usage=FLASHONLY|Rotation=324.880|XOffset=0mil|YOffset=0mil|HoleType=Round|Shape=Rectangle|*
%AMROTATEDRECTD43*
4,1,4,-0.03434,0.00250,-0.01396,0.03148,0.03434,-0.00250,0.01396,-0.03148,-0.03434,0.00250,0.0*
%
%ADD43ROTATEDRECTD43*%

G04:AMPARAMS|DCode=44|XSize=59.06mil|YSize=35.43mil|CornerRadius=0mil|HoleSize=0mil|Usage=FLASHONLY|Rotation=333.660|XOffset=0mil|YOffset=0mil|HoleType=Round|Shape=Rectangle|*
%AMROTATEDRECTD44*
4,1,4,-0.03432,-0.00278,-0.01860,0.02898,0.03432,0.00278,0.01860,-0.02898,-0.03432,-0.00278,0.0*
%
%ADD44ROTATEDRECTD44*%

G04:AMPARAMS|DCode=45|XSize=59.06mil|YSize=35.43mil|CornerRadius=0mil|HoleSize=0mil|Usage=FLASHONLY|Rotation=342.440|XOffset=0mil|YOffset=0mil|HoleType=Round|Shape=Rectangle|*
%AMROTATEDRECTD45*
4,1,4,-0.03350,-0.00798,-0.02281,0.02580,0.03350,0.00798,0.02281,-0.02580,-0.03350,-0.00798,0.0*
%
%ADD45ROTATEDRECTD45*%

G04:AMPARAMS|DCode=46|XSize=59.06mil|YSize=35.43mil|CornerRadius=0mil|HoleSize=0mil|Usage=FLASHONLY|Rotation=351.220|XOffset=0mil|YOffset=0mil|HoleType=Round|Shape=Rectangle|*
%AMROTATEDRECTD46*
4,1,4,-0.03189,-0.01300,-0.02648,0.02202,0.03189,0.01300,0.02648,-0.02202,-0.03189,-0.01300,0.0*
%
%ADD46ROTATEDRECTD46*%

G04:AMPARAMS|DCode=47|XSize=43.31mil|YSize=39.37mil|CornerRadius=0mil|HoleSize=0mil|Usage=FLASHONLY|Rotation=280.980|XOffset=0mil|YOffset=0mil|HoleType=Round|Shape=Rectangle|*
%AMROTATEDRECTD47*
4,1,4,-0.02345,0.01751,0.01520,0.02501,0.02345,-0.01751,-0.01520,-0.02501,-0.02345,0.01751,0.0*
%
%ADD47ROTATEDRECTD47*%

G04:AMPARAMS|DCode=48|XSize=43.31mil|YSize=39.37mil|CornerRadius=0mil|HoleSize=0mil|Usage=FLASHONLY|Rotation=289.760|XOffset=0mil|YOffset=0mil|HoleType=Round|Shape=Rectangle|*
%AMROTATEDRECTD48*
4,1,4,-0.02585,0.01372,0.01121,0.02703,0.02585,-0.01372,-0.01121,-0.02703,-0.02585,0.01372,0.0*
%
%ADD48ROTATEDRECTD48*%

G04:AMPARAMS|DCode=49|XSize=43.31mil|YSize=39.37mil|CornerRadius=0mil|HoleSize=0mil|Usage=FLASHONLY|Rotation=298.540|XOffset=0mil|YOffset=0mil|HoleType=Round|Shape=Rectangle|*
%AMROTATEDRECTD49*
4,1,4,-0.02764,0.00962,0.00695,0.02843,0.02764,-0.00962,-0.00695,-0.02843,-0.02764,0.00962,0.0*
%
%ADD49ROTATEDRECTD49*%

G04:AMPARAMS|DCode=50|XSize=43.31mil|YSize=39.37mil|CornerRadius=0mil|HoleSize=0mil|Usage=FLASHONLY|Rotation=307.320|XOffset=0mil|YOffset=0mil|HoleType=Round|Shape=Rectangle|*
%AMROTATEDRECTD50*
4,1,4,-0.02878,0.00529,0.00253,0.02916,0.02878,-0.00529,-0.00253,-0.02916,-0.02878,0.00529,0.0*
%
%ADD50ROTATEDRECTD50*%

G04:AMPARAMS|DCode=51|XSize=43.31mil|YSize=39.37mil|CornerRadius=0mil|HoleSize=0mil|Usage=FLASHONLY|Rotation=316.100|XOffset=0mil|YOffset=0mil|HoleType=Round|Shape=Rectangle|*
%AMROTATEDRECTD51*
4,1,4,-0.02925,0.00083,-0.00195,0.02920,0.02925,-0.00083,0.00195,-0.02920,-0.02925,0.00083,0.0*
%
%ADD51ROTATEDRECTD51*%

G04:AMPARAMS|DCode=52|XSize=59.06mil|YSize=35.43mil|CornerRadius=0mil|HoleSize=0mil|Usage=FLASHONLY|Rotation=289.760|XOffset=0mil|YOffset=0mil|HoleType=Round|Shape=Rectangle|*
%AMROTATEDRECTD52*
4,1,4,-0.02666,0.02180,0.00669,0.03378,0.02666,-0.02180,-0.00669,-0.03378,-0.02666,0.02180,0.0*
%
%ADD52ROTATEDRECTD52*%

G04:AMPARAMS|DCode=53|XSize=59.06mil|YSize=35.43mil|CornerRadius=0mil|HoleSize=0mil|Usage=FLASHONLY|Rotation=298.540|XOffset=0mil|YOffset=0mil|HoleType=Round|Shape=Rectangle|*
%AMROTATEDRECTD53*
4,1,4,-0.02967,0.01748,0.00146,0.03440,0.02967,-0.01748,-0.00146,-0.03440,-0.02967,0.01748,0.0*
%
%ADD53ROTATEDRECTD53*%

G04:AMPARAMS|DCode=54|XSize=59.06mil|YSize=35.43mil|CornerRadius=0mil|HoleSize=0mil|Usage=FLASHONLY|Rotation=307.320|XOffset=0mil|YOffset=0mil|HoleType=Round|Shape=Rectangle|*
%AMROTATEDRECTD54*
4,1,4,-0.03199,0.01274,-0.00381,0.03422,0.03199,-0.01274,0.00381,-0.03422,-0.03199,0.01274,0.0*
%
%ADD54ROTATEDRECTD54*%

G04:AMPARAMS|DCode=55|XSize=59.06mil|YSize=35.43mil|CornerRadius=0mil|HoleSize=0mil|Usage=FLASHONLY|Rotation=316.100|XOffset=0mil|YOffset=0mil|HoleType=Round|Shape=Rectangle|*
%AMROTATEDRECTD55*
4,1,4,-0.03356,0.00771,-0.00899,0.03324,0.03356,-0.00771,0.00899,-0.03324,-0.03356,0.00771,0.0*
%
%ADD55ROTATEDRECTD55*%

G04:AMPARAMS|DCode=56|XSize=43.31mil|YSize=39.37mil|CornerRadius=0mil|HoleSize=0mil|Usage=FLASHONLY|Rotation=237.080|XOffset=0mil|YOffset=0mil|HoleType=Round|Shape=Rectangle|*
%AMROTATEDRECTD56*
4,1,4,-0.00476,0.02888,0.02829,0.00748,0.00476,-0.02888,-0.02829,-0.00748,-0.00476,0.02888,0.0*
%
%ADD56ROTATEDRECTD56*%

G04:AMPARAMS|DCode=57|XSize=43.31mil|YSize=39.37mil|CornerRadius=0mil|HoleSize=0mil|Usage=FLASHONLY|Rotation=245.860|XOffset=0mil|YOffset=0mil|HoleType=Round|Shape=Rectangle|*
%AMROTATEDRECTD57*
4,1,4,-0.00911,0.02781,0.02682,0.01171,0.00911,-0.02781,-0.02682,-0.01171,-0.00911,0.02781,0.0*
%
%ADD57ROTATEDRECTD57*%

G04:AMPARAMS|DCode=58|XSize=43.31mil|YSize=39.37mil|CornerRadius=0mil|HoleSize=0mil|Usage=FLASHONLY|Rotation=254.640|XOffset=0mil|YOffset=0mil|HoleType=Round|Shape=Rectangle|*
%AMROTATEDRECTD58*
4,1,4,-0.01325,0.02609,0.02472,0.01567,0.01325,-0.02609,-0.02472,-0.01567,-0.01325,0.02609,0.0*
%
%ADD58ROTATEDRECTD58*%

G04:AMPARAMS|DCode=59|XSize=43.31mil|YSize=39.37mil|CornerRadius=0mil|HoleSize=0mil|Usage=FLASHONLY|Rotation=263.420|XOffset=0mil|YOffset=0mil|HoleType=Round|Shape=Rectangle|*
%AMROTATEDRECTD59*
4,1,4,-0.01707,0.02377,0.02204,0.01925,0.01707,-0.02377,-0.02204,-0.01925,-0.01707,0.02377,0.0*
%
%ADD59ROTATEDRECTD59*%

G04:AMPARAMS|DCode=60|XSize=43.31mil|YSize=39.37mil|CornerRadius=0mil|HoleSize=0mil|Usage=FLASHONLY|Rotation=272.200|XOffset=0mil|YOffset=0mil|HoleType=Round|Shape=Rectangle|*
%AMROTATEDRECTD60*
4,1,4,-0.02050,0.02088,0.01884,0.02239,0.02050,-0.02088,-0.01884,-0.02239,-0.02050,0.02088,0.0*
%
%ADD60ROTATEDRECTD60*%

G04:AMPARAMS|DCode=61|XSize=59.06mil|YSize=35.43mil|CornerRadius=0mil|HoleSize=0mil|Usage=FLASHONLY|Rotation=237.080|XOffset=0mil|YOffset=0mil|HoleType=Round|Shape=Rectangle|*
%AMROTATEDRECTD61*
4,1,4,0.00118,0.03442,0.03092,0.01516,-0.00118,-0.03442,-0.03092,-0.01516,0.00118,0.03442,0.0*
%
%ADD61ROTATEDRECTD61*%

G04:AMPARAMS|DCode=62|XSize=59.06mil|YSize=35.43mil|CornerRadius=0mil|HoleSize=0mil|Usage=FLASHONLY|Rotation=245.860|XOffset=0mil|YOffset=0mil|HoleType=Round|Shape=Rectangle|*
%AMROTATEDRECTD62*
4,1,4,-0.00409,0.03419,0.02824,0.01970,0.00409,-0.03419,-0.02824,-0.01970,-0.00409,0.03419,0.0*
%
%ADD62ROTATEDRECTD62*%

G04:AMPARAMS|DCode=63|XSize=59.06mil|YSize=35.43mil|CornerRadius=0mil|HoleSize=0mil|Usage=FLASHONLY|Rotation=254.640|XOffset=0mil|YOffset=0mil|HoleType=Round|Shape=Rectangle|*
%AMROTATEDRECTD63*
4,1,4,-0.00926,0.03317,0.02491,0.02378,0.00926,-0.03317,-0.02491,-0.02378,-0.00926,0.03317,0.0*
%
%ADD63ROTATEDRECTD63*%

G04:AMPARAMS|DCode=64|XSize=59.06mil|YSize=35.43mil|CornerRadius=0mil|HoleSize=0mil|Usage=FLASHONLY|Rotation=263.420|XOffset=0mil|YOffset=0mil|HoleType=Round|Shape=Rectangle|*
%AMROTATEDRECTD64*
4,1,4,-0.01422,0.03136,0.02098,0.02730,0.01422,-0.03136,-0.02098,-0.02730,-0.01422,0.03136,0.0*
%
%ADD64ROTATEDRECTD64*%

G04:AMPARAMS|DCode=65|XSize=43.31mil|YSize=39.37mil|CornerRadius=0mil|HoleSize=0mil|Usage=FLASHONLY|Rotation=193.180|XOffset=0mil|YOffset=0mil|HoleType=Round|Shape=Rectangle|*
%AMROTATEDRECTD65*
4,1,4,0.01660,0.02410,0.02557,-0.01423,-0.01660,-0.02410,-0.02557,0.01423,0.01660,0.02410,0.0*
%
%ADD65ROTATEDRECTD65*%

G04:AMPARAMS|DCode=66|XSize=43.31mil|YSize=39.37mil|CornerRadius=0mil|HoleSize=0mil|Usage=FLASHONLY|Rotation=201.960|XOffset=0mil|YOffset=0mil|HoleType=Round|Shape=Rectangle|*
%AMROTATEDRECTD66*
4,1,4,0.01272,0.02635,0.02744,-0.01016,-0.01272,-0.02635,-0.02744,0.01016,0.01272,0.02635,0.0*
%
%ADD66ROTATEDRECTD66*%

G04:AMPARAMS|DCode=67|XSize=43.31mil|YSize=39.37mil|CornerRadius=0mil|HoleSize=0mil|Usage=FLASHONLY|Rotation=210.740|XOffset=0mil|YOffset=0mil|HoleType=Round|Shape=Rectangle|*
%AMROTATEDRECTD67*
4,1,4,0.00855,0.02799,0.02867,-0.00585,-0.00855,-0.02799,-0.02867,0.00585,0.00855,0.02799,0.0*
%
%ADD67ROTATEDRECTD67*%

G04:AMPARAMS|DCode=68|XSize=43.31mil|YSize=39.37mil|CornerRadius=0mil|HoleSize=0mil|Usage=FLASHONLY|Rotation=219.520|XOffset=0mil|YOffset=0mil|HoleType=Round|Shape=Rectangle|*
%AMROTATEDRECTD68*
4,1,4,0.00418,0.02896,0.02923,-0.00141,-0.00418,-0.02896,-0.02923,0.00141,0.00418,0.02896,0.0*
%
%ADD68ROTATEDRECTD68*%

G04:AMPARAMS|DCode=69|XSize=43.31mil|YSize=39.37mil|CornerRadius=0mil|HoleSize=0mil|Usage=FLASHONLY|Rotation=228.300|XOffset=0mil|YOffset=0mil|HoleType=Round|Shape=Rectangle|*
%AMROTATEDRECTD69*
4,1,4,-0.00029,0.02926,0.02910,0.00307,0.00029,-0.02926,-0.02910,-0.00307,-0.00029,0.02926,0.0*
%
%ADD69ROTATEDRECTD69*%

G04:AMPARAMS|DCode=70|XSize=59.06mil|YSize=35.43mil|CornerRadius=0mil|HoleSize=0mil|Usage=FLASHONLY|Rotation=193.180|XOffset=0mil|YOffset=0mil|HoleType=Round|Shape=Rectangle|*
%AMROTATEDRECTD70*
4,1,4,0.02471,0.02398,0.03279,-0.01052,-0.02471,-0.02398,-0.03279,0.01052,0.02471,0.02398,0.0*
%
%ADD70ROTATEDRECTD70*%

G04:AMPARAMS|DCode=71|XSize=59.06mil|YSize=35.43mil|CornerRadius=0mil|HoleSize=0mil|Usage=FLASHONLY|Rotation=201.960|XOffset=0mil|YOffset=0mil|HoleType=Round|Shape=Rectangle|*
%AMROTATEDRECTD71*
4,1,4,0.02076,0.02747,0.03401,-0.00539,-0.02076,-0.02747,-0.03401,0.00539,0.02076,0.02747,0.0*
%
%ADD71ROTATEDRECTD71*%

G04:AMPARAMS|DCode=72|XSize=59.06mil|YSize=35.43mil|CornerRadius=0mil|HoleSize=0mil|Usage=FLASHONLY|Rotation=210.740|XOffset=0mil|YOffset=0mil|HoleType=Round|Shape=Rectangle|*
%AMROTATEDRECTD72*
4,1,4,0.01632,0.03032,0.03444,-0.00013,-0.01632,-0.03032,-0.03444,0.00013,0.01632,0.03032,0.0*
%
%ADD72ROTATEDRECTD72*%

G04:AMPARAMS|DCode=73|XSize=59.06mil|YSize=35.43mil|CornerRadius=0mil|HoleSize=0mil|Usage=FLASHONLY|Rotation=219.520|XOffset=0mil|YOffset=0mil|HoleType=Round|Shape=Rectangle|*
%AMROTATEDRECTD73*
4,1,4,0.01150,0.03246,0.03405,0.00512,-0.01150,-0.03246,-0.03405,-0.00512,0.01150,0.03246,0.0*
%
%ADD73ROTATEDRECTD73*%

G04:AMPARAMS|DCode=74|XSize=59.06mil|YSize=35.43mil|CornerRadius=0mil|HoleSize=0mil|Usage=FLASHONLY|Rotation=228.300|XOffset=0mil|YOffset=0mil|HoleType=Round|Shape=Rectangle|*
%AMROTATEDRECTD74*
4,1,4,0.00642,0.03383,0.03287,0.01026,-0.00642,-0.03383,-0.03287,-0.01026,0.00642,0.03383,0.0*
%
%ADD74ROTATEDRECTD74*%

G04:AMPARAMS|DCode=75|XSize=43.31mil|YSize=39.37mil|CornerRadius=0mil|HoleSize=0mil|Usage=FLASHONLY|Rotation=149.280|XOffset=0mil|YOffset=0mil|HoleType=Round|Shape=Rectangle|*
%AMROTATEDRECTD75*
4,1,4,0.02867,0.00586,0.00856,-0.02798,-0.02867,-0.00586,-0.00856,0.02798,0.02867,0.00586,0.0*
%
%ADD75ROTATEDRECTD75*%

G04:AMPARAMS|DCode=76|XSize=43.31mil|YSize=39.37mil|CornerRadius=0mil|HoleSize=0mil|Usage=FLASHONLY|Rotation=158.060|XOffset=0mil|YOffset=0mil|HoleType=Round|Shape=Rectangle|*
%AMROTATEDRECTD76*
4,1,4,0.02744,0.01017,0.01273,-0.02635,-0.02744,-0.01017,-0.01273,0.02635,0.02744,0.01017,0.0*
%
%ADD76ROTATEDRECTD76*%

G04:AMPARAMS|DCode=77|XSize=43.31mil|YSize=39.37mil|CornerRadius=0mil|HoleSize=0mil|Usage=FLASHONLY|Rotation=166.840|XOffset=0mil|YOffset=0mil|HoleType=Round|Shape=Rectangle|*
%AMROTATEDRECTD77*
4,1,4,0.02557,0.01424,0.01660,-0.02410,-0.02557,-0.01424,-0.01660,0.02410,0.02557,0.01424,0.0*
%
%ADD77ROTATEDRECTD77*%

G04:AMPARAMS|DCode=78|XSize=43.31mil|YSize=39.37mil|CornerRadius=0mil|HoleSize=0mil|Usage=FLASHONLY|Rotation=175.620|XOffset=0mil|YOffset=0mil|HoleType=Round|Shape=Rectangle|*
%AMROTATEDRECTD78*
4,1,4,0.02309,0.01797,0.02009,-0.02128,-0.02309,-0.01797,-0.02009,0.02128,0.02309,0.01797,0.0*
%
%ADD78ROTATEDRECTD78*%

G04:AMPARAMS|DCode=79|XSize=43.31mil|YSize=39.37mil|CornerRadius=0mil|HoleSize=0mil|Usage=FLASHONLY|Rotation=184.400|XOffset=0mil|YOffset=0mil|HoleType=Round|Shape=Rectangle|*
%AMROTATEDRECTD79*
4,1,4,0.02008,0.02129,0.02310,-0.01797,-0.02008,-0.02129,-0.02310,0.01797,0.02008,0.02129,0.0*
%
%ADD79ROTATEDRECTD79*%

G04:AMPARAMS|DCode=80|XSize=59.06mil|YSize=35.43mil|CornerRadius=0mil|HoleSize=0mil|Usage=FLASHONLY|Rotation=149.280|XOffset=0mil|YOffset=0mil|HoleType=Round|Shape=Rectangle|*
%AMROTATEDRECTD80*
4,1,4,0.03443,0.00015,0.01633,-0.03031,-0.03443,-0.00015,-0.01633,0.03031,0.03443,0.00015,0.0*
%
%ADD80ROTATEDRECTD80*%

G04:AMPARAMS|DCode=81|XSize=59.06mil|YSize=35.43mil|CornerRadius=0mil|HoleSize=0mil|Usage=FLASHONLY|Rotation=158.060|XOffset=0mil|YOffset=0mil|HoleType=Round|Shape=Rectangle|*
%AMROTATEDRECTD81*
4,1,4,0.03401,0.00540,0.02077,-0.02747,-0.03401,-0.00540,-0.02077,0.02747,0.03401,0.00540,0.0*
%
%ADD81ROTATEDRECTD81*%

G04:AMPARAMS|DCode=82|XSize=59.06mil|YSize=35.43mil|CornerRadius=0mil|HoleSize=0mil|Usage=FLASHONLY|Rotation=166.840|XOffset=0mil|YOffset=0mil|HoleType=Round|Shape=Rectangle|*
%AMROTATEDRECTD82*
4,1,4,0.03279,0.01053,0.02472,-0.02397,-0.03279,-0.01053,-0.02472,0.02397,0.03279,0.01053,0.0*
%
%ADD82ROTATEDRECTD82*%

G04:AMPARAMS|DCode=83|XSize=59.06mil|YSize=35.43mil|CornerRadius=0mil|HoleSize=0mil|Usage=FLASHONLY|Rotation=175.620|XOffset=0mil|YOffset=0mil|HoleType=Round|Shape=Rectangle|*
%AMROTATEDRECTD83*
4,1,4,0.03079,0.01541,0.02809,-0.01992,-0.03079,-0.01541,-0.02809,0.01992,0.03079,0.01541,0.0*
%
%ADD83ROTATEDRECTD83*%

G04:AMPARAMS|DCode=84|XSize=59.06mil|YSize=35.43mil|CornerRadius=0mil|HoleSize=0mil|Usage=FLASHONLY|Rotation=184.400|XOffset=0mil|YOffset=0mil|HoleType=Round|Shape=Rectangle|*
%AMROTATEDRECTD84*
4,1,4,0.02808,0.01993,0.03080,-0.01540,-0.02808,-0.01993,-0.03080,0.01540,0.02808,0.01993,0.0*
%
%ADD84ROTATEDRECTD84*%

G04:AMPARAMS|DCode=85|XSize=43.31mil|YSize=39.37mil|CornerRadius=0mil|HoleSize=0mil|Usage=FLASHONLY|Rotation=105.380|XOffset=0mil|YOffset=0mil|HoleType=Round|Shape=Rectangle|*
%AMROTATEDRECTD85*
4,1,4,0.02472,-0.01566,-0.01324,-0.02610,-0.02472,0.01566,0.01324,0.02610,0.02472,-0.01566,0.0*
%
%ADD85ROTATEDRECTD85*%

G04:AMPARAMS|DCode=86|XSize=43.31mil|YSize=39.37mil|CornerRadius=0mil|HoleSize=0mil|Usage=FLASHONLY|Rotation=114.160|XOffset=0mil|YOffset=0mil|HoleType=Round|Shape=Rectangle|*
%AMROTATEDRECTD86*
4,1,4,0.02682,-0.01170,-0.00910,-0.02781,-0.02682,0.01170,0.00910,0.02781,0.02682,-0.01170,0.0*
%
%ADD86ROTATEDRECTD86*%

G04:AMPARAMS|DCode=87|XSize=43.31mil|YSize=39.37mil|CornerRadius=0mil|HoleSize=0mil|Usage=FLASHONLY|Rotation=122.940|XOffset=0mil|YOffset=0mil|HoleType=Round|Shape=Rectangle|*
%AMROTATEDRECTD87*
4,1,4,0.02830,-0.00747,-0.00475,-0.02888,-0.02830,0.00747,0.00475,0.02888,0.02830,-0.00747,0.0*
%
%ADD87ROTATEDRECTD87*%

G04:AMPARAMS|DCode=88|XSize=43.31mil|YSize=39.37mil|CornerRadius=0mil|HoleSize=0mil|Usage=FLASHONLY|Rotation=131.720|XOffset=0mil|YOffset=0mil|HoleType=Round|Shape=Rectangle|*
%AMROTATEDRECTD88*
4,1,4,0.02910,-0.00306,-0.00028,-0.02926,-0.02910,0.00306,0.00028,0.02926,0.02910,-0.00306,0.0*
%
%ADD88ROTATEDRECTD88*%

G04:AMPARAMS|DCode=89|XSize=43.31mil|YSize=39.37mil|CornerRadius=0mil|HoleSize=0mil|Usage=FLASHONLY|Rotation=140.500|XOffset=0mil|YOffset=0mil|HoleType=Round|Shape=Rectangle|*
%AMROTATEDRECTD89*
4,1,4,0.02923,0.00142,0.00419,-0.02896,-0.02923,-0.00142,-0.00419,0.02896,0.02923,0.00142,0.0*
%
%ADD89ROTATEDRECTD89*%

G04:AMPARAMS|DCode=90|XSize=59.06mil|YSize=35.43mil|CornerRadius=0mil|HoleSize=0mil|Usage=FLASHONLY|Rotation=114.160|XOffset=0mil|YOffset=0mil|HoleType=Round|Shape=Rectangle|*
%AMROTATEDRECTD90*
4,1,4,0.02825,-0.01969,-0.00408,-0.03419,-0.02825,0.01969,0.00408,0.03419,0.02825,-0.01969,0.0*
%
%ADD90ROTATEDRECTD90*%

G04:AMPARAMS|DCode=91|XSize=59.06mil|YSize=35.43mil|CornerRadius=0mil|HoleSize=0mil|Usage=FLASHONLY|Rotation=122.940|XOffset=0mil|YOffset=0mil|HoleType=Round|Shape=Rectangle|*
%AMROTATEDRECTD91*
4,1,4,0.03092,-0.01515,0.00119,-0.03441,-0.03092,0.01515,-0.00119,0.03441,0.03092,-0.01515,0.0*
%
%ADD91ROTATEDRECTD91*%

G04:AMPARAMS|DCode=92|XSize=59.06mil|YSize=35.43mil|CornerRadius=0mil|HoleSize=0mil|Usage=FLASHONLY|Rotation=131.720|XOffset=0mil|YOffset=0mil|HoleType=Round|Shape=Rectangle|*
%AMROTATEDRECTD92*
4,1,4,0.03287,-0.01025,0.00643,-0.03383,-0.03287,0.01025,-0.00643,0.03383,0.03287,-0.01025,0.0*
%
%ADD92ROTATEDRECTD92*%

G04:AMPARAMS|DCode=93|XSize=59.06mil|YSize=35.43mil|CornerRadius=0mil|HoleSize=0mil|Usage=FLASHONLY|Rotation=140.500|XOffset=0mil|YOffset=0mil|HoleType=Round|Shape=Rectangle|*
%AMROTATEDRECTD93*
4,1,4,0.03405,-0.00511,0.01152,-0.03245,-0.03405,0.00511,-0.01152,0.03245,0.03405,-0.00511,0.0*
%
%ADD93ROTATEDRECTD93*%

G04:AMPARAMS|DCode=179|XSize=35.43mil|YSize=62.99mil|CornerRadius=0mil|HoleSize=0mil|Usage=FLASHONLY|Rotation=153.660|XOffset=0mil|YOffset=0mil|HoleType=Round|Shape=Round|*
%AMOVALD179*
21,1,0.02756,0.03543,0.00000,0.00000,243.7*
1,1,0.03543,0.00611,0.01235*
1,1,0.03543,-0.00611,-0.01235*
%
%ADD179OVALD179*%

D12*
X-178237Y-58623D02*
D03*
X-166089Y-55282D02*
D03*
X-170997Y-37441D02*
D03*
X-183144Y-40782D02*
D03*
D13*
X-9252Y187402D02*
D03*
Y174803D02*
D03*
X9252D02*
D03*
Y187402D02*
D03*
D14*
X-145598Y76560D02*
D03*
X-142402Y82440D02*
D03*
D15*
X-155630Y52850D02*
D03*
X-153370Y59150D02*
D03*
D16*
X-162636Y27215D02*
D03*
X-161364Y33785D02*
D03*
D17*
X-164127Y2156D02*
D03*
X-163873Y8844D02*
D03*
D18*
X-163115Y-21324D02*
D03*
X-163885Y-14676D02*
D03*
D19*
X-169078Y81349D02*
D03*
X-158008Y75333D02*
D03*
X-149173Y91592D02*
D03*
X-160243Y97607D02*
D03*
D20*
X-179514Y54587D02*
D03*
X-167656Y50332D02*
D03*
X-161406Y67748D02*
D03*
X-173264Y72004D02*
D03*
D21*
X-185742Y26546D02*
D03*
X-173374Y24151D02*
D03*
X-169856Y42317D02*
D03*
X-182224Y44713D02*
D03*
D22*
X-187618Y-2117D02*
D03*
X-175029Y-2596D02*
D03*
X-174325Y15895D02*
D03*
X-186914Y16374D02*
D03*
D23*
X-185096Y-30730D02*
D03*
X-172581Y-29282D02*
D03*
X-174708Y-10901D02*
D03*
X-187223Y-12349D02*
D03*
D24*
X-52190Y156489D02*
D03*
X-45810Y158511D02*
D03*
D25*
X-75999Y146514D02*
D03*
X-70002Y149486D02*
D03*
D26*
X-97737Y133074D02*
D03*
X-92263Y136926D02*
D03*
D27*
X-116411Y117179D02*
D03*
X-111590Y121821D02*
D03*
D28*
X-133028Y97838D02*
D03*
X-128972Y103162D02*
D03*
D29*
X-65422Y175855D02*
D03*
X-61617Y163845D02*
D03*
X-43977Y169434D02*
D03*
X-47782Y181444D02*
D03*
D30*
X-91498Y163808D02*
D03*
X-85904Y152520D02*
D03*
X-69324Y160735D02*
D03*
X-74918Y172024D02*
D03*
D31*
X-115430Y147922D02*
D03*
X-108178Y137620D02*
D03*
X-93047Y148270D02*
D03*
X-100298Y158572D02*
D03*
D32*
X-136656Y128569D02*
D03*
X-127917Y119495D02*
D03*
X-114588Y132330D02*
D03*
X-123327Y141405D02*
D03*
D33*
X-154680Y106203D02*
D03*
X-144658Y98569D02*
D03*
X-133445Y113288D02*
D03*
X-143466Y120923D02*
D03*
D34*
X-28307Y162988D02*
D03*
X-21693Y164012D02*
D03*
D35*
X-37813Y183780D02*
D03*
X-35886Y171330D02*
D03*
X-17599Y174161D02*
D03*
X-19527Y186611D02*
D03*
D36*
X182209Y44776D02*
D03*
X169841Y42377D02*
D03*
X173365Y24212D02*
D03*
X185733Y26611D02*
D03*
D37*
X186908Y16439D02*
D03*
X174319Y15956D02*
D03*
X175030Y-2535D02*
D03*
X187619Y-2051D02*
D03*
D38*
X92263Y136925D02*
D03*
X97737Y133075D02*
D03*
D39*
X70001Y149485D02*
D03*
X75999Y146515D02*
D03*
D40*
X46310Y159010D02*
D03*
X52691Y156990D02*
D03*
D41*
X21193Y164011D02*
D03*
X27807Y162989D02*
D03*
D42*
X-3347Y165500D02*
D03*
X3347D02*
D03*
D43*
X100243Y158607D02*
D03*
X92995Y148303D02*
D03*
X108130Y137657D02*
D03*
X115378Y147962D02*
D03*
D44*
X74858Y172050D02*
D03*
X69268Y160760D02*
D03*
X85851Y152550D02*
D03*
X91441Y163840D02*
D03*
D45*
X47719Y181460D02*
D03*
X43918Y169449D02*
D03*
X61560Y163866D02*
D03*
X65361Y175878D02*
D03*
D46*
X19462Y186618D02*
D03*
X17539Y174167D02*
D03*
X35826Y171343D02*
D03*
X37749Y183793D02*
D03*
D47*
X160863Y33285D02*
D03*
X162137Y26715D02*
D03*
D48*
X153869Y58149D02*
D03*
X156131Y51851D02*
D03*
D49*
X143401Y80940D02*
D03*
X146599Y75060D02*
D03*
D50*
X128971Y102661D02*
D03*
X133029Y97339D02*
D03*
D51*
X111589Y120820D02*
D03*
X116411Y116180D02*
D03*
D52*
X173239Y72064D02*
D03*
X161382Y67805D02*
D03*
X167638Y50390D02*
D03*
X179495Y54650D02*
D03*
D53*
X160209Y97663D02*
D03*
X149141Y91644D02*
D03*
X157982Y75388D02*
D03*
X169050Y81408D02*
D03*
D54*
X143424Y120973D02*
D03*
X133405Y113335D02*
D03*
X144623Y98620D02*
D03*
X154642Y106257D02*
D03*
D55*
X123278Y141448D02*
D03*
X114542Y132370D02*
D03*
X127875Y119539D02*
D03*
X136611Y128617D02*
D03*
D56*
X140319Y-86191D02*
D03*
X136681Y-91809D02*
D03*
D57*
X151369Y-63446D02*
D03*
X148631Y-69554D02*
D03*
D58*
X159386Y-39773D02*
D03*
X157614Y-46227D02*
D03*
D59*
X163383Y-15676D02*
D03*
X162617Y-22324D02*
D03*
D60*
X163372Y8344D02*
D03*
X163628Y1656D02*
D03*
D61*
X162339Y-94080D02*
D03*
X151763Y-87234D02*
D03*
X141707Y-102766D02*
D03*
X152282Y-109613D02*
D03*
D62*
X174797Y-68198D02*
D03*
X163300Y-63046D02*
D03*
X155733Y-79932D02*
D03*
X167229Y-85084D02*
D03*
D63*
X183158Y-40718D02*
D03*
X171010Y-37381D02*
D03*
X166109Y-55224D02*
D03*
X178257Y-58561D02*
D03*
D64*
X187227Y-12283D02*
D03*
X174712Y-10840D02*
D03*
X172591Y-29222D02*
D03*
X185107Y-30665D02*
D03*
D65*
X41258Y-158737D02*
D03*
X34742Y-160263D02*
D03*
D66*
X64604Y-151249D02*
D03*
X58396Y-153751D02*
D03*
D67*
X86876Y-138789D02*
D03*
X81124Y-142210D02*
D03*
D68*
X107581Y-123371D02*
D03*
X102418Y-127629D02*
D03*
D69*
X125726Y-105001D02*
D03*
X121274Y-109999D02*
D03*
D70*
X51738Y-180356D02*
D03*
X48865Y-168089D02*
D03*
X30849Y-172308D02*
D03*
X33721Y-184575D02*
D03*
D71*
X78661Y-170345D02*
D03*
X73950Y-158660D02*
D03*
X56789Y-165580D02*
D03*
X61500Y-177264D02*
D03*
D72*
X103741Y-156342D02*
D03*
X97301Y-145513D02*
D03*
X81397Y-154972D02*
D03*
X87837Y-165800D02*
D03*
D73*
X126390Y-138675D02*
D03*
X118373Y-128956D02*
D03*
X104099Y-140731D02*
D03*
X112116Y-150450D02*
D03*
D74*
X146076Y-117757D02*
D03*
X136669Y-109377D02*
D03*
X124360Y-123192D02*
D03*
X133766Y-131573D02*
D03*
D75*
X-82623Y-142710D02*
D03*
X-88377Y-139290D02*
D03*
D76*
X-58396Y-154250D02*
D03*
X-64604Y-151750D02*
D03*
D77*
X-35241Y-160762D02*
D03*
X-41759Y-159238D02*
D03*
D78*
X-9163Y-163756D02*
D03*
X-15837Y-163244D02*
D03*
D79*
X15337Y-163243D02*
D03*
X8663Y-163757D02*
D03*
D80*
X-87779Y-165831D02*
D03*
X-81343Y-155000D02*
D03*
X-97251Y-145547D02*
D03*
X-103686Y-156378D02*
D03*
D81*
X-61438Y-177286D02*
D03*
X-56731Y-165600D02*
D03*
X-73895Y-158686D02*
D03*
X-78602Y-170372D02*
D03*
D82*
X-33657Y-184587D02*
D03*
X-30789Y-172319D02*
D03*
X-48807Y-168106D02*
D03*
X-51675Y-180374D02*
D03*
D83*
X-5087Y-187561D02*
D03*
X-4125Y-174999D02*
D03*
X-22575Y-173586D02*
D03*
X-23537Y-186148D02*
D03*
D84*
X23602Y-186140D02*
D03*
X22635Y-173578D02*
D03*
X4186Y-174998D02*
D03*
X5153Y-187559D02*
D03*
D85*
X-157613Y-46227D02*
D03*
X-159388Y-39773D02*
D03*
D86*
X-148630Y-69053D02*
D03*
X-151370Y-62947D02*
D03*
D87*
X-136680Y-91808D02*
D03*
X-140320Y-86191D02*
D03*
D88*
X-121773Y-110498D02*
D03*
X-126227Y-105502D02*
D03*
D89*
X-102418Y-128629D02*
D03*
X-107582Y-124371D02*
D03*
D90*
X-167200Y-85142D02*
D03*
X-155705Y-79986D02*
D03*
X-163278Y-63103D02*
D03*
X-174773Y-68259D02*
D03*
D91*
X-152244Y-109666D02*
D03*
X-141671Y-102816D02*
D03*
X-151733Y-87286D02*
D03*
X-162306Y-94137D02*
D03*
D92*
X-133721Y-131620D02*
D03*
X-124317Y-123236D02*
D03*
X-136631Y-109424D02*
D03*
X-146035Y-117808D02*
D03*
D93*
X-112063Y-150489D02*
D03*
X-104049Y-140767D02*
D03*
X-118327Y-128997D02*
D03*
X-126341Y-138719D02*
D03*
D179*
X77857Y160765D02*
D03*
X101143Y149235D02*
D03*
M02*
