G04*
G04 #@! TF.GenerationSoftware,Altium Limited,Altium Designer,20.1.12 (249)*
G04*
G04 Layer_Physical_Order=1*
G04 Layer_Color=255*
%FSLAX25Y25*%
%MOIN*%
G70*
G04*
G04 #@! TF.SameCoordinates,7C2EAEED-1B34-4CDB-9279-0DCC4619808E*
G04*
G04*
G04 #@! TF.FilePolarity,Positive*
G04*
G01*
G75*
%ADD10C,0.01000*%
G04:AMPARAMS|DCode=12|XSize=59.06mil|YSize=35.43mil|CornerRadius=0mil|HoleSize=0mil|Usage=FLASHONLY|Rotation=105.380|XOffset=0mil|YOffset=0mil|HoleType=Round|Shape=Rectangle|*
%AMROTATEDRECTD12*
4,1,4,0.02491,-0.02377,-0.00925,-0.03317,-0.02491,0.02377,0.00925,0.03317,0.02491,-0.02377,0.0*
%
%ADD12ROTATEDRECTD12*%

%ADD13R,0.05906X0.03543*%
G04:AMPARAMS|DCode=14|XSize=43.31mil|YSize=39.37mil|CornerRadius=0mil|HoleSize=0mil|Usage=FLASHONLY|Rotation=61.480|XOffset=0mil|YOffset=0mil|HoleType=Round|Shape=Rectangle|*
%AMROTATEDRECTD14*
4,1,4,0.00696,-0.02843,-0.02764,-0.00963,-0.00696,0.02843,0.02764,0.00963,0.00696,-0.02843,0.0*
%
%ADD14ROTATEDRECTD14*%

G04:AMPARAMS|DCode=15|XSize=43.31mil|YSize=39.37mil|CornerRadius=0mil|HoleSize=0mil|Usage=FLASHONLY|Rotation=70.260|XOffset=0mil|YOffset=0mil|HoleType=Round|Shape=Rectangle|*
%AMROTATEDRECTD15*
4,1,4,0.01122,-0.02703,-0.02584,-0.01373,-0.01122,0.02703,0.02584,0.01373,0.01122,-0.02703,0.0*
%
%ADD15ROTATEDRECTD15*%

G04:AMPARAMS|DCode=16|XSize=43.31mil|YSize=39.37mil|CornerRadius=0mil|HoleSize=0mil|Usage=FLASHONLY|Rotation=79.040|XOffset=0mil|YOffset=0mil|HoleType=Round|Shape=Rectangle|*
%AMROTATEDRECTD16*
4,1,4,0.01521,-0.02500,-0.02344,-0.01752,-0.01521,0.02500,0.02344,0.01752,0.01521,-0.02500,0.0*
%
%ADD16ROTATEDRECTD16*%

G04:AMPARAMS|DCode=17|XSize=43.31mil|YSize=39.37mil|CornerRadius=0mil|HoleSize=0mil|Usage=FLASHONLY|Rotation=87.820|XOffset=0mil|YOffset=0mil|HoleType=Round|Shape=Rectangle|*
%AMROTATEDRECTD17*
4,1,4,0.01885,-0.02239,-0.02049,-0.02089,-0.01885,0.02239,0.02049,0.02089,0.01885,-0.02239,0.0*
%
%ADD17ROTATEDRECTD17*%

G04:AMPARAMS|DCode=18|XSize=43.31mil|YSize=39.37mil|CornerRadius=0mil|HoleSize=0mil|Usage=FLASHONLY|Rotation=96.600|XOffset=0mil|YOffset=0mil|HoleType=Round|Shape=Rectangle|*
%AMROTATEDRECTD18*
4,1,4,0.02204,-0.01925,-0.01707,-0.02377,-0.02204,0.01925,0.01707,0.02377,0.02204,-0.01925,0.0*
%
%ADD18ROTATEDRECTD18*%

G04:AMPARAMS|DCode=19|XSize=59.06mil|YSize=35.43mil|CornerRadius=0mil|HoleSize=0mil|Usage=FLASHONLY|Rotation=61.480|XOffset=0mil|YOffset=0mil|HoleType=Round|Shape=Rectangle|*
%AMROTATEDRECTD19*
4,1,4,0.00147,-0.03440,-0.02967,-0.01749,-0.00147,0.03440,0.02967,0.01749,0.00147,-0.03440,0.0*
%
%ADD19ROTATEDRECTD19*%

G04:AMPARAMS|DCode=20|XSize=59.06mil|YSize=35.43mil|CornerRadius=0mil|HoleSize=0mil|Usage=FLASHONLY|Rotation=70.260|XOffset=0mil|YOffset=0mil|HoleType=Round|Shape=Rectangle|*
%AMROTATEDRECTD20*
4,1,4,0.00670,-0.03378,-0.02665,-0.02181,-0.00670,0.03378,0.02665,0.02181,0.00670,-0.03378,0.0*
%
%ADD20ROTATEDRECTD20*%

G04:AMPARAMS|DCode=21|XSize=59.06mil|YSize=35.43mil|CornerRadius=0mil|HoleSize=0mil|Usage=FLASHONLY|Rotation=79.040|XOffset=0mil|YOffset=0mil|HoleType=Round|Shape=Rectangle|*
%AMROTATEDRECTD21*
4,1,4,0.01178,-0.03236,-0.02301,-0.02562,-0.01178,0.03236,0.02301,0.02562,0.01178,-0.03236,0.0*
%
%ADD21ROTATEDRECTD21*%

G04:AMPARAMS|DCode=22|XSize=59.06mil|YSize=35.43mil|CornerRadius=0mil|HoleSize=0mil|Usage=FLASHONLY|Rotation=87.820|XOffset=0mil|YOffset=0mil|HoleType=Round|Shape=Rectangle|*
%AMROTATEDRECTD22*
4,1,4,0.01658,-0.03018,-0.01883,-0.02883,-0.01658,0.03018,0.01883,0.02883,0.01658,-0.03018,0.0*
%
%ADD22ROTATEDRECTD22*%

G04:AMPARAMS|DCode=23|XSize=59.06mil|YSize=35.43mil|CornerRadius=0mil|HoleSize=0mil|Usage=FLASHONLY|Rotation=96.600|XOffset=0mil|YOffset=0mil|HoleType=Round|Shape=Rectangle|*
%AMROTATEDRECTD23*
4,1,4,0.02099,-0.02730,-0.01421,-0.03137,-0.02099,0.02730,0.01421,0.03137,0.02099,-0.02730,0.0*
%
%ADD23ROTATEDRECTD23*%

G04:AMPARAMS|DCode=24|XSize=43.31mil|YSize=39.37mil|CornerRadius=0mil|HoleSize=0mil|Usage=FLASHONLY|Rotation=17.580|XOffset=0mil|YOffset=0mil|HoleType=Round|Shape=Rectangle|*
%AMROTATEDRECTD24*
4,1,4,-0.01470,-0.02531,-0.02659,0.01223,0.01470,0.02531,0.02659,-0.01223,-0.01470,-0.02531,0.0*
%
%ADD24ROTATEDRECTD24*%

G04:AMPARAMS|DCode=25|XSize=43.31mil|YSize=39.37mil|CornerRadius=0mil|HoleSize=0mil|Usage=FLASHONLY|Rotation=26.360|XOffset=0mil|YOffset=0mil|HoleType=Round|Shape=Rectangle|*
%AMROTATEDRECTD25*
4,1,4,-0.01066,-0.02725,-0.02814,0.00802,0.01066,0.02725,0.02814,-0.00802,-0.01066,-0.02725,0.0*
%
%ADD25ROTATEDRECTD25*%

G04:AMPARAMS|DCode=26|XSize=43.31mil|YSize=39.37mil|CornerRadius=0mil|HoleSize=0mil|Usage=FLASHONLY|Rotation=35.140|XOffset=0mil|YOffset=0mil|HoleType=Round|Shape=Rectangle|*
%AMROTATEDRECTD26*
4,1,4,-0.00638,-0.02856,-0.02904,0.00363,0.00638,0.02856,0.02904,-0.00363,-0.00638,-0.02856,0.0*
%
%ADD26ROTATEDRECTD26*%

G04:AMPARAMS|DCode=27|XSize=43.31mil|YSize=39.37mil|CornerRadius=0mil|HoleSize=0mil|Usage=FLASHONLY|Rotation=43.920|XOffset=0mil|YOffset=0mil|HoleType=Round|Shape=Rectangle|*
%AMROTATEDRECTD27*
4,1,4,-0.00194,-0.02920,-0.02925,-0.00084,0.00194,0.02920,0.02925,0.00084,-0.00194,-0.02920,0.0*
%
%ADD27ROTATEDRECTD27*%

G04:AMPARAMS|DCode=28|XSize=43.31mil|YSize=39.37mil|CornerRadius=0mil|HoleSize=0mil|Usage=FLASHONLY|Rotation=52.700|XOffset=0mil|YOffset=0mil|HoleType=Round|Shape=Rectangle|*
%AMROTATEDRECTD28*
4,1,4,0.00254,-0.02915,-0.02878,-0.00530,-0.00254,0.02915,0.02878,0.00530,0.00254,-0.02915,0.0*
%
%ADD28ROTATEDRECTD28*%

G04:AMPARAMS|DCode=29|XSize=59.06mil|YSize=35.43mil|CornerRadius=0mil|HoleSize=0mil|Usage=FLASHONLY|Rotation=17.580|XOffset=0mil|YOffset=0mil|HoleType=Round|Shape=Rectangle|*
%AMROTATEDRECTD29*
4,1,4,-0.02280,-0.02581,-0.03350,0.00797,0.02280,0.02581,0.03350,-0.00797,-0.02280,-0.02581,0.0*
%
%ADD29ROTATEDRECTD29*%

G04:AMPARAMS|DCode=30|XSize=59.06mil|YSize=35.43mil|CornerRadius=0mil|HoleSize=0mil|Usage=FLASHONLY|Rotation=26.360|XOffset=0mil|YOffset=0mil|HoleType=Round|Shape=Rectangle|*
%AMROTATEDRECTD30*
4,1,4,-0.01859,-0.02899,-0.03432,0.00276,0.01859,0.02899,0.03432,-0.00276,-0.01859,-0.02899,0.0*
%
%ADD30ROTATEDRECTD30*%

G04:AMPARAMS|DCode=31|XSize=59.06mil|YSize=35.43mil|CornerRadius=0mil|HoleSize=0mil|Usage=FLASHONLY|Rotation=35.140|XOffset=0mil|YOffset=0mil|HoleType=Round|Shape=Rectangle|*
%AMROTATEDRECTD31*
4,1,4,-0.01395,-0.03148,-0.03434,-0.00251,0.01395,0.03148,0.03434,0.00251,-0.01395,-0.03148,0.0*
%
%ADD31ROTATEDRECTD31*%

G04:AMPARAMS|DCode=32|XSize=59.06mil|YSize=35.43mil|CornerRadius=0mil|HoleSize=0mil|Usage=FLASHONLY|Rotation=43.920|XOffset=0mil|YOffset=0mil|HoleType=Round|Shape=Rectangle|*
%AMROTATEDRECTD32*
4,1,4,-0.00898,-0.03324,-0.03356,-0.00772,0.00898,0.03324,0.03356,0.00772,-0.00898,-0.03324,0.0*
%
%ADD32ROTATEDRECTD32*%

G04:AMPARAMS|DCode=33|XSize=59.06mil|YSize=35.43mil|CornerRadius=0mil|HoleSize=0mil|Usage=FLASHONLY|Rotation=52.700|XOffset=0mil|YOffset=0mil|HoleType=Round|Shape=Rectangle|*
%AMROTATEDRECTD33*
4,1,4,-0.00380,-0.03422,-0.03199,-0.01275,0.00380,0.03422,0.03199,0.01275,-0.00380,-0.03422,0.0*
%
%ADD33ROTATEDRECTD33*%

G04:AMPARAMS|DCode=34|XSize=43.31mil|YSize=39.37mil|CornerRadius=0mil|HoleSize=0mil|Usage=FLASHONLY|Rotation=8.800|XOffset=0mil|YOffset=0mil|HoleType=Round|Shape=Rectangle|*
%AMROTATEDRECTD34*
4,1,4,-0.01839,-0.02277,-0.02441,0.01614,0.01839,0.02277,0.02441,-0.01614,-0.01839,-0.02277,0.0*
%
%ADD34ROTATEDRECTD34*%

G04:AMPARAMS|DCode=35|XSize=59.06mil|YSize=35.43mil|CornerRadius=0mil|HoleSize=0mil|Usage=FLASHONLY|Rotation=8.800|XOffset=0mil|YOffset=0mil|HoleType=Round|Shape=Rectangle|*
%AMROTATEDRECTD35*
4,1,4,-0.02647,-0.02203,-0.03189,0.01299,0.02647,0.02203,0.03189,-0.01299,-0.02647,-0.02203,0.0*
%
%ADD35ROTATEDRECTD35*%

G04:AMPARAMS|DCode=36|XSize=59.06mil|YSize=35.43mil|CornerRadius=0mil|HoleSize=0mil|Usage=FLASHONLY|Rotation=280.980|XOffset=0mil|YOffset=0mil|HoleType=Round|Shape=Rectangle|*
%AMROTATEDRECTD36*
4,1,4,-0.02302,0.02561,0.01177,0.03236,0.02302,-0.02561,-0.01177,-0.03236,-0.02302,0.02561,0.0*
%
%ADD36ROTATEDRECTD36*%

G04:AMPARAMS|DCode=37|XSize=59.06mil|YSize=35.43mil|CornerRadius=0mil|HoleSize=0mil|Usage=FLASHONLY|Rotation=272.200|XOffset=0mil|YOffset=0mil|HoleType=Round|Shape=Rectangle|*
%AMROTATEDRECTD37*
4,1,4,-0.01884,0.02883,0.01657,0.03019,0.01884,-0.02883,-0.01657,-0.03019,-0.01884,0.02883,0.0*
%
%ADD37ROTATEDRECTD37*%

G04:AMPARAMS|DCode=38|XSize=43.31mil|YSize=39.37mil|CornerRadius=0mil|HoleSize=0mil|Usage=FLASHONLY|Rotation=324.880|XOffset=0mil|YOffset=0mil|HoleType=Round|Shape=Rectangle|*
%AMROTATEDRECTD38*
4,1,4,-0.02904,-0.00364,-0.00639,0.02856,0.02904,0.00364,0.00639,-0.02856,-0.02904,-0.00364,0.0*
%
%ADD38ROTATEDRECTD38*%

G04:AMPARAMS|DCode=39|XSize=43.31mil|YSize=39.37mil|CornerRadius=0mil|HoleSize=0mil|Usage=FLASHONLY|Rotation=333.660|XOffset=0mil|YOffset=0mil|HoleType=Round|Shape=Rectangle|*
%AMROTATEDRECTD39*
4,1,4,-0.02814,-0.00803,-0.01067,0.02725,0.02814,0.00803,0.01067,-0.02725,-0.02814,-0.00803,0.0*
%
%ADD39ROTATEDRECTD39*%

G04:AMPARAMS|DCode=40|XSize=43.31mil|YSize=39.37mil|CornerRadius=0mil|HoleSize=0mil|Usage=FLASHONLY|Rotation=342.440|XOffset=0mil|YOffset=0mil|HoleType=Round|Shape=Rectangle|*
%AMROTATEDRECTD40*
4,1,4,-0.02658,-0.01224,-0.01471,0.02530,0.02658,0.01224,0.01471,-0.02530,-0.02658,-0.01224,0.0*
%
%ADD40ROTATEDRECTD40*%

G04:AMPARAMS|DCode=41|XSize=43.31mil|YSize=39.37mil|CornerRadius=0mil|HoleSize=0mil|Usage=FLASHONLY|Rotation=351.220|XOffset=0mil|YOffset=0mil|HoleType=Round|Shape=Rectangle|*
%AMROTATEDRECTD41*
4,1,4,-0.02441,-0.01615,-0.01840,0.02276,0.02441,0.01615,0.01840,-0.02276,-0.02441,-0.01615,0.0*
%
%ADD41ROTATEDRECTD41*%

%ADD42R,0.04331X0.03937*%
G04:AMPARAMS|DCode=43|XSize=59.06mil|YSize=35.43mil|CornerRadius=0mil|HoleSize=0mil|Usage=FLASHONLY|Rotation=324.880|XOffset=0mil|YOffset=0mil|HoleType=Round|Shape=Rectangle|*
%AMROTATEDRECTD43*
4,1,4,-0.03434,0.00250,-0.01396,0.03148,0.03434,-0.00250,0.01396,-0.03148,-0.03434,0.00250,0.0*
%
%ADD43ROTATEDRECTD43*%

G04:AMPARAMS|DCode=44|XSize=59.06mil|YSize=35.43mil|CornerRadius=0mil|HoleSize=0mil|Usage=FLASHONLY|Rotation=333.660|XOffset=0mil|YOffset=0mil|HoleType=Round|Shape=Rectangle|*
%AMROTATEDRECTD44*
4,1,4,-0.03432,-0.00278,-0.01860,0.02898,0.03432,0.00278,0.01860,-0.02898,-0.03432,-0.00278,0.0*
%
%ADD44ROTATEDRECTD44*%

G04:AMPARAMS|DCode=45|XSize=59.06mil|YSize=35.43mil|CornerRadius=0mil|HoleSize=0mil|Usage=FLASHONLY|Rotation=342.440|XOffset=0mil|YOffset=0mil|HoleType=Round|Shape=Rectangle|*
%AMROTATEDRECTD45*
4,1,4,-0.03350,-0.00798,-0.02281,0.02580,0.03350,0.00798,0.02281,-0.02580,-0.03350,-0.00798,0.0*
%
%ADD45ROTATEDRECTD45*%

G04:AMPARAMS|DCode=46|XSize=59.06mil|YSize=35.43mil|CornerRadius=0mil|HoleSize=0mil|Usage=FLASHONLY|Rotation=351.220|XOffset=0mil|YOffset=0mil|HoleType=Round|Shape=Rectangle|*
%AMROTATEDRECTD46*
4,1,4,-0.03189,-0.01300,-0.02648,0.02202,0.03189,0.01300,0.02648,-0.02202,-0.03189,-0.01300,0.0*
%
%ADD46ROTATEDRECTD46*%

G04:AMPARAMS|DCode=47|XSize=43.31mil|YSize=39.37mil|CornerRadius=0mil|HoleSize=0mil|Usage=FLASHONLY|Rotation=280.980|XOffset=0mil|YOffset=0mil|HoleType=Round|Shape=Rectangle|*
%AMROTATEDRECTD47*
4,1,4,-0.02345,0.01751,0.01520,0.02501,0.02345,-0.01751,-0.01520,-0.02501,-0.02345,0.01751,0.0*
%
%ADD47ROTATEDRECTD47*%

G04:AMPARAMS|DCode=48|XSize=43.31mil|YSize=39.37mil|CornerRadius=0mil|HoleSize=0mil|Usage=FLASHONLY|Rotation=289.760|XOffset=0mil|YOffset=0mil|HoleType=Round|Shape=Rectangle|*
%AMROTATEDRECTD48*
4,1,4,-0.02585,0.01372,0.01121,0.02703,0.02585,-0.01372,-0.01121,-0.02703,-0.02585,0.01372,0.0*
%
%ADD48ROTATEDRECTD48*%

G04:AMPARAMS|DCode=49|XSize=43.31mil|YSize=39.37mil|CornerRadius=0mil|HoleSize=0mil|Usage=FLASHONLY|Rotation=298.540|XOffset=0mil|YOffset=0mil|HoleType=Round|Shape=Rectangle|*
%AMROTATEDRECTD49*
4,1,4,-0.02764,0.00962,0.00695,0.02843,0.02764,-0.00962,-0.00695,-0.02843,-0.02764,0.00962,0.0*
%
%ADD49ROTATEDRECTD49*%

G04:AMPARAMS|DCode=50|XSize=43.31mil|YSize=39.37mil|CornerRadius=0mil|HoleSize=0mil|Usage=FLASHONLY|Rotation=307.320|XOffset=0mil|YOffset=0mil|HoleType=Round|Shape=Rectangle|*
%AMROTATEDRECTD50*
4,1,4,-0.02878,0.00529,0.00253,0.02916,0.02878,-0.00529,-0.00253,-0.02916,-0.02878,0.00529,0.0*
%
%ADD50ROTATEDRECTD50*%

G04:AMPARAMS|DCode=51|XSize=43.31mil|YSize=39.37mil|CornerRadius=0mil|HoleSize=0mil|Usage=FLASHONLY|Rotation=316.100|XOffset=0mil|YOffset=0mil|HoleType=Round|Shape=Rectangle|*
%AMROTATEDRECTD51*
4,1,4,-0.02925,0.00083,-0.00195,0.02920,0.02925,-0.00083,0.00195,-0.02920,-0.02925,0.00083,0.0*
%
%ADD51ROTATEDRECTD51*%

G04:AMPARAMS|DCode=52|XSize=59.06mil|YSize=35.43mil|CornerRadius=0mil|HoleSize=0mil|Usage=FLASHONLY|Rotation=289.760|XOffset=0mil|YOffset=0mil|HoleType=Round|Shape=Rectangle|*
%AMROTATEDRECTD52*
4,1,4,-0.02666,0.02180,0.00669,0.03378,0.02666,-0.02180,-0.00669,-0.03378,-0.02666,0.02180,0.0*
%
%ADD52ROTATEDRECTD52*%

G04:AMPARAMS|DCode=53|XSize=59.06mil|YSize=35.43mil|CornerRadius=0mil|HoleSize=0mil|Usage=FLASHONLY|Rotation=298.540|XOffset=0mil|YOffset=0mil|HoleType=Round|Shape=Rectangle|*
%AMROTATEDRECTD53*
4,1,4,-0.02967,0.01748,0.00146,0.03440,0.02967,-0.01748,-0.00146,-0.03440,-0.02967,0.01748,0.0*
%
%ADD53ROTATEDRECTD53*%

G04:AMPARAMS|DCode=54|XSize=59.06mil|YSize=35.43mil|CornerRadius=0mil|HoleSize=0mil|Usage=FLASHONLY|Rotation=307.320|XOffset=0mil|YOffset=0mil|HoleType=Round|Shape=Rectangle|*
%AMROTATEDRECTD54*
4,1,4,-0.03199,0.01274,-0.00381,0.03422,0.03199,-0.01274,0.00381,-0.03422,-0.03199,0.01274,0.0*
%
%ADD54ROTATEDRECTD54*%

G04:AMPARAMS|DCode=55|XSize=59.06mil|YSize=35.43mil|CornerRadius=0mil|HoleSize=0mil|Usage=FLASHONLY|Rotation=316.100|XOffset=0mil|YOffset=0mil|HoleType=Round|Shape=Rectangle|*
%AMROTATEDRECTD55*
4,1,4,-0.03356,0.00771,-0.00899,0.03324,0.03356,-0.00771,0.00899,-0.03324,-0.03356,0.00771,0.0*
%
%ADD55ROTATEDRECTD55*%

G04:AMPARAMS|DCode=56|XSize=43.31mil|YSize=39.37mil|CornerRadius=0mil|HoleSize=0mil|Usage=FLASHONLY|Rotation=237.080|XOffset=0mil|YOffset=0mil|HoleType=Round|Shape=Rectangle|*
%AMROTATEDRECTD56*
4,1,4,-0.00476,0.02888,0.02829,0.00748,0.00476,-0.02888,-0.02829,-0.00748,-0.00476,0.02888,0.0*
%
%ADD56ROTATEDRECTD56*%

G04:AMPARAMS|DCode=57|XSize=43.31mil|YSize=39.37mil|CornerRadius=0mil|HoleSize=0mil|Usage=FLASHONLY|Rotation=245.860|XOffset=0mil|YOffset=0mil|HoleType=Round|Shape=Rectangle|*
%AMROTATEDRECTD57*
4,1,4,-0.00911,0.02781,0.02682,0.01171,0.00911,-0.02781,-0.02682,-0.01171,-0.00911,0.02781,0.0*
%
%ADD57ROTATEDRECTD57*%

G04:AMPARAMS|DCode=58|XSize=43.31mil|YSize=39.37mil|CornerRadius=0mil|HoleSize=0mil|Usage=FLASHONLY|Rotation=254.640|XOffset=0mil|YOffset=0mil|HoleType=Round|Shape=Rectangle|*
%AMROTATEDRECTD58*
4,1,4,-0.01325,0.02609,0.02472,0.01567,0.01325,-0.02609,-0.02472,-0.01567,-0.01325,0.02609,0.0*
%
%ADD58ROTATEDRECTD58*%

G04:AMPARAMS|DCode=59|XSize=43.31mil|YSize=39.37mil|CornerRadius=0mil|HoleSize=0mil|Usage=FLASHONLY|Rotation=263.420|XOffset=0mil|YOffset=0mil|HoleType=Round|Shape=Rectangle|*
%AMROTATEDRECTD59*
4,1,4,-0.01707,0.02377,0.02204,0.01925,0.01707,-0.02377,-0.02204,-0.01925,-0.01707,0.02377,0.0*
%
%ADD59ROTATEDRECTD59*%

G04:AMPARAMS|DCode=60|XSize=43.31mil|YSize=39.37mil|CornerRadius=0mil|HoleSize=0mil|Usage=FLASHONLY|Rotation=272.200|XOffset=0mil|YOffset=0mil|HoleType=Round|Shape=Rectangle|*
%AMROTATEDRECTD60*
4,1,4,-0.02050,0.02088,0.01884,0.02239,0.02050,-0.02088,-0.01884,-0.02239,-0.02050,0.02088,0.0*
%
%ADD60ROTATEDRECTD60*%

G04:AMPARAMS|DCode=61|XSize=59.06mil|YSize=35.43mil|CornerRadius=0mil|HoleSize=0mil|Usage=FLASHONLY|Rotation=237.080|XOffset=0mil|YOffset=0mil|HoleType=Round|Shape=Rectangle|*
%AMROTATEDRECTD61*
4,1,4,0.00118,0.03442,0.03092,0.01516,-0.00118,-0.03442,-0.03092,-0.01516,0.00118,0.03442,0.0*
%
%ADD61ROTATEDRECTD61*%

G04:AMPARAMS|DCode=62|XSize=59.06mil|YSize=35.43mil|CornerRadius=0mil|HoleSize=0mil|Usage=FLASHONLY|Rotation=245.860|XOffset=0mil|YOffset=0mil|HoleType=Round|Shape=Rectangle|*
%AMROTATEDRECTD62*
4,1,4,-0.00409,0.03419,0.02824,0.01970,0.00409,-0.03419,-0.02824,-0.01970,-0.00409,0.03419,0.0*
%
%ADD62ROTATEDRECTD62*%

G04:AMPARAMS|DCode=63|XSize=59.06mil|YSize=35.43mil|CornerRadius=0mil|HoleSize=0mil|Usage=FLASHONLY|Rotation=254.640|XOffset=0mil|YOffset=0mil|HoleType=Round|Shape=Rectangle|*
%AMROTATEDRECTD63*
4,1,4,-0.00926,0.03317,0.02491,0.02378,0.00926,-0.03317,-0.02491,-0.02378,-0.00926,0.03317,0.0*
%
%ADD63ROTATEDRECTD63*%

G04:AMPARAMS|DCode=64|XSize=59.06mil|YSize=35.43mil|CornerRadius=0mil|HoleSize=0mil|Usage=FLASHONLY|Rotation=263.420|XOffset=0mil|YOffset=0mil|HoleType=Round|Shape=Rectangle|*
%AMROTATEDRECTD64*
4,1,4,-0.01422,0.03136,0.02098,0.02730,0.01422,-0.03136,-0.02098,-0.02730,-0.01422,0.03136,0.0*
%
%ADD64ROTATEDRECTD64*%

G04:AMPARAMS|DCode=65|XSize=43.31mil|YSize=39.37mil|CornerRadius=0mil|HoleSize=0mil|Usage=FLASHONLY|Rotation=193.180|XOffset=0mil|YOffset=0mil|HoleType=Round|Shape=Rectangle|*
%AMROTATEDRECTD65*
4,1,4,0.01660,0.02410,0.02557,-0.01423,-0.01660,-0.02410,-0.02557,0.01423,0.01660,0.02410,0.0*
%
%ADD65ROTATEDRECTD65*%

G04:AMPARAMS|DCode=66|XSize=43.31mil|YSize=39.37mil|CornerRadius=0mil|HoleSize=0mil|Usage=FLASHONLY|Rotation=201.960|XOffset=0mil|YOffset=0mil|HoleType=Round|Shape=Rectangle|*
%AMROTATEDRECTD66*
4,1,4,0.01272,0.02635,0.02744,-0.01016,-0.01272,-0.02635,-0.02744,0.01016,0.01272,0.02635,0.0*
%
%ADD66ROTATEDRECTD66*%

G04:AMPARAMS|DCode=67|XSize=43.31mil|YSize=39.37mil|CornerRadius=0mil|HoleSize=0mil|Usage=FLASHONLY|Rotation=210.740|XOffset=0mil|YOffset=0mil|HoleType=Round|Shape=Rectangle|*
%AMROTATEDRECTD67*
4,1,4,0.00855,0.02799,0.02867,-0.00585,-0.00855,-0.02799,-0.02867,0.00585,0.00855,0.02799,0.0*
%
%ADD67ROTATEDRECTD67*%

G04:AMPARAMS|DCode=68|XSize=43.31mil|YSize=39.37mil|CornerRadius=0mil|HoleSize=0mil|Usage=FLASHONLY|Rotation=219.520|XOffset=0mil|YOffset=0mil|HoleType=Round|Shape=Rectangle|*
%AMROTATEDRECTD68*
4,1,4,0.00418,0.02896,0.02923,-0.00141,-0.00418,-0.02896,-0.02923,0.00141,0.00418,0.02896,0.0*
%
%ADD68ROTATEDRECTD68*%

G04:AMPARAMS|DCode=69|XSize=43.31mil|YSize=39.37mil|CornerRadius=0mil|HoleSize=0mil|Usage=FLASHONLY|Rotation=228.300|XOffset=0mil|YOffset=0mil|HoleType=Round|Shape=Rectangle|*
%AMROTATEDRECTD69*
4,1,4,-0.00029,0.02926,0.02910,0.00307,0.00029,-0.02926,-0.02910,-0.00307,-0.00029,0.02926,0.0*
%
%ADD69ROTATEDRECTD69*%

G04:AMPARAMS|DCode=70|XSize=59.06mil|YSize=35.43mil|CornerRadius=0mil|HoleSize=0mil|Usage=FLASHONLY|Rotation=193.180|XOffset=0mil|YOffset=0mil|HoleType=Round|Shape=Rectangle|*
%AMROTATEDRECTD70*
4,1,4,0.02471,0.02398,0.03279,-0.01052,-0.02471,-0.02398,-0.03279,0.01052,0.02471,0.02398,0.0*
%
%ADD70ROTATEDRECTD70*%

G04:AMPARAMS|DCode=71|XSize=59.06mil|YSize=35.43mil|CornerRadius=0mil|HoleSize=0mil|Usage=FLASHONLY|Rotation=201.960|XOffset=0mil|YOffset=0mil|HoleType=Round|Shape=Rectangle|*
%AMROTATEDRECTD71*
4,1,4,0.02076,0.02747,0.03401,-0.00539,-0.02076,-0.02747,-0.03401,0.00539,0.02076,0.02747,0.0*
%
%ADD71ROTATEDRECTD71*%

G04:AMPARAMS|DCode=72|XSize=59.06mil|YSize=35.43mil|CornerRadius=0mil|HoleSize=0mil|Usage=FLASHONLY|Rotation=210.740|XOffset=0mil|YOffset=0mil|HoleType=Round|Shape=Rectangle|*
%AMROTATEDRECTD72*
4,1,4,0.01632,0.03032,0.03444,-0.00013,-0.01632,-0.03032,-0.03444,0.00013,0.01632,0.03032,0.0*
%
%ADD72ROTATEDRECTD72*%

G04:AMPARAMS|DCode=73|XSize=59.06mil|YSize=35.43mil|CornerRadius=0mil|HoleSize=0mil|Usage=FLASHONLY|Rotation=219.520|XOffset=0mil|YOffset=0mil|HoleType=Round|Shape=Rectangle|*
%AMROTATEDRECTD73*
4,1,4,0.01150,0.03246,0.03405,0.00512,-0.01150,-0.03246,-0.03405,-0.00512,0.01150,0.03246,0.0*
%
%ADD73ROTATEDRECTD73*%

G04:AMPARAMS|DCode=74|XSize=59.06mil|YSize=35.43mil|CornerRadius=0mil|HoleSize=0mil|Usage=FLASHONLY|Rotation=228.300|XOffset=0mil|YOffset=0mil|HoleType=Round|Shape=Rectangle|*
%AMROTATEDRECTD74*
4,1,4,0.00642,0.03383,0.03287,0.01026,-0.00642,-0.03383,-0.03287,-0.01026,0.00642,0.03383,0.0*
%
%ADD74ROTATEDRECTD74*%

G04:AMPARAMS|DCode=75|XSize=43.31mil|YSize=39.37mil|CornerRadius=0mil|HoleSize=0mil|Usage=FLASHONLY|Rotation=149.280|XOffset=0mil|YOffset=0mil|HoleType=Round|Shape=Rectangle|*
%AMROTATEDRECTD75*
4,1,4,0.02867,0.00586,0.00856,-0.02798,-0.02867,-0.00586,-0.00856,0.02798,0.02867,0.00586,0.0*
%
%ADD75ROTATEDRECTD75*%

G04:AMPARAMS|DCode=76|XSize=43.31mil|YSize=39.37mil|CornerRadius=0mil|HoleSize=0mil|Usage=FLASHONLY|Rotation=158.060|XOffset=0mil|YOffset=0mil|HoleType=Round|Shape=Rectangle|*
%AMROTATEDRECTD76*
4,1,4,0.02744,0.01017,0.01273,-0.02635,-0.02744,-0.01017,-0.01273,0.02635,0.02744,0.01017,0.0*
%
%ADD76ROTATEDRECTD76*%

G04:AMPARAMS|DCode=77|XSize=43.31mil|YSize=39.37mil|CornerRadius=0mil|HoleSize=0mil|Usage=FLASHONLY|Rotation=166.840|XOffset=0mil|YOffset=0mil|HoleType=Round|Shape=Rectangle|*
%AMROTATEDRECTD77*
4,1,4,0.02557,0.01424,0.01660,-0.02410,-0.02557,-0.01424,-0.01660,0.02410,0.02557,0.01424,0.0*
%
%ADD77ROTATEDRECTD77*%

G04:AMPARAMS|DCode=78|XSize=43.31mil|YSize=39.37mil|CornerRadius=0mil|HoleSize=0mil|Usage=FLASHONLY|Rotation=175.620|XOffset=0mil|YOffset=0mil|HoleType=Round|Shape=Rectangle|*
%AMROTATEDRECTD78*
4,1,4,0.02309,0.01797,0.02009,-0.02128,-0.02309,-0.01797,-0.02009,0.02128,0.02309,0.01797,0.0*
%
%ADD78ROTATEDRECTD78*%

G04:AMPARAMS|DCode=79|XSize=43.31mil|YSize=39.37mil|CornerRadius=0mil|HoleSize=0mil|Usage=FLASHONLY|Rotation=184.400|XOffset=0mil|YOffset=0mil|HoleType=Round|Shape=Rectangle|*
%AMROTATEDRECTD79*
4,1,4,0.02008,0.02129,0.02310,-0.01797,-0.02008,-0.02129,-0.02310,0.01797,0.02008,0.02129,0.0*
%
%ADD79ROTATEDRECTD79*%

G04:AMPARAMS|DCode=80|XSize=59.06mil|YSize=35.43mil|CornerRadius=0mil|HoleSize=0mil|Usage=FLASHONLY|Rotation=149.280|XOffset=0mil|YOffset=0mil|HoleType=Round|Shape=Rectangle|*
%AMROTATEDRECTD80*
4,1,4,0.03443,0.00015,0.01633,-0.03031,-0.03443,-0.00015,-0.01633,0.03031,0.03443,0.00015,0.0*
%
%ADD80ROTATEDRECTD80*%

G04:AMPARAMS|DCode=81|XSize=59.06mil|YSize=35.43mil|CornerRadius=0mil|HoleSize=0mil|Usage=FLASHONLY|Rotation=158.060|XOffset=0mil|YOffset=0mil|HoleType=Round|Shape=Rectangle|*
%AMROTATEDRECTD81*
4,1,4,0.03401,0.00540,0.02077,-0.02747,-0.03401,-0.00540,-0.02077,0.02747,0.03401,0.00540,0.0*
%
%ADD81ROTATEDRECTD81*%

G04:AMPARAMS|DCode=82|XSize=59.06mil|YSize=35.43mil|CornerRadius=0mil|HoleSize=0mil|Usage=FLASHONLY|Rotation=166.840|XOffset=0mil|YOffset=0mil|HoleType=Round|Shape=Rectangle|*
%AMROTATEDRECTD82*
4,1,4,0.03279,0.01053,0.02472,-0.02397,-0.03279,-0.01053,-0.02472,0.02397,0.03279,0.01053,0.0*
%
%ADD82ROTATEDRECTD82*%

G04:AMPARAMS|DCode=83|XSize=59.06mil|YSize=35.43mil|CornerRadius=0mil|HoleSize=0mil|Usage=FLASHONLY|Rotation=175.620|XOffset=0mil|YOffset=0mil|HoleType=Round|Shape=Rectangle|*
%AMROTATEDRECTD83*
4,1,4,0.03079,0.01541,0.02809,-0.01992,-0.03079,-0.01541,-0.02809,0.01992,0.03079,0.01541,0.0*
%
%ADD83ROTATEDRECTD83*%

G04:AMPARAMS|DCode=84|XSize=59.06mil|YSize=35.43mil|CornerRadius=0mil|HoleSize=0mil|Usage=FLASHONLY|Rotation=184.400|XOffset=0mil|YOffset=0mil|HoleType=Round|Shape=Rectangle|*
%AMROTATEDRECTD84*
4,1,4,0.02808,0.01993,0.03080,-0.01540,-0.02808,-0.01993,-0.03080,0.01540,0.02808,0.01993,0.0*
%
%ADD84ROTATEDRECTD84*%

G04:AMPARAMS|DCode=85|XSize=43.31mil|YSize=39.37mil|CornerRadius=0mil|HoleSize=0mil|Usage=FLASHONLY|Rotation=105.380|XOffset=0mil|YOffset=0mil|HoleType=Round|Shape=Rectangle|*
%AMROTATEDRECTD85*
4,1,4,0.02472,-0.01566,-0.01324,-0.02610,-0.02472,0.01566,0.01324,0.02610,0.02472,-0.01566,0.0*
%
%ADD85ROTATEDRECTD85*%

G04:AMPARAMS|DCode=86|XSize=43.31mil|YSize=39.37mil|CornerRadius=0mil|HoleSize=0mil|Usage=FLASHONLY|Rotation=114.160|XOffset=0mil|YOffset=0mil|HoleType=Round|Shape=Rectangle|*
%AMROTATEDRECTD86*
4,1,4,0.02682,-0.01170,-0.00910,-0.02781,-0.02682,0.01170,0.00910,0.02781,0.02682,-0.01170,0.0*
%
%ADD86ROTATEDRECTD86*%

G04:AMPARAMS|DCode=87|XSize=43.31mil|YSize=39.37mil|CornerRadius=0mil|HoleSize=0mil|Usage=FLASHONLY|Rotation=122.940|XOffset=0mil|YOffset=0mil|HoleType=Round|Shape=Rectangle|*
%AMROTATEDRECTD87*
4,1,4,0.02830,-0.00747,-0.00475,-0.02888,-0.02830,0.00747,0.00475,0.02888,0.02830,-0.00747,0.0*
%
%ADD87ROTATEDRECTD87*%

G04:AMPARAMS|DCode=88|XSize=43.31mil|YSize=39.37mil|CornerRadius=0mil|HoleSize=0mil|Usage=FLASHONLY|Rotation=131.720|XOffset=0mil|YOffset=0mil|HoleType=Round|Shape=Rectangle|*
%AMROTATEDRECTD88*
4,1,4,0.02910,-0.00306,-0.00028,-0.02926,-0.02910,0.00306,0.00028,0.02926,0.02910,-0.00306,0.0*
%
%ADD88ROTATEDRECTD88*%

G04:AMPARAMS|DCode=89|XSize=43.31mil|YSize=39.37mil|CornerRadius=0mil|HoleSize=0mil|Usage=FLASHONLY|Rotation=140.500|XOffset=0mil|YOffset=0mil|HoleType=Round|Shape=Rectangle|*
%AMROTATEDRECTD89*
4,1,4,0.02923,0.00142,0.00419,-0.02896,-0.02923,-0.00142,-0.00419,0.02896,0.02923,0.00142,0.0*
%
%ADD89ROTATEDRECTD89*%

G04:AMPARAMS|DCode=90|XSize=59.06mil|YSize=35.43mil|CornerRadius=0mil|HoleSize=0mil|Usage=FLASHONLY|Rotation=114.160|XOffset=0mil|YOffset=0mil|HoleType=Round|Shape=Rectangle|*
%AMROTATEDRECTD90*
4,1,4,0.02825,-0.01969,-0.00408,-0.03419,-0.02825,0.01969,0.00408,0.03419,0.02825,-0.01969,0.0*
%
%ADD90ROTATEDRECTD90*%

G04:AMPARAMS|DCode=91|XSize=59.06mil|YSize=35.43mil|CornerRadius=0mil|HoleSize=0mil|Usage=FLASHONLY|Rotation=122.940|XOffset=0mil|YOffset=0mil|HoleType=Round|Shape=Rectangle|*
%AMROTATEDRECTD91*
4,1,4,0.03092,-0.01515,0.00119,-0.03441,-0.03092,0.01515,-0.00119,0.03441,0.03092,-0.01515,0.0*
%
%ADD91ROTATEDRECTD91*%

G04:AMPARAMS|DCode=92|XSize=59.06mil|YSize=35.43mil|CornerRadius=0mil|HoleSize=0mil|Usage=FLASHONLY|Rotation=131.720|XOffset=0mil|YOffset=0mil|HoleType=Round|Shape=Rectangle|*
%AMROTATEDRECTD92*
4,1,4,0.03287,-0.01025,0.00643,-0.03383,-0.03287,0.01025,-0.00643,0.03383,0.03287,-0.01025,0.0*
%
%ADD92ROTATEDRECTD92*%

G04:AMPARAMS|DCode=93|XSize=59.06mil|YSize=35.43mil|CornerRadius=0mil|HoleSize=0mil|Usage=FLASHONLY|Rotation=140.500|XOffset=0mil|YOffset=0mil|HoleType=Round|Shape=Rectangle|*
%AMROTATEDRECTD93*
4,1,4,0.03405,-0.00511,0.01152,-0.03245,-0.03405,0.00511,-0.01152,0.03245,0.03405,-0.00511,0.0*
%
%ADD93ROTATEDRECTD93*%

%ADD177C,0.01000*%
%ADD178C,0.00700*%
G04:AMPARAMS|DCode=179|XSize=35.43mil|YSize=62.99mil|CornerRadius=0mil|HoleSize=0mil|Usage=FLASHONLY|Rotation=153.660|XOffset=0mil|YOffset=0mil|HoleType=Round|Shape=Round|*
%AMOVALD179*
21,1,0.02756,0.03543,0.00000,0.00000,243.7*
1,1,0.03543,0.00611,0.01235*
1,1,0.03543,-0.00611,-0.01235*
%
%ADD179OVALD179*%

%ADD180C,0.02953*%
G36*
X8521Y195161D02*
X17026Y194604D01*
X25498Y193676D01*
X33922Y192379D01*
X42281Y190716D01*
X50560Y188691D01*
X58742Y186306D01*
X66813Y183566D01*
X74756Y180477D01*
X82557Y177044D01*
X90201Y173275D01*
X97673Y169175D01*
X104960Y164754D01*
X112046Y160019D01*
X118920Y154979D01*
X125567Y149644D01*
X131974Y144025D01*
X138131Y138131D01*
X144025Y131974D01*
X149644Y125567D01*
X154979Y118920D01*
X160019Y112046D01*
X164754Y104960D01*
X169175Y97673D01*
X173275Y90201D01*
X177044Y82557D01*
X180477Y74756D01*
X183566Y66813D01*
X186306Y58742D01*
X188691Y50560D01*
X190716Y42281D01*
X192379Y33922D01*
X193676Y25498D01*
X194604Y17026D01*
X195161Y8521D01*
X195347Y0D01*
X195161Y-8521D01*
X194604Y-17026D01*
X193676Y-25498D01*
X192379Y-33922D01*
X190716Y-42281D01*
X188691Y-50560D01*
X186306Y-58742D01*
X183566Y-66813D01*
X180477Y-74756D01*
X177044Y-82557D01*
X173275Y-90201D01*
X169175Y-97673D01*
X164754Y-104960D01*
X160019Y-112046D01*
X154979Y-118920D01*
X149644Y-125567D01*
X144025Y-131974D01*
X138131Y-138131D01*
X131974Y-144025D01*
X125567Y-149644D01*
X118920Y-154979D01*
X112046Y-160019D01*
X104960Y-164754D01*
X97673Y-169175D01*
X90201Y-173275D01*
X82557Y-177044D01*
X74756Y-180477D01*
X66813Y-183566D01*
X58742Y-186306D01*
X50560Y-188691D01*
X42281Y-190716D01*
X33922Y-192379D01*
X25498Y-193676D01*
X17026Y-194604D01*
X8521Y-195161D01*
X0Y-195347D01*
X-8521Y-195161D01*
X-17026Y-194604D01*
X-25498Y-193676D01*
X-33922Y-192379D01*
X-42281Y-190716D01*
X-50560Y-188691D01*
X-58742Y-186306D01*
X-66813Y-183566D01*
X-74756Y-180477D01*
X-82557Y-177044D01*
X-90201Y-173275D01*
X-97673Y-169175D01*
X-104960Y-164754D01*
X-112046Y-160019D01*
X-118920Y-154979D01*
X-125567Y-149644D01*
X-131974Y-144025D01*
X-138131Y-138131D01*
X-144025Y-131974D01*
X-149644Y-125567D01*
X-154979Y-118920D01*
X-160019Y-112046D01*
X-164754Y-104960D01*
X-169175Y-97673D01*
X-173275Y-90201D01*
X-177044Y-82557D01*
X-180477Y-74756D01*
X-183566Y-66813D01*
X-186306Y-58742D01*
X-188691Y-50560D01*
X-190716Y-42281D01*
X-192379Y-33922D01*
X-193676Y-25498D01*
X-194604Y-17026D01*
X-195161Y-8521D01*
X-195347Y0D01*
X-195161Y8521D01*
X-194604Y17026D01*
X-193676Y25498D01*
X-192379Y33922D01*
X-190716Y42281D01*
X-188691Y50560D01*
X-186306Y58742D01*
X-183566Y66813D01*
X-180477Y74756D01*
X-177044Y82557D01*
X-173275Y90201D01*
X-169175Y97673D01*
X-164754Y104960D01*
X-160019Y112046D01*
X-154979Y118920D01*
X-149644Y125567D01*
X-144025Y131974D01*
X-138131Y138131D01*
X-131974Y144025D01*
X-125567Y149644D01*
X-118920Y154979D01*
X-112046Y160019D01*
X-104960Y164754D01*
X-97673Y169175D01*
X-90201Y173275D01*
X-82557Y177044D01*
X-74756Y180477D01*
X-66813Y183566D01*
X-58742Y186306D01*
X-50560Y188691D01*
X-42281Y190716D01*
X-33922Y192379D01*
X-25498Y193676D01*
X-17546Y194546D01*
X-17370Y194063D01*
X-17785Y193785D01*
X-18333Y192966D01*
X-18525Y192000D01*
X-18333Y191034D01*
X-17785Y190215D01*
X-17715Y190168D01*
X-17823Y189679D01*
X-23857Y188745D01*
X-23009Y183267D01*
X-15197Y184477D01*
X-15971Y189481D01*
X-15034Y189667D01*
X-14403Y190088D01*
X-14164Y189990D01*
X-13787Y189700D01*
X-13412Y189399D01*
X-13205Y189191D01*
Y184630D01*
X-5299D01*
Y190173D01*
X-9861D01*
X-10895Y191208D01*
X-11247Y191564D01*
X-11247Y191564D01*
X-12265Y192400D01*
X-13428Y193021D01*
X-13774Y193126D01*
X-14215Y193785D01*
X-14898Y194242D01*
X-14771Y194751D01*
X-8521Y195161D01*
X0Y195347D01*
X8521Y195161D01*
D02*
G37*
%LPC*%
G36*
X15978Y189960D02*
X15132Y184482D01*
X22945Y183275D01*
X22945Y183275D01*
X23202Y183389D01*
X23534Y183167D01*
X24500Y182975D01*
X25466Y183167D01*
X26285Y183715D01*
X26833Y184534D01*
X27025Y185500D01*
X26833Y186466D01*
X26285Y187285D01*
X25466Y187833D01*
X24500Y188025D01*
X24080Y187941D01*
X23719Y188287D01*
X23791Y188754D01*
X15978Y189960D01*
D02*
G37*
G36*
X-61000Y180025D02*
X-61966Y179833D01*
X-62286Y179619D01*
X-62491Y179691D01*
X-62491Y179691D01*
X-70027Y177303D01*
X-68601Y172802D01*
X-69008Y172429D01*
X-70373Y172995D01*
X-71071Y173162D01*
X-72607Y176262D01*
X-79690Y172752D01*
X-77229Y167785D01*
X-72138Y170308D01*
X-70689Y169869D01*
X-69221Y169084D01*
X-67987Y168071D01*
X-67949Y168014D01*
X-65808Y165873D01*
X-65926Y165387D01*
X-66222Y165293D01*
X-64548Y160009D01*
X-57012Y162396D01*
X-58686Y167681D01*
X-62182Y166573D01*
X-65786Y170176D01*
X-65781Y170181D01*
X-67158Y171356D01*
X-67764Y171728D01*
X-67704Y172224D01*
X-60817Y174406D01*
X-60884Y174618D01*
X-60629Y175049D01*
X-60034Y175167D01*
X-59215Y175715D01*
X-58667Y176534D01*
X-58475Y177500D01*
X-58667Y178466D01*
X-59215Y179285D01*
X-60034Y179833D01*
X-61000Y180025D01*
D02*
G37*
G36*
X-34331Y187124D02*
X-42143Y185914D01*
X-41358Y180841D01*
X-41525Y180000D01*
X-41485Y179800D01*
X-41946Y179553D01*
X-43543Y181150D01*
X-44851Y185280D01*
X-52388Y182892D01*
X-50713Y177608D01*
X-45868Y179143D01*
X-45825Y179109D01*
X-45820Y179101D01*
X-40525Y173807D01*
X-40216Y173464D01*
X-40216Y173464D01*
X-40216Y173464D01*
X-39368Y167986D01*
X-31555Y169196D01*
X-32403Y174674D01*
X-36441Y174049D01*
X-39447Y177054D01*
X-39200Y177515D01*
X-39000Y177475D01*
X-38034Y177667D01*
X-37215Y178215D01*
X-36667Y179034D01*
X-36475Y180000D01*
X-36606Y180656D01*
X-36277Y181213D01*
X-33483Y181646D01*
X-34331Y187124D01*
D02*
G37*
G36*
X34265Y187136D02*
X33419Y181658D01*
X38508Y180872D01*
X39908Y179472D01*
X39966Y179433D01*
X40978Y178199D01*
X41763Y176731D01*
X42246Y175138D01*
X42402Y173550D01*
X42389Y173482D01*
Y173263D01*
X41985Y172968D01*
X40986Y173284D01*
X39313Y167999D01*
X46850Y165614D01*
X48523Y170899D01*
X45447Y171872D01*
Y173482D01*
X45454D01*
X45312Y175287D01*
X44889Y177047D01*
X44196Y178719D01*
X43848Y179287D01*
X44156Y179681D01*
X50651Y177625D01*
X51381Y179931D01*
X52088D01*
X52167Y179534D01*
X52715Y178715D01*
X53534Y178167D01*
X54500Y177975D01*
X55466Y178167D01*
X56285Y178715D01*
X56833Y179534D01*
X57025Y180500D01*
X56833Y181466D01*
X56285Y182285D01*
X55466Y182833D01*
X54500Y183025D01*
X53534Y182833D01*
X53498Y182809D01*
X53429Y182837D01*
X52182Y183001D01*
Y183002D01*
X51723Y183100D01*
X44787Y185295D01*
X43365Y180802D01*
X42875Y180702D01*
X42075Y181639D01*
X42070Y181634D01*
X41503Y182202D01*
X42078Y185929D01*
X34265Y187136D01*
D02*
G37*
G36*
X13205Y190173D02*
X5299D01*
Y184630D01*
X9861D01*
X13528Y180963D01*
X13586Y180924D01*
X14599Y179690D01*
X15383Y178222D01*
X15539Y177709D01*
X15211Y177331D01*
X14055Y177510D01*
X13209Y172031D01*
X21022Y170825D01*
X21868Y176303D01*
X18934Y176756D01*
X18932Y176777D01*
X18509Y178537D01*
X17817Y180210D01*
X16871Y181753D01*
X15695Y183130D01*
X15691Y183125D01*
X13205Y185612D01*
Y190173D01*
D02*
G37*
G36*
X-5299Y177575D02*
X-13205D01*
Y172031D01*
X-5299D01*
Y172031D01*
X-5149Y172143D01*
X1120Y170274D01*
X1167Y170034D01*
X1715Y169215D01*
X2534Y168667D01*
X3500Y168475D01*
X4466Y168667D01*
X5285Y169215D01*
X5833Y170034D01*
X6025Y171000D01*
X5833Y171966D01*
X5285Y172785D01*
X4466Y173333D01*
X3500Y173525D01*
X2534Y173333D01*
X1905Y172912D01*
X-5299Y175061D01*
Y177575D01*
D02*
G37*
G36*
X62428Y179713D02*
X60756Y174428D01*
X66196Y172706D01*
X66328Y172545D01*
X67113Y171077D01*
X67596Y169484D01*
X67752Y167896D01*
X67739Y167828D01*
Y165084D01*
X67314Y164820D01*
X66956Y164997D01*
X64496Y160029D01*
X71581Y156522D01*
X74040Y161490D01*
X70798Y163095D01*
Y167828D01*
X70804D01*
X70662Y169632D01*
X70417Y170651D01*
X70808Y170962D01*
X77171Y167812D01*
X77429Y168334D01*
X78216Y168095D01*
X79500Y167968D01*
Y167971D01*
X80085Y168087D01*
X80581Y168419D01*
X81581Y169419D01*
X81913Y169915D01*
X81925Y169974D01*
X82285Y170215D01*
X82833Y171034D01*
X83025Y172000D01*
X82833Y172966D01*
X82285Y173785D01*
X81466Y174333D01*
X80500Y174525D01*
X79534Y174333D01*
X78715Y173785D01*
X78438Y173371D01*
X72545Y176288D01*
X70454Y172064D01*
X69954Y172080D01*
X69547Y173065D01*
X68933Y174066D01*
X69965Y177328D01*
X62428Y179713D01*
D02*
G37*
G36*
X18518Y167428D02*
X18497Y167294D01*
X18087Y167008D01*
X18000Y167025D01*
X17034Y166833D01*
X16215Y166285D01*
X15667Y165466D01*
X15475Y164500D01*
X15667Y163534D01*
X16215Y162715D01*
X17034Y162167D01*
X17685Y162038D01*
X17611Y161560D01*
X23868Y160594D01*
X24774Y166461D01*
X18518Y167428D01*
D02*
G37*
G36*
X44187Y162795D02*
X44050Y162362D01*
X43966Y162333D01*
X43000Y162525D01*
X42034Y162333D01*
X41215Y161785D01*
X40667Y160966D01*
X40475Y160000D01*
X40667Y159034D01*
X41215Y158215D01*
X42034Y157667D01*
X42166Y157641D01*
X42420Y157211D01*
X42396Y157134D01*
X48432Y155225D01*
X50223Y160885D01*
X44187Y162795D01*
D02*
G37*
G36*
X-89187Y168046D02*
X-96271Y164536D01*
X-94252Y160462D01*
X-94575Y159988D01*
X-96099Y160108D01*
Y160108D01*
X-96579Y160157D01*
X-98661Y163114D01*
X-105126Y158564D01*
X-101935Y154031D01*
X-97656Y157043D01*
X-96099D01*
X-96031Y157057D01*
X-94443Y156900D01*
X-92850Y156417D01*
X-91382Y155632D01*
X-90148Y154620D01*
X-90110Y154562D01*
X-89722Y154174D01*
X-89803Y153681D01*
X-90677Y153248D01*
X-88215Y148281D01*
X-81132Y151791D01*
X-83593Y156758D01*
X-86526Y155305D01*
X-87947Y156725D01*
X-87942Y156729D01*
X-89319Y157905D01*
X-90862Y158851D01*
X-92535Y159544D01*
X-92715Y159587D01*
X-92771Y160084D01*
X-91294Y160816D01*
X-90845Y160595D01*
X-90833Y160534D01*
X-90285Y159715D01*
X-89466Y159167D01*
X-88500Y158975D01*
X-87534Y159167D01*
X-86715Y159715D01*
X-86167Y160534D01*
X-85975Y161500D01*
X-86167Y162466D01*
X-86715Y163285D01*
X-86884Y163398D01*
X-89187Y168046D01*
D02*
G37*
G36*
X-25633Y166406D02*
X-31889Y165437D01*
X-31816Y164962D01*
X-32466Y164833D01*
X-33285Y164285D01*
X-33833Y163466D01*
X-34025Y162500D01*
X-33833Y161534D01*
X-33285Y160715D01*
X-32466Y160167D01*
X-31500Y159975D01*
X-31412Y159993D01*
X-31002Y159706D01*
X-30981Y159570D01*
X-24725Y160539D01*
X-25633Y166406D01*
D02*
G37*
G36*
X78290Y164789D02*
X77574Y164648D01*
X76919Y164326D01*
X76369Y163846D01*
X75963Y163240D01*
X74740Y160770D01*
X74504Y160079D01*
X74455Y159351D01*
X74597Y158635D01*
X74919Y157980D01*
X75399Y157431D01*
X76005Y157024D01*
X76696Y156789D01*
X77424Y156740D01*
X78140Y156881D01*
X78795Y157203D01*
X79344Y157683D01*
X79751Y158289D01*
X80974Y160759D01*
X81209Y161450D01*
X81258Y162178D01*
X81117Y162894D01*
X80795Y163549D01*
X80315Y164098D01*
X79708Y164505D01*
X79018Y164741D01*
X78290Y164789D01*
D02*
G37*
G36*
X89128Y168078D02*
X86669Y163110D01*
X91387Y160774D01*
X91473Y160124D01*
X91466Y160088D01*
Y152900D01*
X91356Y152844D01*
X91356D01*
X88167Y148310D01*
X94634Y143762D01*
X97289Y147537D01*
X97821Y147424D01*
X97883Y147106D01*
X98205Y146451D01*
X98685Y145902D01*
X99291Y145495D01*
X99982Y145259D01*
X100710Y145211D01*
X101426Y145352D01*
X102081Y145674D01*
X102631Y146154D01*
X103037Y146760D01*
X104260Y149230D01*
X104496Y149921D01*
X104544Y150649D01*
X104403Y151365D01*
X104081Y152020D01*
X103601Y152569D01*
X103443Y152676D01*
X103638Y153147D01*
X104500Y152975D01*
X105466Y153167D01*
X106285Y153715D01*
X106833Y154534D01*
X107025Y155500D01*
X106833Y156466D01*
X106285Y157285D01*
X105466Y157833D01*
X105095Y157907D01*
X104909Y158371D01*
X105070Y158601D01*
X98604Y163148D01*
X95415Y158614D01*
X101881Y154066D01*
X101934Y154141D01*
X102434Y154135D01*
X102715Y153715D01*
X103066Y153480D01*
X102843Y153027D01*
X102304Y153211D01*
X101576Y153260D01*
X100860Y153119D01*
X100205Y152797D01*
X99656Y152317D01*
X99249Y151711D01*
X98027Y149241D01*
X97895Y148856D01*
X97322Y148648D01*
X94524Y150616D01*
Y160088D01*
X94528D01*
X94439Y160987D01*
X96213Y164570D01*
X89128Y168078D01*
D02*
G37*
G36*
X-50069Y160275D02*
X-56104Y158363D01*
X-55932Y157819D01*
X-56186Y157388D01*
X-56466Y157333D01*
X-57285Y156785D01*
X-57833Y155966D01*
X-58025Y155000D01*
X-57833Y154034D01*
X-57285Y153215D01*
X-56466Y152667D01*
X-55500Y152475D01*
X-55017Y152571D01*
X-54782Y152618D01*
X-54311Y152703D01*
X-53857Y152847D01*
X-48276Y154615D01*
X-50069Y160275D01*
D02*
G37*
G36*
X-111000Y153525D02*
X-111966Y153333D01*
X-112785Y152785D01*
X-113088Y152332D01*
X-113695Y152324D01*
X-113793Y152464D01*
X-120257Y147914D01*
X-117342Y143772D01*
X-117104Y143434D01*
X-117225Y142934D01*
X-119313D01*
X-122403Y146143D01*
X-128097Y140659D01*
X-124252Y136666D01*
X-120920Y139875D01*
X-116105D01*
X-116037Y139889D01*
X-114449Y139732D01*
X-112856Y139249D01*
X-112039Y138812D01*
X-112008Y138313D01*
X-113006Y137611D01*
X-109815Y133078D01*
X-103351Y137628D01*
X-106541Y142161D01*
X-108982Y140444D01*
X-109325Y140737D01*
X-110868Y141683D01*
X-112541Y142376D01*
X-114301Y142798D01*
X-116105Y142940D01*
Y142934D01*
X-116946D01*
X-116990Y143434D01*
X-116680Y143653D01*
X-110602Y147931D01*
X-110723Y148103D01*
X-110538Y148567D01*
X-110034Y148667D01*
X-109215Y149215D01*
X-108667Y150034D01*
X-108475Y151000D01*
X-108667Y151966D01*
X-109215Y152785D01*
X-110034Y153333D01*
X-111000Y153525D01*
D02*
G37*
G36*
X65000Y154025D02*
X64034Y153833D01*
X63215Y153285D01*
X62667Y152466D01*
X62475Y151500D01*
X62667Y150534D01*
X63215Y149715D01*
X64034Y149167D01*
X65000Y148975D01*
X65731Y149120D01*
X66071Y148682D01*
X65847Y148229D01*
X71521Y145420D01*
X74155Y150741D01*
X68481Y153550D01*
X68458Y153503D01*
X67978Y153375D01*
X67393Y153491D01*
X66477D01*
X65966Y153833D01*
X65000Y154025D01*
D02*
G37*
G36*
X-74480Y150579D02*
X-80153Y147768D01*
X-79952Y147362D01*
X-79966Y147333D01*
X-80785Y146785D01*
X-81333Y145966D01*
X-81525Y145000D01*
X-81333Y144034D01*
X-80785Y143215D01*
X-79966Y142667D01*
X-79000Y142475D01*
X-78034Y142667D01*
X-77563Y142542D01*
X-77517Y142449D01*
X-71844Y145260D01*
X-74480Y150579D01*
D02*
G37*
G36*
X122352Y146186D02*
X118508Y142192D01*
X124204Y136710D01*
X124204D01*
X124634Y136539D01*
X124692Y136496D01*
X125215Y135715D01*
X126034Y135167D01*
X127000Y134975D01*
X127966Y135167D01*
X128785Y135715D01*
X129333Y136534D01*
X129525Y137500D01*
X129333Y138466D01*
X128785Y139285D01*
X127966Y139833D01*
X127842Y139857D01*
X127692Y140334D01*
X128048Y140704D01*
X122352Y146186D01*
D02*
G37*
G36*
X-96857Y137323D02*
X-102034Y133679D01*
Y133679D01*
X-102082Y133422D01*
X-102285Y133285D01*
X-102833Y132466D01*
X-103025Y131500D01*
X-102833Y130534D01*
X-102285Y129715D01*
X-101466Y129167D01*
X-100500Y128975D01*
X-99534Y129167D01*
X-99074Y129474D01*
X-98616Y128824D01*
X-93440Y132468D01*
X-96857Y137323D01*
D02*
G37*
G36*
X-133000Y134525D02*
X-133966Y134333D01*
X-134785Y133785D01*
X-135077Y133349D01*
X-135716Y133292D01*
X-135731Y133308D01*
X-141426Y127824D01*
X-137581Y123831D01*
X-131886Y129315D01*
Y129315D01*
X-131728Y129871D01*
X-131215Y130215D01*
X-130667Y131034D01*
X-130475Y132000D01*
X-130667Y132966D01*
X-131215Y133785D01*
X-132034Y134333D01*
X-133000Y134525D01*
D02*
G37*
G36*
X89500Y141525D02*
X88534Y141333D01*
X87715Y140785D01*
X87167Y139966D01*
X86975Y139000D01*
X87167Y138034D01*
X87715Y137215D01*
X88017Y137013D01*
X88109Y136521D01*
X87966Y136318D01*
X93144Y132676D01*
X96560Y137532D01*
X91381Y141174D01*
X91165Y140866D01*
X90466Y141333D01*
X89500Y141525D01*
D02*
G37*
G36*
X113739Y152503D02*
X110550Y147969D01*
X113849Y145650D01*
Y137537D01*
X113616Y137108D01*
X113616Y137108D01*
X113616Y137108D01*
X109772Y133114D01*
X115469Y127632D01*
X119312Y131626D01*
X116862Y133984D01*
X116916Y134388D01*
X116907D01*
Y143365D01*
X117017Y143421D01*
X117017D01*
X120206Y147955D01*
X113739Y152503D01*
D02*
G37*
G36*
X135685Y133355D02*
X131841Y129361D01*
X135082Y126242D01*
Y120683D01*
X135095Y120615D01*
X134939Y119027D01*
X134456Y117434D01*
X134389Y117309D01*
X133891Y117270D01*
X133213Y118159D01*
X128805Y114798D01*
X133597Y108511D01*
X138006Y111872D01*
X136173Y114276D01*
X136889Y115446D01*
X137582Y117118D01*
X138005Y118878D01*
X138147Y120683D01*
X138140D01*
Y124506D01*
X141381Y127873D01*
X135685Y133355D01*
D02*
G37*
G36*
X109000Y125525D02*
X108034Y125333D01*
X107215Y124785D01*
X106667Y123966D01*
X106475Y123000D01*
X106667Y122034D01*
X107215Y121215D01*
X107251Y120878D01*
X107249Y120876D01*
X111811Y116487D01*
X115928Y120765D01*
X111366Y125154D01*
X110994Y124767D01*
X110785Y124785D01*
X109966Y125333D01*
X109000Y125525D01*
D02*
G37*
G36*
X-143276Y125747D02*
X-148066Y119458D01*
X-143657Y116099D01*
X-141147Y119394D01*
X-132686D01*
X-132499Y118930D01*
X-132687Y118749D01*
X-128842Y114756D01*
X-123147Y120240D01*
X-126992Y124233D01*
X-129243Y122066D01*
X-130115Y122331D01*
X-131365Y122454D01*
Y122452D01*
X-138951D01*
X-143276Y125747D01*
D02*
G37*
G36*
X143232Y125797D02*
X138824Y122436D01*
X143616Y116149D01*
X143699Y116212D01*
X144034Y116086D01*
X144209Y115972D01*
X144715Y115215D01*
X145534Y114667D01*
X146500Y114475D01*
X147466Y114667D01*
X148285Y115215D01*
X148833Y116034D01*
X149025Y117000D01*
X148833Y117966D01*
X148285Y118785D01*
X147998Y118978D01*
X147982Y119477D01*
X148025Y119510D01*
X143232Y125797D01*
D02*
G37*
G36*
X-116190Y121513D02*
X-120750Y117121D01*
X-120343Y116699D01*
X-120833Y115966D01*
X-121025Y115000D01*
X-120833Y114034D01*
X-120285Y113215D01*
X-119466Y112667D01*
X-118500Y112475D01*
X-117534Y112667D01*
X-116881Y113104D01*
X-116631Y112845D01*
X-112071Y117236D01*
X-116190Y121513D01*
D02*
G37*
G36*
X-151500Y113025D02*
X-152466Y112833D01*
X-153285Y112285D01*
X-153833Y111466D01*
X-153903Y111114D01*
X-154370Y110937D01*
X-154489Y111027D01*
X-159280Y104739D01*
X-154870Y101380D01*
X-150080Y107668D01*
X-150220Y107775D01*
X-150201Y108389D01*
X-149715Y108715D01*
X-149167Y109534D01*
X-148975Y110500D01*
X-149167Y111466D01*
X-149715Y112285D01*
X-150534Y112833D01*
X-151500Y113025D01*
D02*
G37*
G36*
X-144467Y103393D02*
X-146977Y100098D01*
X-156549D01*
X-160791Y102403D01*
X-164566Y95457D01*
X-159695Y92811D01*
X-157397Y97040D01*
X-149173D01*
X-144848Y93745D01*
X-140058Y100034D01*
X-144467Y103393D01*
D02*
G37*
G36*
X127000Y108025D02*
X126034Y107833D01*
X125215Y107285D01*
X124667Y106466D01*
X124475Y105500D01*
X124667Y104534D01*
X125187Y103756D01*
X124691Y103379D01*
X128530Y98344D01*
X133251Y101944D01*
X129413Y106978D01*
X129413D01*
X128938Y107057D01*
X128785Y107285D01*
X127966Y107833D01*
X127000Y108025D01*
D02*
G37*
G36*
X-133471Y102155D02*
X-137307Y97119D01*
X-137035Y96912D01*
X-137333Y96466D01*
X-137525Y95500D01*
X-137333Y94534D01*
X-136785Y93715D01*
X-135966Y93167D01*
X-135000Y92975D01*
X-134034Y93167D01*
X-133215Y93715D01*
X-132906Y93766D01*
X-132585Y93521D01*
X-128748Y98557D01*
X-133471Y102155D01*
D02*
G37*
G36*
X154450Y111081D02*
X150042Y107721D01*
X153113Y103692D01*
Y101287D01*
X153127Y101219D01*
X152970Y99630D01*
X152487Y98038D01*
X151702Y96570D01*
X150791Y95459D01*
X150367Y95438D01*
X150205Y95490D01*
X149688Y96440D01*
X144818Y93792D01*
X148595Y86847D01*
X153465Y89496D01*
X151947Y92286D01*
X152795Y93134D01*
X152799Y93130D01*
X153975Y94507D01*
X154921Y96050D01*
X155613Y97722D01*
X155870Y98792D01*
X156401Y98863D01*
X159663Y92866D01*
X159663D01*
X160071Y92519D01*
X160167Y92034D01*
X160715Y91215D01*
X161534Y90667D01*
X162500Y90475D01*
X163466Y90667D01*
X164285Y91215D01*
X164833Y92034D01*
X165025Y93000D01*
X164833Y93966D01*
X164285Y94785D01*
X164196Y94845D01*
X164219Y95344D01*
X164532Y95515D01*
X160755Y102460D01*
X156530Y100162D01*
X156111Y100434D01*
X156178Y101287D01*
X156172D01*
Y102453D01*
X159243Y104794D01*
X154450Y111081D01*
D02*
G37*
G36*
X-166500Y88525D02*
X-167466Y88333D01*
X-168285Y87785D01*
X-168833Y86966D01*
X-168955Y86350D01*
X-169512Y86083D01*
X-169626Y86145D01*
X-173401Y79199D01*
X-169123Y76875D01*
X-169193Y76344D01*
X-169357Y76304D01*
X-171029Y75612D01*
X-171246Y75479D01*
X-174538Y76660D01*
X-177208Y69219D01*
X-171990Y67347D01*
X-170101Y72611D01*
X-169042Y73178D01*
X-167449Y73661D01*
X-165860Y73817D01*
X-165792Y73804D01*
X-162483D01*
X-162227Y73374D01*
X-162331Y73184D01*
X-157460Y70537D01*
X-153686Y77483D01*
X-158556Y80130D01*
X-160332Y76863D01*
X-165792D01*
Y76869D01*
X-167597Y76727D01*
X-167906Y76652D01*
X-168239Y77087D01*
X-164755Y83498D01*
X-164899Y83577D01*
X-164922Y84076D01*
X-164715Y84215D01*
X-164167Y85034D01*
X-163975Y86000D01*
X-164167Y86966D01*
X-164715Y87785D01*
X-165534Y88333D01*
X-166500Y88525D01*
D02*
G37*
G36*
X142000Y86525D02*
X141034Y86333D01*
X140215Y85785D01*
X139667Y84966D01*
X139475Y84000D01*
X139667Y83034D01*
X139717Y82960D01*
X139597Y82474D01*
X139281Y82302D01*
X142306Y76741D01*
X147521Y79577D01*
X144497Y85139D01*
X144292Y85027D01*
X143785Y85785D01*
X142966Y86333D01*
X142000Y86525D01*
D02*
G37*
G36*
X-146695Y80758D02*
X-149717Y75196D01*
X-149403Y75025D01*
X-149284Y74540D01*
X-149333Y74466D01*
X-149525Y73500D01*
X-149333Y72534D01*
X-148785Y71715D01*
X-147966Y71167D01*
X-147000Y70975D01*
X-146034Y71167D01*
X-145215Y71715D01*
X-144708Y72473D01*
X-144501Y72361D01*
X-141478Y77924D01*
X-146695Y80758D01*
D02*
G37*
G36*
X169596Y86204D02*
X164726Y83556D01*
X167438Y78570D01*
X167377Y77958D01*
X166894Y76365D01*
X166110Y74897D01*
X165097Y73663D01*
X165039Y73625D01*
X163307Y71893D01*
X162820Y72002D01*
X162654Y72462D01*
X157438Y70588D01*
X160110Y63148D01*
X165327Y65022D01*
X164121Y68380D01*
X167202Y71462D01*
X167202Y71462D01*
X167206Y71457D01*
X168382Y72834D01*
X169078Y73970D01*
X169630Y73913D01*
X171967Y67407D01*
X172124Y67463D01*
X172502Y67137D01*
X172475Y67000D01*
X172667Y66034D01*
X173215Y65215D01*
X174034Y64667D01*
X175000Y64475D01*
X175966Y64667D01*
X176785Y65215D01*
X177333Y66034D01*
X177525Y67000D01*
X177333Y67966D01*
X176882Y68641D01*
X176983Y69209D01*
X177184Y69281D01*
X174511Y76721D01*
X170144Y75152D01*
X169799Y75514D01*
X170021Y76050D01*
X170403Y77644D01*
X173373Y79259D01*
X169596Y86204D01*
D02*
G37*
G36*
X152500Y64025D02*
X151534Y63833D01*
X150715Y63285D01*
X150167Y62466D01*
X149975Y61500D01*
X150167Y60534D01*
X150036Y60136D01*
X150005Y60125D01*
X152145Y54167D01*
X157732Y56174D01*
X155592Y62132D01*
X155306Y62029D01*
X154871Y62275D01*
X154833Y62466D01*
X154285Y63285D01*
X153466Y63833D01*
X152500Y64025D01*
D02*
G37*
G36*
X180767Y59307D02*
X175550Y57433D01*
X177380Y52337D01*
X177341Y52242D01*
X176614Y51295D01*
X176561Y51260D01*
X172021Y46720D01*
X171809Y46785D01*
Y46785D01*
X166367Y45729D01*
X167873Y37968D01*
X173315Y39024D01*
X172557Y42930D01*
X178724Y49097D01*
X178730Y49091D01*
X179708Y50282D01*
X179869Y50584D01*
X183440Y51867D01*
X180767Y59307D01*
D02*
G37*
G36*
X-178000Y62025D02*
X-178966Y61833D01*
X-179785Y61285D01*
X-180333Y60466D01*
X-180491Y59669D01*
X-180788Y59244D01*
X-180788Y59244D01*
X-183458Y51803D01*
X-179143Y50255D01*
X-179092Y49757D01*
X-179243Y49664D01*
X-180620Y48489D01*
X-181106Y48522D01*
X-184194Y49120D01*
X-185697Y41359D01*
X-180255Y40305D01*
X-179243Y45531D01*
X-178453Y46322D01*
X-178414Y46379D01*
X-177180Y47392D01*
X-175712Y48177D01*
X-174119Y48660D01*
X-172531Y48816D01*
X-172463Y48803D01*
X-171584D01*
X-171296Y48394D01*
X-171599Y47548D01*
X-166382Y45675D01*
X-163712Y53116D01*
X-168929Y54988D01*
X-170052Y51861D01*
X-172463D01*
Y51868D01*
X-174268Y51726D01*
X-176028Y51303D01*
X-177424Y50725D01*
X-177820Y51102D01*
X-175570Y57371D01*
X-175790Y57450D01*
X-175989Y58053D01*
X-175667Y58534D01*
X-175475Y59500D01*
X-175667Y60466D01*
X-176215Y61285D01*
X-177034Y61833D01*
X-178000Y62025D01*
D02*
G37*
G36*
X-157355Y56832D02*
X-159493Y50874D01*
X-158896Y50659D01*
X-158833Y50466D01*
X-159025Y49500D01*
X-158833Y48534D01*
X-158285Y47715D01*
X-157466Y47167D01*
X-156500Y46975D01*
X-155534Y47167D01*
X-154715Y47715D01*
X-154437Y48129D01*
X-154189Y48502D01*
X-153905Y48868D01*
X-153905Y48868D01*
X-153749Y49304D01*
X-151767Y54827D01*
X-157355Y56832D01*
D02*
G37*
G36*
X184177Y49185D02*
X178735Y48129D01*
X180241Y40368D01*
X180654Y40448D01*
X181079Y40021D01*
X180975Y39500D01*
X181167Y38534D01*
X181715Y37715D01*
X182534Y37167D01*
X183500Y36975D01*
X184466Y37167D01*
X185285Y37715D01*
X185833Y38534D01*
X186025Y39500D01*
X185833Y40466D01*
X185550Y40889D01*
X185682Y41424D01*
X185682D01*
X184177Y49185D01*
D02*
G37*
G36*
X-184500Y34025D02*
X-185466Y33833D01*
X-186285Y33285D01*
X-186833Y32466D01*
X-187025Y31500D01*
X-186972Y31233D01*
X-187325Y30879D01*
X-187712Y30954D01*
X-189215Y23192D01*
X-184137Y22209D01*
X-184115Y22205D01*
D01*
X-183979Y22179D01*
X-183905Y21979D01*
X-183786Y21664D01*
X-185187Y20264D01*
X-189533Y20429D01*
X-189834Y12529D01*
X-184295Y12319D01*
X-184116Y17009D01*
X-180984Y20141D01*
X-180946Y20198D01*
X-179712Y21211D01*
X-178244Y21996D01*
X-177054Y22357D01*
X-176620Y21966D01*
X-176846Y20797D01*
X-171404Y19743D01*
X-169901Y27505D01*
X-175343Y28559D01*
X-175914Y25614D01*
X-176799Y25545D01*
X-178559Y25122D01*
X-180232Y24429D01*
X-181775Y23483D01*
X-183152Y22308D01*
X-183239Y22324D01*
X-183297Y22352D01*
X-183633Y22862D01*
X-182270Y29900D01*
X-182270Y29900D01*
X-182393Y30196D01*
X-182167Y30534D01*
X-181975Y31500D01*
X-182167Y32466D01*
X-182715Y33285D01*
X-183534Y33833D01*
X-184500Y34025D01*
D02*
G37*
G36*
X160000Y39025D02*
X159034Y38833D01*
X158215Y38285D01*
X157667Y37466D01*
X157475Y36500D01*
X157549Y36130D01*
X157346Y35827D01*
X157346Y35827D01*
X158551Y29612D01*
X164380Y30743D01*
X163174Y36958D01*
X162461Y36820D01*
X162333Y37466D01*
X161785Y38285D01*
X160966Y38833D01*
X160000Y39025D01*
D02*
G37*
G36*
X-164949Y30887D02*
X-166152Y24671D01*
X-166152Y24671D01*
X-165951Y24372D01*
X-166025Y24000D01*
X-165833Y23034D01*
X-165285Y22215D01*
X-164466Y21667D01*
X-163500Y21475D01*
X-162534Y21667D01*
X-161715Y22215D01*
X-161167Y23034D01*
X-161039Y23681D01*
X-160324Y23543D01*
X-159120Y29758D01*
X-164949Y30887D01*
D02*
G37*
G36*
X187701Y31019D02*
X182259Y29964D01*
X183017Y26058D01*
X177282Y20323D01*
X176937Y20012D01*
Y20012D01*
X176937Y20012D01*
X171398Y19799D01*
X171701Y11899D01*
X177241Y12112D01*
X177098Y15813D01*
X183553Y22268D01*
X183765Y22203D01*
Y22203D01*
X189207Y23259D01*
X187701Y31019D01*
D02*
G37*
G36*
X189526Y20495D02*
X183987Y20282D01*
X184290Y12383D01*
X184419Y12388D01*
X184653Y11896D01*
X184475Y11000D01*
X184667Y10034D01*
X185215Y9215D01*
X186034Y8667D01*
X187000Y8475D01*
X187966Y8667D01*
X188785Y9215D01*
X189333Y10034D01*
X189525Y11000D01*
X189333Y11966D01*
X189220Y12135D01*
X189447Y12581D01*
X189830Y12596D01*
X189526Y20495D01*
D02*
G37*
G36*
X163000Y14525D02*
X162034Y14333D01*
X161215Y13785D01*
X160667Y12966D01*
X160475Y12000D01*
X160533Y11709D01*
X160284Y11393D01*
X160284D01*
X160527Y5067D01*
X166459Y5295D01*
X166216Y11621D01*
X165847Y11607D01*
X165522Y11987D01*
X165525Y12000D01*
X165333Y12966D01*
X164785Y13785D01*
X163966Y14333D01*
X163000Y14525D01*
D02*
G37*
G36*
X-166973Y5432D02*
X-167214Y-894D01*
X-167214D01*
X-166967Y-1208D01*
X-167025Y-1500D01*
X-166833Y-2466D01*
X-166285Y-3285D01*
X-165466Y-3833D01*
X-164500Y-4025D01*
X-163534Y-3833D01*
X-162715Y-3285D01*
X-162167Y-2466D01*
X-161975Y-1500D01*
X-161978Y-1486D01*
X-161653Y-1106D01*
X-161281Y-1120D01*
X-161040Y5206D01*
X-166973Y5432D01*
D02*
G37*
G36*
X-187500Y5525D02*
X-188466Y5333D01*
X-189285Y4785D01*
X-189833Y3966D01*
X-190025Y3000D01*
X-189911Y2427D01*
X-190237Y1939D01*
X-190237D01*
X-190538Y-5961D01*
X-184999Y-6172D01*
X-184698Y1728D01*
X-184813Y1732D01*
X-185125Y2244D01*
X-184975Y3000D01*
X-185167Y3966D01*
X-185715Y4785D01*
X-186534Y5333D01*
X-187500Y5525D01*
D02*
G37*
G36*
X-177648Y1459D02*
X-177764Y-1593D01*
X-177872Y-1626D01*
X-179157Y-2312D01*
X-180283Y-3237D01*
X-180278Y-3241D01*
X-180278Y-3241D01*
X-185169Y-8132D01*
X-190431Y-8741D01*
X-189522Y-16594D01*
X-184015Y-15957D01*
X-184498Y-11787D01*
X-178421Y-5710D01*
X-177929Y-5925D01*
X-177949Y-6440D01*
X-172409Y-6651D01*
X-172109Y1249D01*
X-177648Y1459D01*
D02*
G37*
G36*
X190236Y2005D02*
X184697Y1792D01*
X184868Y-2640D01*
X180661Y-6846D01*
X180623Y-6903D01*
X179397Y-7909D01*
X178274Y-8509D01*
X177807Y-8192D01*
X177918Y-7231D01*
X172411Y-6595D01*
X171505Y-14449D01*
X177012Y-15084D01*
X177365Y-12028D01*
X178259Y-11813D01*
X179923Y-11124D01*
X181458Y-10183D01*
X182828Y-9013D01*
X182824Y-9009D01*
X185754Y-6078D01*
X190540Y-5895D01*
X190236Y2005D01*
D02*
G37*
G36*
X163500Y-9975D02*
X162534Y-10167D01*
X161715Y-10715D01*
X161167Y-11534D01*
X161031Y-12218D01*
X160797Y-12191D01*
X160072Y-18480D01*
X165970Y-19160D01*
X166695Y-12871D01*
X166259Y-12821D01*
X166025Y-12500D01*
X165833Y-11534D01*
X165285Y-10715D01*
X164466Y-10167D01*
X163500Y-9975D01*
D02*
G37*
G36*
X184927Y-8039D02*
X184021Y-15892D01*
X184078Y-15899D01*
X184288Y-16353D01*
X184167Y-16534D01*
X183975Y-17500D01*
X184167Y-18466D01*
X184715Y-19285D01*
X185534Y-19833D01*
X186500Y-20025D01*
X187466Y-19833D01*
X188285Y-19285D01*
X188833Y-18466D01*
X189025Y-17500D01*
X188918Y-16961D01*
X189337Y-16506D01*
X189528Y-16528D01*
X190434Y-8674D01*
X184927Y-8039D01*
D02*
G37*
G36*
X-160530Y-17839D02*
X-166428Y-18521D01*
X-165700Y-24810D01*
X-164980Y-24726D01*
X-164833Y-25466D01*
X-164285Y-26285D01*
X-163466Y-26833D01*
X-162500Y-27025D01*
X-161534Y-26833D01*
X-160715Y-26285D01*
X-160167Y-25466D01*
X-159986Y-24555D01*
X-159803Y-24127D01*
X-159803Y-24127D01*
X-159803Y-24127D01*
X-160530Y-17839D01*
D02*
G37*
G36*
X-185500Y-23475D02*
X-186466Y-23667D01*
X-187285Y-24215D01*
X-187833Y-25034D01*
X-188025Y-26000D01*
X-187911Y-26573D01*
X-188286Y-27120D01*
X-188304Y-27122D01*
X-187395Y-34975D01*
X-181889Y-34338D01*
X-182797Y-26485D01*
X-182797D01*
X-183023Y-26240D01*
X-182975Y-26000D01*
X-183167Y-25034D01*
X-183715Y-24215D01*
X-184534Y-23667D01*
X-185500Y-23475D01*
D02*
G37*
G36*
X182807Y-26421D02*
X182235Y-31374D01*
X180239Y-33371D01*
X180200Y-33428D01*
X178967Y-34441D01*
X177499Y-35225D01*
X175906Y-35709D01*
X174833Y-35814D01*
X174442Y-35350D01*
X174730Y-34304D01*
X169384Y-32835D01*
X167290Y-40458D01*
X172636Y-41927D01*
X173464Y-38910D01*
X174249D01*
Y-38916D01*
X176054Y-38774D01*
X177814Y-38352D01*
X179486Y-37659D01*
X180832Y-36834D01*
X181262Y-37157D01*
X179439Y-43795D01*
X179439Y-43795D01*
X179518Y-44009D01*
X179167Y-44534D01*
X178975Y-45500D01*
X179167Y-46466D01*
X179715Y-47285D01*
X180534Y-47833D01*
X181500Y-48025D01*
X182466Y-47833D01*
X183285Y-47285D01*
X183833Y-46466D01*
X184011Y-45570D01*
X184123Y-45404D01*
X184390Y-45156D01*
X184784Y-45264D01*
X186878Y-37641D01*
X182146Y-36341D01*
X182037Y-35853D01*
X182406Y-35538D01*
X182402Y-35533D01*
X183479Y-34457D01*
X187407Y-34910D01*
X188313Y-27056D01*
X182807Y-26421D01*
D02*
G37*
G36*
X160000Y-33975D02*
X159034Y-34167D01*
X158215Y-34715D01*
X157667Y-35534D01*
X157619Y-35776D01*
X157362Y-35934D01*
X157362D01*
X155685Y-42039D01*
X161410Y-43612D01*
X163087Y-37507D01*
X162364Y-37308D01*
X162525Y-36500D01*
X162333Y-35534D01*
X161785Y-34715D01*
X160966Y-34167D01*
X160000Y-33975D01*
D02*
G37*
G36*
X-170282Y-25037D02*
X-175789Y-25674D01*
X-175306Y-29844D01*
X-181765Y-36303D01*
X-186865Y-37706D01*
X-184768Y-45328D01*
X-179423Y-43858D01*
X-180625Y-39489D01*
X-174635Y-33499D01*
X-169374Y-32890D01*
X-170282Y-25037D01*
D02*
G37*
G36*
X-155590Y-42387D02*
X-161314Y-43962D01*
X-159635Y-50066D01*
X-159304Y-49975D01*
X-158878Y-50237D01*
X-158833Y-50466D01*
X-158285Y-51285D01*
X-157466Y-51833D01*
X-156500Y-52025D01*
X-155534Y-51833D01*
X-154715Y-51285D01*
X-154167Y-50466D01*
X-153975Y-49500D01*
X-154162Y-48560D01*
X-153911Y-48491D01*
X-155590Y-42387D01*
D02*
G37*
G36*
X152500Y-57975D02*
X151534Y-58167D01*
X150715Y-58715D01*
X150216Y-59461D01*
X149954Y-59344D01*
X147365Y-65121D01*
X152783Y-67549D01*
X155372Y-61772D01*
X154854Y-61539D01*
X154833Y-61466D01*
X155025Y-60500D01*
X154833Y-59534D01*
X154285Y-58715D01*
X153466Y-58167D01*
X152500Y-57975D01*
D02*
G37*
G36*
X-164465Y-50736D02*
X-169810Y-52206D01*
X-168810Y-55840D01*
X-172925Y-59955D01*
X-172930Y-59951D01*
X-174106Y-61327D01*
X-174641Y-61244D01*
X-176612Y-54077D01*
X-176659Y-54090D01*
X-177025Y-53749D01*
X-176975Y-53500D01*
X-177167Y-52534D01*
X-177715Y-51715D01*
X-178534Y-51167D01*
X-179500Y-50975D01*
X-180466Y-51167D01*
X-181285Y-51715D01*
X-181833Y-52534D01*
X-182025Y-53500D01*
X-181833Y-54466D01*
X-181535Y-54912D01*
X-181750Y-55490D01*
X-181957Y-55547D01*
X-179861Y-63169D01*
X-175002Y-61833D01*
X-174679Y-62263D01*
X-175051Y-62871D01*
X-175652Y-64322D01*
X-178920Y-65787D01*
X-175684Y-73000D01*
X-170626Y-70731D01*
X-172877Y-65714D01*
X-172618Y-64858D01*
X-171833Y-63390D01*
X-170820Y-62157D01*
X-170763Y-62118D01*
X-168229Y-59584D01*
X-167745Y-59712D01*
X-167713Y-59828D01*
X-162369Y-58358D01*
X-164465Y-50736D01*
D02*
G37*
G36*
X176631Y-54015D02*
X175136Y-59458D01*
X174347Y-60106D01*
X172879Y-60891D01*
X171286Y-61374D01*
X169698Y-61530D01*
X169630Y-61517D01*
X167483D01*
X167211Y-61097D01*
X167446Y-60572D01*
X162388Y-58305D01*
X159154Y-65519D01*
X164213Y-67787D01*
X165652Y-64575D01*
X169630D01*
Y-64582D01*
X171434Y-64439D01*
X173073Y-64046D01*
X173466Y-64391D01*
X170651Y-70672D01*
X170753Y-70718D01*
X170891Y-71198D01*
X170667Y-71534D01*
X170475Y-72500D01*
X170667Y-73466D01*
X171215Y-74285D01*
X172034Y-74833D01*
X173000Y-75025D01*
X173966Y-74833D01*
X174785Y-74285D01*
X175333Y-73466D01*
X175407Y-73095D01*
X175710Y-72939D01*
X175710D01*
X178943Y-65725D01*
X174778Y-63858D01*
X174785Y-63358D01*
X174867Y-63324D01*
X176410Y-62378D01*
X176610Y-62208D01*
X179883Y-63107D01*
X181977Y-55484D01*
X176631Y-54015D01*
D02*
G37*
G36*
X-147217Y-64950D02*
X-152634Y-67380D01*
X-150043Y-73156D01*
X-149466Y-72897D01*
X-149333Y-72966D01*
X-148785Y-73785D01*
X-147966Y-74333D01*
X-147000Y-74525D01*
X-146034Y-74333D01*
X-145215Y-73785D01*
X-144667Y-72966D01*
X-144475Y-72000D01*
X-144635Y-71195D01*
X-144626Y-70726D01*
X-144626Y-70726D01*
X-144626D01*
X-147217Y-64950D01*
D02*
G37*
G36*
X142000Y-80975D02*
X141034Y-81167D01*
X140215Y-81715D01*
X139917Y-82160D01*
X139547Y-81920D01*
X136107Y-87235D01*
X141090Y-90461D01*
X144531Y-85147D01*
X144374Y-85045D01*
X144273Y-84556D01*
X144333Y-84466D01*
X144525Y-83500D01*
X144333Y-82534D01*
X143785Y-81715D01*
X142966Y-81167D01*
X142000Y-80975D01*
D02*
G37*
G36*
X-154794Y-75245D02*
X-159851Y-77514D01*
X-158472Y-80590D01*
X-160458Y-82577D01*
X-160463Y-82572D01*
X-161638Y-83949D01*
X-162584Y-85492D01*
X-163025Y-86556D01*
X-163525Y-86563D01*
X-166289Y-80401D01*
X-166289D01*
X-166518Y-80283D01*
X-166667Y-79534D01*
X-167215Y-78715D01*
X-168034Y-78167D01*
X-169000Y-77975D01*
X-169966Y-78167D01*
X-170785Y-78715D01*
X-171333Y-79534D01*
X-171525Y-80500D01*
X-171333Y-81466D01*
X-170999Y-81966D01*
X-171163Y-82588D01*
X-171346Y-82670D01*
X-168111Y-89883D01*
X-163942Y-88013D01*
X-163557Y-88333D01*
X-163699Y-88925D01*
X-163816Y-90405D01*
X-166781Y-92327D01*
X-162483Y-98961D01*
X-157830Y-95947D01*
X-160776Y-91400D01*
Y-90729D01*
X-160790Y-90661D01*
X-160634Y-89073D01*
X-160150Y-87480D01*
X-159366Y-86012D01*
X-158353Y-84778D01*
X-158296Y-84740D01*
X-157443Y-83888D01*
X-156952Y-83978D01*
X-156616Y-84727D01*
X-151558Y-82458D01*
X-154794Y-75245D01*
D02*
G37*
G36*
X166317Y-80344D02*
X164090Y-85311D01*
X163551Y-85535D01*
X162129Y-85722D01*
X162040Y-85704D01*
X156392D01*
X156238Y-85422D01*
Y-85422D01*
X151585Y-82409D01*
X147288Y-89045D01*
X151942Y-92058D01*
X154075Y-88763D01*
X161544D01*
X161633Y-88765D01*
X161830Y-88789D01*
X162114Y-89096D01*
X162132Y-89177D01*
X161961Y-89564D01*
X161892Y-89670D01*
X157864Y-95892D01*
D01*
X157632Y-96338D01*
X157167Y-97034D01*
X156975Y-98000D01*
X157167Y-98966D01*
X157715Y-99785D01*
X158534Y-100333D01*
X159500Y-100525D01*
X160466Y-100333D01*
X161285Y-99785D01*
X161833Y-98966D01*
X161835Y-98956D01*
X162295Y-98761D01*
X162517Y-98905D01*
X166814Y-92269D01*
X162577Y-89526D01*
X162492Y-89470D01*
X162378Y-88833D01*
X162451Y-88736D01*
X162526Y-88728D01*
X163773Y-88606D01*
X164756Y-88307D01*
X168142Y-89825D01*
X171375Y-82610D01*
X166317Y-80344D01*
D02*
G37*
G36*
X-135910Y-87538D02*
X-140893Y-90766D01*
X-137450Y-96079D01*
X-137083Y-95841D01*
X-136785Y-96285D01*
X-135966Y-96833D01*
X-135000Y-97025D01*
X-134034Y-96833D01*
X-133215Y-96285D01*
X-132667Y-95466D01*
X-132475Y-94500D01*
X-132667Y-93534D01*
X-132728Y-93443D01*
X-132627Y-92954D01*
X-132468Y-92851D01*
X-135910Y-87538D01*
D02*
G37*
G36*
X128000Y-99975D02*
X127034Y-100167D01*
X126215Y-100715D01*
X125741Y-100775D01*
X125616Y-100663D01*
X121404Y-105390D01*
X125837Y-109339D01*
X130048Y-104613D01*
X129779Y-104373D01*
X129785Y-104285D01*
X130333Y-103466D01*
X130525Y-102500D01*
X130333Y-101534D01*
X129785Y-100715D01*
X128966Y-100167D01*
X128000Y-99975D01*
D02*
G37*
G36*
X-141494Y-97991D02*
X-146147Y-101005D01*
X-144508Y-103535D01*
X-145367Y-104541D01*
X-146313Y-106085D01*
X-147006Y-107757D01*
X-147428Y-109517D01*
X-147538Y-110913D01*
X-148050Y-111042D01*
X-152067Y-104842D01*
X-152171Y-104909D01*
X-152631Y-104714D01*
X-152667Y-104534D01*
X-153215Y-103715D01*
X-154034Y-103167D01*
X-155000Y-102975D01*
X-155966Y-103167D01*
X-156785Y-103715D01*
X-157333Y-104534D01*
X-157525Y-105500D01*
X-157333Y-106466D01*
X-156785Y-107285D01*
X-156698Y-107344D01*
X-156701Y-107844D01*
X-156720Y-107856D01*
X-152421Y-114491D01*
X-148064Y-111668D01*
X-147564Y-111940D01*
Y-113876D01*
X-150734Y-116702D01*
X-145473Y-122603D01*
X-141335Y-118914D01*
X-144505Y-115359D01*
Y-111322D01*
X-144519Y-111253D01*
X-144362Y-109665D01*
X-143879Y-108072D01*
X-143095Y-106604D01*
X-143042Y-106540D01*
X-142543Y-106568D01*
X-141848Y-107640D01*
X-137196Y-104626D01*
X-141494Y-97991D01*
D02*
G37*
G36*
X137230Y-104581D02*
X131971Y-110484D01*
X136109Y-114172D01*
X138808Y-111142D01*
X147654D01*
X147808Y-111425D01*
Y-111425D01*
X152461Y-114437D01*
X156757Y-107801D01*
X152104Y-104789D01*
X149971Y-108084D01*
X141160D01*
X137230Y-104581D01*
D02*
G37*
G36*
X-121664Y-106160D02*
X-126095Y-110111D01*
X-121882Y-114836D01*
X-121758Y-114725D01*
X-121285Y-114785D01*
X-120466Y-115333D01*
X-119500Y-115525D01*
X-118534Y-115333D01*
X-117715Y-114785D01*
X-117167Y-113966D01*
X-116975Y-113000D01*
X-117167Y-112034D01*
X-117715Y-111215D01*
X-117721Y-111126D01*
X-117451Y-110885D01*
X-121664Y-106160D01*
D02*
G37*
G36*
X110000Y-118975D02*
X109034Y-119167D01*
X108508Y-119519D01*
X108134Y-119066D01*
X103251Y-123095D01*
X107029Y-127675D01*
X111912Y-123646D01*
X111759Y-123461D01*
X111785Y-123285D01*
X112333Y-122466D01*
X112525Y-121500D01*
X112333Y-120534D01*
X111785Y-119715D01*
X110966Y-119167D01*
X110000Y-118975D01*
D02*
G37*
G36*
X146636Y-112962D02*
X141377Y-118865D01*
X141547Y-119017D01*
X141513Y-119516D01*
X141215Y-119715D01*
X140667Y-120534D01*
X140475Y-121500D01*
X140667Y-122466D01*
X141215Y-123285D01*
X142034Y-123833D01*
X143000Y-124025D01*
X143966Y-123833D01*
X144785Y-123285D01*
X145084Y-122838D01*
X145516Y-122552D01*
X145516Y-122552D01*
X145516Y-122552D01*
X150775Y-116650D01*
X146636Y-112962D01*
D02*
G37*
G36*
X-124879Y-118441D02*
X-129016Y-122130D01*
X-126983Y-124410D01*
X-127239Y-124888D01*
X-127719Y-126473D01*
X-127882Y-128122D01*
X-127871D01*
Y-134360D01*
X-131154Y-138343D01*
X-125054Y-143372D01*
X-121528Y-139094D01*
X-124812Y-136387D01*
Y-128122D01*
X-124827Y-128045D01*
X-124766Y-127580D01*
X-124288Y-127433D01*
X-123755Y-128031D01*
X-119618Y-124341D01*
X-124879Y-118441D01*
D02*
G37*
G36*
X-102972Y-124325D02*
X-106748Y-128906D01*
X-101864Y-132933D01*
X-101758Y-132804D01*
X-100966Y-133333D01*
X-100000Y-133525D01*
X-99034Y-133333D01*
X-98215Y-132785D01*
X-97667Y-131966D01*
X-97475Y-131000D01*
X-97667Y-130034D01*
X-98215Y-129215D01*
X-98281Y-129170D01*
X-98354Y-128675D01*
X-98087Y-128351D01*
X-102972Y-124325D01*
D02*
G37*
G36*
X89500Y-134475D02*
X88553Y-134664D01*
X88080Y-134620D01*
X88080D01*
Y-134620D01*
X82638Y-137856D01*
X85673Y-142959D01*
X91114Y-139723D01*
X90764Y-139134D01*
X91285Y-138785D01*
X91833Y-137966D01*
X92025Y-137000D01*
X91833Y-136034D01*
X91285Y-135215D01*
X90466Y-134667D01*
X89500Y-134475D01*
D02*
G37*
G36*
X119658Y-124303D02*
X113560Y-129333D01*
X117087Y-133609D01*
X119447Y-131663D01*
X119939Y-131965D01*
X121456Y-132593D01*
X123053Y-132976D01*
X124690Y-133105D01*
Y-133103D01*
X129541D01*
X133206Y-136368D01*
X138465Y-130466D01*
X134327Y-126778D01*
X131417Y-130044D01*
X124690D01*
X124640Y-130054D01*
X123243Y-129916D01*
X122522Y-129698D01*
X122424Y-129207D01*
X123185Y-128579D01*
X119658Y-124303D01*
D02*
G37*
G36*
X-137000Y-124975D02*
X-137966Y-125167D01*
X-138785Y-125715D01*
X-139333Y-126534D01*
X-139525Y-127500D01*
X-139333Y-128466D01*
X-138785Y-129285D01*
X-138218Y-129664D01*
X-138144Y-130268D01*
X-138420Y-130514D01*
X-133159Y-136415D01*
X-129021Y-132726D01*
X-134282Y-126825D01*
X-134282D01*
X-134657Y-126539D01*
X-134682Y-126512D01*
X-135215Y-125715D01*
X-136034Y-125167D01*
X-137000Y-124975D01*
D02*
G37*
G36*
X127675Y-134021D02*
X121577Y-139052D01*
X121577Y-139052D01*
X121205Y-139387D01*
X120715Y-139715D01*
X120167Y-140534D01*
X119975Y-141500D01*
X120167Y-142466D01*
X120715Y-143285D01*
X121534Y-143833D01*
X122500Y-144025D01*
X123466Y-143833D01*
X124285Y-143285D01*
X124403Y-143109D01*
X124903Y-143084D01*
X125104Y-143328D01*
X131202Y-138297D01*
X127675Y-134021D01*
D02*
G37*
G36*
X-83828Y-138541D02*
X-86861Y-143644D01*
X-81418Y-146878D01*
X-81418Y-146879D01*
X-80946Y-146837D01*
X-80000Y-147025D01*
X-79034Y-146833D01*
X-78215Y-146285D01*
X-77667Y-145466D01*
X-77475Y-144500D01*
X-77667Y-143534D01*
X-78215Y-142715D01*
X-78737Y-142366D01*
X-78386Y-141775D01*
X-83828Y-138541D01*
D02*
G37*
G36*
X99282Y-141111D02*
X92487Y-145152D01*
X95321Y-149916D01*
X97788Y-148449D01*
X98223Y-148606D01*
X99599Y-149782D01*
X101143Y-150728D01*
X102815Y-151420D01*
X104575Y-151843D01*
X104867Y-151866D01*
X104985Y-152377D01*
X98927Y-155980D01*
X98927Y-155980D01*
X98534Y-156167D01*
X98496Y-156193D01*
X97715Y-156715D01*
X97167Y-157534D01*
X96975Y-158500D01*
X97167Y-159466D01*
X97715Y-160285D01*
X98534Y-160833D01*
X99500Y-161025D01*
X100466Y-160833D01*
X101014Y-160467D01*
X101654Y-160565D01*
X101760Y-160744D01*
X108555Y-156703D01*
X106031Y-152459D01*
X106328Y-151981D01*
X106380Y-151985D01*
Y-151979D01*
X108253D01*
X110830Y-155103D01*
X116928Y-150072D01*
X113401Y-145796D01*
X109614Y-148920D01*
X106380D01*
X106311Y-148934D01*
X104723Y-148777D01*
X103130Y-148294D01*
X101662Y-147509D01*
X101035Y-146994D01*
X101072Y-146496D01*
X102115Y-145875D01*
X99282Y-141111D01*
D02*
G37*
G36*
X-116000Y-144975D02*
X-116966Y-145167D01*
X-117785Y-145715D01*
X-118333Y-146534D01*
X-118525Y-147500D01*
X-118333Y-148466D01*
X-117785Y-149285D01*
X-117177Y-149692D01*
X-116876Y-150113D01*
Y-150113D01*
X-110776Y-155142D01*
X-107250Y-150864D01*
X-113350Y-145836D01*
X-113516Y-146037D01*
X-114016Y-146012D01*
X-114215Y-145715D01*
X-115034Y-145167D01*
X-116000Y-144975D01*
D02*
G37*
G36*
X66429Y-147312D02*
X60558Y-149679D01*
X62778Y-155185D01*
X68649Y-152818D01*
X68638Y-152790D01*
X68876Y-152351D01*
X68966Y-152333D01*
X69785Y-151785D01*
X70333Y-150966D01*
X70525Y-150000D01*
X70333Y-149034D01*
X69785Y-148215D01*
X68966Y-147667D01*
X68000Y-147475D01*
X67034Y-147667D01*
X67000Y-147690D01*
X66522Y-147542D01*
X66429Y-147312D01*
D02*
G37*
G36*
X-60223Y-150314D02*
X-62441Y-155821D01*
X-56569Y-158187D01*
X-56429Y-157840D01*
X-55500Y-158025D01*
X-54534Y-157833D01*
X-53715Y-157285D01*
X-53167Y-156466D01*
X-52975Y-155500D01*
X-53167Y-154534D01*
X-53715Y-153715D01*
X-54534Y-153167D01*
X-54541Y-153153D01*
X-54351Y-152680D01*
X-60223Y-150314D01*
D02*
G37*
G36*
X-181Y168468D02*
X-6512D01*
Y162531D01*
X-5579D01*
X-5117Y162051D01*
X-5124Y161893D01*
X-5285Y161785D01*
X-5833Y160966D01*
X-6025Y160000D01*
X-5833Y159034D01*
X-5694Y158826D01*
X-5925Y158383D01*
X-7779Y158337D01*
X-15539Y157765D01*
X-23261Y156812D01*
X-30927Y155482D01*
X-38519Y153777D01*
X-46018Y151702D01*
X-53407Y149261D01*
X-60666Y146461D01*
X-67779Y143308D01*
X-74730Y139809D01*
X-81500Y135974D01*
X-88073Y131811D01*
X-94435Y127331D01*
X-100569Y122544D01*
X-106461Y117462D01*
X-112096Y112096D01*
X-117462Y106461D01*
X-122544Y100569D01*
X-127331Y94435D01*
X-131811Y88073D01*
X-135974Y81500D01*
X-139809Y74730D01*
X-143308Y67779D01*
X-146461Y60666D01*
X-149261Y53407D01*
X-151702Y46018D01*
X-153777Y38519D01*
X-155482Y30927D01*
X-156812Y23261D01*
X-157765Y15539D01*
X-158337Y7779D01*
X-158528Y0D01*
X-158337Y-7779D01*
X-157765Y-15539D01*
X-156812Y-23261D01*
X-155482Y-30927D01*
X-153777Y-38519D01*
X-151702Y-46018D01*
X-149261Y-53407D01*
X-146461Y-60666D01*
X-143308Y-67779D01*
X-139809Y-74730D01*
X-135974Y-81500D01*
X-131811Y-88073D01*
X-127331Y-94435D01*
X-122544Y-100569D01*
X-117462Y-106461D01*
X-112096Y-112096D01*
X-106461Y-117462D01*
X-100569Y-122544D01*
X-94435Y-127331D01*
X-88073Y-131811D01*
X-81500Y-135974D01*
X-74730Y-139809D01*
X-67779Y-143308D01*
X-60666Y-146461D01*
X-53407Y-149261D01*
X-46018Y-151702D01*
X-38519Y-153777D01*
X-30927Y-155482D01*
X-23261Y-156812D01*
X-15539Y-157765D01*
X-7779Y-158337D01*
X0Y-158528D01*
X7779Y-158337D01*
X15539Y-157765D01*
X23261Y-156812D01*
X30927Y-155482D01*
X38519Y-153777D01*
X46018Y-151702D01*
X53407Y-149261D01*
X60666Y-146461D01*
X67779Y-143308D01*
X74730Y-139809D01*
X81500Y-135974D01*
X88073Y-131811D01*
X94435Y-127331D01*
X100569Y-122544D01*
X106461Y-117462D01*
X112096Y-112096D01*
X117462Y-106461D01*
X122544Y-100569D01*
X127331Y-94435D01*
X131811Y-88073D01*
X135974Y-81500D01*
X139809Y-74730D01*
X143308Y-67779D01*
X146461Y-60666D01*
X149261Y-53407D01*
X151702Y-46018D01*
X153777Y-38519D01*
X155482Y-30927D01*
X156812Y-23261D01*
X157765Y-15539D01*
X158337Y-7779D01*
X158528Y0D01*
X158337Y7779D01*
X157765Y15539D01*
X156812Y23261D01*
X155482Y30927D01*
X153777Y38519D01*
X151702Y46018D01*
X149261Y53407D01*
X146461Y60666D01*
X143308Y67779D01*
X139809Y74730D01*
X135974Y81500D01*
X131811Y88073D01*
X127331Y94435D01*
X122544Y100569D01*
X117462Y106461D01*
X112096Y112096D01*
X106461Y117462D01*
X100569Y122544D01*
X94435Y127331D01*
X88073Y131811D01*
X81500Y135974D01*
X74730Y139809D01*
X67779Y143308D01*
X60666Y146461D01*
X53407Y149261D01*
X46018Y151702D01*
X38519Y153777D01*
X30927Y155482D01*
X23261Y156812D01*
X15539Y157765D01*
X7779Y158337D01*
X0Y158528D01*
X-988Y158504D01*
X-1229Y158942D01*
X-1167Y159034D01*
X-975Y160000D01*
X-1167Y160966D01*
X-1715Y161785D01*
X-2067Y162021D01*
X-2052Y162531D01*
X-181D01*
Y168468D01*
D02*
G37*
G36*
X-83325Y-150598D02*
X-86157Y-155364D01*
X-82873Y-157315D01*
Y-163754D01*
X-82877D01*
X-82779Y-164996D01*
X-83257Y-165294D01*
X-89761Y-161429D01*
X-89761Y-161429D01*
X-89888Y-161432D01*
X-90215Y-161214D01*
X-91034Y-160667D01*
X-92000Y-160475D01*
X-92966Y-160667D01*
X-93785Y-161215D01*
X-94333Y-162034D01*
X-94525Y-163000D01*
X-94333Y-163966D01*
X-93785Y-164785D01*
X-92966Y-165333D01*
X-92599Y-165406D01*
X-92396Y-165862D01*
X-92593Y-166194D01*
X-85797Y-170232D01*
X-83171Y-165814D01*
X-82638Y-165895D01*
X-82344Y-167120D01*
X-81943Y-168088D01*
X-83304Y-171466D01*
X-75971Y-174420D01*
X-73900Y-169278D01*
X-78980Y-167232D01*
X-79234Y-166757D01*
X-79680Y-165285D01*
X-79825Y-163811D01*
X-79814Y-163754D01*
Y-159638D01*
X-79379Y-159391D01*
X-79361Y-159402D01*
X-76529Y-154637D01*
X-83325Y-150598D01*
D02*
G37*
G36*
X-105336Y-136115D02*
X-108862Y-140392D01*
X-105579Y-143099D01*
Y-151925D01*
X-105669Y-151976D01*
X-105669D01*
X-108500Y-156741D01*
X-101704Y-160780D01*
X-98873Y-156015D01*
X-102520Y-153847D01*
Y-145126D01*
X-99236Y-141143D01*
X-105336Y-136115D01*
D02*
G37*
G36*
X43663Y-155125D02*
X37499Y-156568D01*
X38853Y-162349D01*
X45017Y-160906D01*
X44991Y-160794D01*
X45262Y-160373D01*
X45466Y-160333D01*
X46285Y-159785D01*
X46833Y-158966D01*
X47025Y-158000D01*
X46833Y-157034D01*
X46285Y-156215D01*
X45466Y-155667D01*
X44500Y-155475D01*
X43779Y-155619D01*
X43663Y-155125D01*
D02*
G37*
G36*
X-37648Y-157151D02*
X-39000Y-162932D01*
X-32835Y-164373D01*
X-32720Y-163882D01*
X-32000Y-164025D01*
X-31034Y-163833D01*
X-30215Y-163285D01*
X-29667Y-162466D01*
X-29475Y-161500D01*
X-29667Y-160534D01*
X-30215Y-159715D01*
X-31034Y-159167D01*
X-31239Y-159126D01*
X-31510Y-158706D01*
X-31483Y-158592D01*
X-37648Y-157151D01*
D02*
G37*
G36*
X18265Y-160041D02*
X11953Y-160526D01*
X12408Y-166446D01*
X18720Y-165960D01*
X18684Y-165488D01*
X19466Y-165333D01*
X20285Y-164785D01*
X20833Y-163966D01*
X21025Y-163000D01*
X20833Y-162034D01*
X20285Y-161215D01*
X19466Y-160667D01*
X18500Y-160475D01*
X18286Y-160313D01*
X18265Y-160041D01*
D02*
G37*
G36*
X-12093Y-160554D02*
X-12546Y-166474D01*
X-6234Y-166957D01*
X-6213Y-166687D01*
X-6000Y-166525D01*
X-5034Y-166333D01*
X-4215Y-165785D01*
X-3667Y-164966D01*
X-3475Y-164000D01*
X-3667Y-163034D01*
X-4215Y-162215D01*
X-5034Y-161667D01*
X-5817Y-161512D01*
X-5781Y-161038D01*
X-12093Y-160554D01*
D02*
G37*
G36*
X-59362Y-161552D02*
X-61433Y-166694D01*
X-58260Y-167972D01*
Y-171176D01*
X-58266D01*
X-58124Y-172980D01*
X-57702Y-174740D01*
X-57420Y-175419D01*
X-57772Y-175775D01*
X-64069Y-173238D01*
Y-173238D01*
X-64504Y-173022D01*
X-65034Y-172667D01*
X-66000Y-172475D01*
X-66966Y-172667D01*
X-67785Y-173215D01*
X-68333Y-174034D01*
X-68525Y-175000D01*
X-68333Y-175966D01*
X-67785Y-176785D01*
X-66966Y-177333D01*
X-66310Y-177463D01*
X-65984Y-177993D01*
X-66140Y-178380D01*
X-58807Y-181334D01*
X-57106Y-177110D01*
X-56607Y-177068D01*
X-56063Y-177956D01*
X-55361Y-178778D01*
X-56155Y-182173D01*
X-48457Y-183972D01*
X-47195Y-178575D01*
X-52567Y-177319D01*
X-52720Y-177165D01*
X-52778Y-177127D01*
X-53791Y-175893D01*
X-54575Y-174425D01*
X-55058Y-172832D01*
X-55215Y-171244D01*
X-55201Y-171176D01*
Y-169651D01*
X-54787Y-169371D01*
X-54100Y-169648D01*
X-52029Y-164506D01*
X-59362Y-161552D01*
D02*
G37*
G36*
X76579Y-154612D02*
X69248Y-157568D01*
X71320Y-162709D01*
X74538Y-161412D01*
X77079Y-163952D01*
X77075Y-163957D01*
X78451Y-165132D01*
X79994Y-166078D01*
X80290Y-166201D01*
X80288Y-166701D01*
X73959Y-169252D01*
X73959Y-169252D01*
Y-169252D01*
X73546Y-169565D01*
X73034Y-169667D01*
X72215Y-170215D01*
X71667Y-171034D01*
X71475Y-172000D01*
X71667Y-172966D01*
X72215Y-173785D01*
X73034Y-174333D01*
X74000Y-174525D01*
X74966Y-174333D01*
X75362Y-174068D01*
X75977Y-174258D01*
X76032Y-174393D01*
X83364Y-171437D01*
X81692Y-167291D01*
X82059Y-166865D01*
X83427Y-167193D01*
X84098Y-167246D01*
X85856Y-170203D01*
X92651Y-166162D01*
X89818Y-161397D01*
X84992Y-164267D01*
X83575Y-164128D01*
X81982Y-163645D01*
X80514Y-162860D01*
X79281Y-161847D01*
X79242Y-161790D01*
X77942Y-160489D01*
X78041Y-159999D01*
X78652Y-159753D01*
X76579Y-154612D01*
D02*
G37*
G36*
X-34007Y-168720D02*
X-35269Y-174118D01*
X-32320Y-174807D01*
X-32182Y-176558D01*
X-31760Y-178319D01*
X-31067Y-179991D01*
X-30121Y-181534D01*
X-29567Y-182183D01*
X-29841Y-182632D01*
X-36875Y-180988D01*
X-36900Y-181096D01*
X-37365Y-181280D01*
X-37534Y-181167D01*
X-38500Y-180975D01*
X-39466Y-181167D01*
X-40285Y-181715D01*
X-40833Y-182534D01*
X-41025Y-183500D01*
X-40833Y-184466D01*
X-40285Y-185285D01*
X-39466Y-185833D01*
X-38563Y-186012D01*
X-38403Y-186105D01*
X-38136Y-186381D01*
X-38137Y-186385D01*
X-30439Y-188185D01*
X-29289Y-183268D01*
X-29286Y-183265D01*
X-28739Y-183109D01*
X-27373Y-184474D01*
X-27690Y-188609D01*
X-19807Y-189213D01*
X-19384Y-183686D01*
X-24205Y-183317D01*
X-26778Y-180744D01*
X-26836Y-180705D01*
X-27849Y-179471D01*
X-28633Y-178003D01*
X-29116Y-176410D01*
X-29160Y-175963D01*
X-28784Y-175634D01*
X-27571Y-175918D01*
X-26309Y-170520D01*
X-34007Y-168720D01*
D02*
G37*
G36*
X-7854Y-171934D02*
X-8278Y-177461D01*
X-5232Y-177694D01*
X-4950Y-178623D01*
X-4075Y-180260D01*
X-2897Y-181695D01*
X-2885Y-181684D01*
X1038Y-185607D01*
X1424Y-190626D01*
X9306Y-190019D01*
X8881Y-184492D01*
X4580Y-184823D01*
X-722Y-179521D01*
X-752Y-179502D01*
X-1526Y-178558D01*
X-1604Y-178412D01*
X-1331Y-177993D01*
X-395Y-178065D01*
X28Y-172538D01*
X-7854Y-171934D01*
D02*
G37*
G36*
X52082Y-164489D02*
X44385Y-166292D01*
X45649Y-171689D01*
X49419Y-170806D01*
X54514Y-175900D01*
X54501Y-175913D01*
X54958Y-176288D01*
X54787Y-176795D01*
X54558Y-176848D01*
X47619Y-178473D01*
X47188Y-178388D01*
X46222Y-178580D01*
X45403Y-179127D01*
X44855Y-179946D01*
X44663Y-180912D01*
X44855Y-181879D01*
X45403Y-182698D01*
X46222Y-183245D01*
X47188Y-183437D01*
X48154Y-183245D01*
X48375Y-183332D01*
X48521Y-183956D01*
X56218Y-182153D01*
X55056Y-177189D01*
X55006Y-176974D01*
X55454Y-176696D01*
X56001Y-177144D01*
X57516Y-177954D01*
X58870Y-181313D01*
X66202Y-178357D01*
X64129Y-173216D01*
X59031Y-175272D01*
X58885Y-175227D01*
X57703Y-174596D01*
X56700Y-173772D01*
X56676Y-173737D01*
X53231Y-170291D01*
X53346Y-169886D01*
X53346Y-169886D01*
X52082Y-164489D01*
D02*
G37*
G36*
X27330Y-183073D02*
X19448Y-183679D01*
Y-183679D01*
X18977Y-184070D01*
X18500Y-183975D01*
X17534Y-184167D01*
X16715Y-184715D01*
X16167Y-185534D01*
X15975Y-186500D01*
X16167Y-187466D01*
X16715Y-188285D01*
X17534Y-188833D01*
X18500Y-189025D01*
X19345Y-188857D01*
X19867Y-189121D01*
X19873Y-189206D01*
X27756Y-188600D01*
X27330Y-183073D01*
D02*
G37*
G36*
X-8817Y-184495D02*
X-8836Y-184744D01*
X-9364Y-185101D01*
X-10000Y-184975D01*
X-10966Y-185167D01*
X-11785Y-185715D01*
X-12333Y-186534D01*
X-12525Y-187500D01*
X-12333Y-188466D01*
X-11785Y-189285D01*
X-10966Y-189833D01*
X-10000Y-190025D01*
X-9377Y-189901D01*
X-9240Y-190023D01*
Y-190023D01*
X-1358Y-190626D01*
X-934Y-185099D01*
X-8817Y-184495D01*
D02*
G37*
G36*
X26364Y-170511D02*
X18482Y-171118D01*
X18907Y-176645D01*
X23291Y-176307D01*
X29356Y-182372D01*
X29241Y-182777D01*
X29241Y-182777D01*
X30505Y-188175D01*
X38202Y-186372D01*
X36938Y-180975D01*
X33167Y-181858D01*
X26743Y-175433D01*
X26364Y-170511D01*
D02*
G37*
%LPD*%
D10*
X175000Y67812D02*
G03*
X173239Y72064I-6013J0D01*
G01*
X160209Y97663D02*
G03*
X161886Y93614I5726J0D01*
G01*
X183500Y41659D02*
G03*
X182209Y44776I-4409J0D01*
G01*
X152500Y61454D02*
G03*
X153869Y58149I4673J0D01*
G01*
X187227Y-12283D02*
G03*
X186500Y-14039I1756J-1756D01*
G01*
X187000Y16218D02*
G03*
X186908Y16439I-313J0D01*
G01*
X163000Y9241D02*
G03*
X163372Y8344I1268J0D01*
G01*
X160000Y35368D02*
G03*
X160863Y33285I2945J0D01*
G01*
X102206Y157794D02*
G03*
X100243Y158607I-1963J-1963D01*
G01*
X75929Y170979D02*
G03*
X79500Y169500I3571J3571D01*
G01*
X54500Y180500D02*
G03*
X52182Y181460I-2318J-2318D01*
G01*
X46310Y159010D02*
G03*
X43918Y160000I-2391J-2391D01*
G01*
X123437Y141063D02*
G03*
X123438Y141062I386J385D01*
G01*
X123278Y141448D02*
G03*
X123437Y141063I545J0D01*
G01*
X109698Y122711D02*
G03*
X109000Y123000I-698J-698D01*
G01*
X173026Y-72474D02*
G03*
X174797Y-68198I-4276J4276D01*
G01*
X161574Y-95926D02*
G03*
X162339Y-94080I-1845J1845D01*
G01*
X141286Y-85224D02*
G03*
X142000Y-83500I-1723J1723D01*
G01*
X127839Y-102889D02*
G03*
X128000Y-102500I-389J389D01*
G01*
X107581Y-123371D02*
G03*
X108517Y-122983I0J1323D01*
G01*
X122500Y-141500D02*
G03*
X124317Y-140748I0J2569D01*
G01*
X99500Y-158500D02*
G03*
X103056Y-157027I0J5028D01*
G01*
X74665Y-172000D02*
G03*
X78661Y-170345I0J5651D01*
G01*
X67618Y-150000D02*
G03*
X64604Y-151249I0J-4263D01*
G01*
X50393Y-180912D02*
G03*
X51738Y-180356I0J1901D01*
G01*
X-12330Y190480D02*
G03*
X-16000Y192000I-3670J-3670D01*
G01*
X-37813Y183780D02*
G03*
X-39000Y180914I2866J-2866D01*
G01*
X-61450Y177500D02*
G03*
X-65422Y175855I0J-5617D01*
G01*
X21193Y164011D02*
G03*
X20012Y164500I-1181J-1181D01*
G01*
X-29485Y162500D02*
G03*
X-28307Y162988I0J1666D01*
G01*
X-52190Y156489D02*
G03*
X-55298Y155202I0J-4395D01*
G01*
X-90320Y163320D02*
G03*
X-91498Y163808I-1178J-1178D01*
G01*
X-100500Y131500D02*
G03*
X-98469Y132341I0J2872D01*
G01*
X-115430Y147922D02*
G03*
X-113122Y148878I0J3263D01*
G01*
X-118437Y115152D02*
G03*
X-118500Y115000I153J-152D01*
G01*
X-136272Y128728D02*
G03*
X-136271Y128729I-384J385D01*
G01*
X-136656Y128569D02*
G03*
X-136272Y128728I0J544D01*
G01*
X-134741Y96125D02*
G03*
X-135000Y95500I625J-625D01*
G01*
X-155630Y52850D02*
G03*
X-156500Y50750I2100J-2100D01*
G01*
X-162636Y27215D02*
G03*
X-163500Y25129I2085J-2085D01*
G01*
X-167612Y84888D02*
G03*
X-169078Y81349I3540J-3540D01*
G01*
X-178000Y59500D02*
G03*
X-179514Y55845I3655J-3655D01*
G01*
X-184500Y31500D02*
G03*
X-185742Y28501I2999J-2999D01*
G01*
X-187500Y3000D02*
G03*
X-187618Y2715I285J-285D01*
G01*
X-58310Y-154336D02*
G03*
X-55500Y-155500I2810J2810D01*
G01*
X43038Y-158000D02*
G03*
X41258Y-158737I0J-2516D01*
G01*
X-35241Y-160762D02*
G03*
X-33459Y-161500I1782J1782D01*
G01*
X-113682Y-149818D02*
G03*
X-112063Y-150489I1619J1619D01*
G01*
X17913Y-163243D02*
G03*
X18500Y-163000I0J831D01*
G01*
X22731Y-186500D02*
G03*
X23602Y-186140I0J1231D01*
G01*
X-9000Y-163500D02*
G03*
X-7793Y-164000I1207J1207D01*
G01*
X-5087Y-187561D02*
G03*
X-5234Y-187500I-147J-147D01*
G01*
X-90153Y-164848D02*
G03*
X-87779Y-165831I2373J2373D01*
G01*
X-33657Y-184587D02*
G03*
X-36280Y-183500I-2623J-2623D01*
G01*
X-65323Y-175677D02*
G03*
X-61438Y-177286I3885J3885D01*
G01*
X-162500Y-22810D02*
G03*
X-163115Y-21324I-2101J0D01*
G01*
X-164127Y2156D02*
G03*
X-164500Y1256I900J-900D01*
G01*
X-156500Y-48912D02*
G03*
X-157613Y-46227I-3798J0D01*
G01*
X-179500Y-55573D02*
G03*
X-178237Y-58623I4314J0D01*
G01*
X-185500Y-29755D02*
G03*
X-185096Y-30730I1379J0D01*
G01*
X-135000Y-94500D02*
G03*
X-135714Y-92775I-2441J0D01*
G01*
X-119661Y-112610D02*
G03*
X-119662Y-112609I-392J-390D01*
G01*
X-135714Y-92775D02*
G03*
X-135715Y-92774I-1727J-1725D01*
G01*
X-119500Y-113000D02*
G03*
X-119661Y-112610I-553J0D01*
G01*
X-137000Y-127500D02*
G03*
X-136406Y-128935I2029J0D01*
G01*
X-169000Y-80796D02*
G03*
X-167200Y-85142I6147J0D01*
G01*
X90674Y138514D02*
G03*
X89500Y139000I-1173J-1175D01*
G01*
X6849Y169003D02*
G03*
X9252Y174803I-5800J5800D01*
G01*
X-20528Y165177D02*
G03*
X-17599Y172248I-7071J7071D01*
G01*
X-45810Y158511D02*
G03*
X-43977Y162935I-4424J4424D01*
G01*
X-69324Y160735D02*
G03*
X-70002Y159101I1635J-1635D01*
G01*
X-79000Y145000D02*
G03*
X-76461Y146052I0J3591D01*
G01*
X-92263Y146379D02*
G03*
X-93047Y148270I-2675J0D01*
G01*
X-111590Y125189D02*
G03*
X-114518Y132260I-10000J0D01*
G01*
X-128972Y104674D02*
G03*
X-131901Y111745I-10000J0D01*
G01*
X-142402Y82440D02*
G03*
X-144085Y86503I-5746J0D01*
G01*
X-145828Y76329D02*
G03*
X-147000Y73500I2829J-2829D01*
G01*
X-153767Y60109D02*
G03*
X-153767Y60110I-961J-959D01*
G01*
X-153370Y59150D02*
G03*
X-153767Y60109I-1358J0D01*
G01*
X-168518Y13489D02*
G03*
X-174325Y15895I-5807J-5807D01*
G01*
X-164731Y-13830D02*
G03*
X-171802Y-10901I-7071J-7071D01*
G01*
X-159388Y-39773D02*
G03*
X-165019Y-37441I-5632J-5632D01*
G01*
X-163030Y-63000D02*
G03*
X-163278Y-63103I0J-351D01*
G01*
X-147000Y-72000D02*
G03*
X-147931Y-69753I-3178J0D01*
G01*
X-149089Y-86191D02*
G03*
X-151733Y-87286I0J-3738D01*
G01*
X-128567Y-105502D02*
G03*
X-135638Y-108431I0J-10000D01*
G01*
X-109559Y-124371D02*
G03*
X-116630Y-127300I0J-10000D01*
G01*
X-88377Y-139290D02*
G03*
X-92844Y-141141I0J-6318D01*
G01*
X-64604Y-151750D02*
G03*
X-68622Y-153414I0J-5683D01*
G01*
X-47520Y-164999D02*
G03*
X-48807Y-168106I3107J-3107D01*
G01*
X-20092Y-167592D02*
G03*
X-22575Y-173586I5994J-5994D01*
G01*
X7115Y-165305D02*
G03*
X4186Y-172376I7071J-7071D01*
G01*
X33778Y-161227D02*
G03*
X30849Y-168298I7071J-7071D01*
G01*
X58396Y-153751D02*
G03*
X56789Y-157633I3881J-3881D01*
G01*
X81500Y-142500D02*
G03*
X81397Y-142748I248J-248D01*
G01*
X86876Y-138789D02*
G03*
X88300Y-138200I0J2014D01*
G01*
X102418Y-136675D02*
G03*
X104099Y-140731I5736J0D01*
G01*
X121000Y-115690D02*
G03*
X123929Y-122761I10000J0D01*
G01*
X136681Y-93599D02*
G03*
X139610Y-100670I10000J0D01*
G01*
X148631Y-69554D02*
G03*
X150948Y-75147I7910J0D01*
G01*
X151086Y-63914D02*
G03*
X152500Y-60500I-3414J3414D01*
G01*
X157614Y-46227D02*
G03*
X157968Y-47084I1212J0D01*
G01*
X159386Y-39773D02*
G03*
X160000Y-38292I-1481J1481D01*
G01*
X168546Y-27546D02*
G03*
X172591Y-29222I4045J4045D01*
G01*
X163383Y-15676D02*
G03*
X163500Y-15394I-281J281D01*
G01*
X165106Y394D02*
G03*
X172177Y-2535I7071J7071D01*
G01*
X162137Y26715D02*
G03*
X168181Y24212I6044J6044D01*
G01*
X156131Y51851D02*
G03*
X159657Y50390I3525J3525D01*
G01*
X157190Y75060D02*
G03*
X157982Y75388I0J1120D01*
G01*
X142000Y84000D02*
G03*
X143173Y81168I4005J0D01*
G01*
X140714Y97000D02*
G03*
X144623Y98620I0J5529D01*
G01*
X127000Y105500D02*
G03*
X127613Y104019I2094J0D01*
G01*
X120194Y116000D02*
G03*
X127265Y118929I0J10000D01*
G01*
X99405Y133075D02*
G03*
X106476Y136004I0J10000D01*
G01*
X75999Y146515D02*
G03*
X82516Y149215I0J9217D01*
G01*
X52691Y156990D02*
G03*
X56093Y158400I0J4812D01*
G01*
X28043Y163560D02*
G03*
X27807Y162989I573J-571D01*
G01*
X28044Y163561D02*
G03*
X28043Y163560I572J-572D01*
G01*
X-153890Y108110D02*
G03*
X-154680Y106203I1907J-1907D01*
G01*
X-155000Y-105500D02*
G03*
X-154003Y-107908I3405J0D01*
G01*
X143472Y-120362D02*
G03*
X143000Y-121500I1138J-1138D01*
G01*
X181500Y-45500D02*
G03*
X183158Y-41496I-4004J4004D01*
G01*
X146500Y117000D02*
G03*
X145866Y118532I-2166J0D01*
G01*
X-44738Y180183D02*
G03*
X-47782Y181444I-3044J-3044D01*
G01*
X-66867Y169095D02*
G03*
X-73938Y172024I-7071J-7071D01*
G01*
X-89028Y155644D02*
G03*
X-96099Y158572I-7071J-7071D01*
G01*
X-109034Y138476D02*
G03*
X-116105Y141405I-7071J-7071D01*
G01*
X-127917Y119495D02*
G03*
X-131365Y120923I-3448J-3448D01*
G01*
X-157921Y98569D02*
G03*
X-160243Y97607I0J-3284D01*
G01*
X-165792Y75333D02*
G03*
X-172863Y72404I0J-10000D01*
G01*
X-172463Y50332D02*
G03*
X-179534Y47403I0J-10000D01*
G01*
X-174995Y24151D02*
G03*
X-182066Y21222I0J-10000D01*
G01*
X-175029Y-2596D02*
G03*
X-179197Y-4322I0J-5895D01*
G01*
X-182482Y-39182D02*
G03*
X-183144Y-40782I1600J-1600D01*
G01*
X-171844Y-61037D02*
G03*
X-174773Y-68108I7071J-7071D01*
G01*
X-159377Y-83658D02*
G03*
X-162306Y-90729I7071J-7071D01*
G01*
X-143106Y-104251D02*
G03*
X-146035Y-111322I7071J-7071D01*
G01*
X-124317Y-123236D02*
G03*
X-126341Y-128122I4887J-4887D01*
G01*
X-104049Y-155502D02*
G03*
X-103686Y-156378I1239J0D01*
G01*
X-81343Y-163754D02*
G03*
X-78602Y-170372I9360J0D01*
G01*
X-56731Y-171176D02*
G03*
X-53802Y-178247I10000J0D01*
G01*
X-30789Y-174754D02*
G03*
X-27860Y-181825I10000J0D01*
G01*
X-4125Y-174999D02*
G03*
X-1804Y-180603I7924J0D01*
G01*
X22788Y-173641D02*
G03*
X22635Y-173578I-153J-153D01*
G01*
X55595Y-174819D02*
G03*
X61500Y-177264I5905J5905D01*
G01*
X78161Y-162871D02*
G03*
X85232Y-165800I7071J7071D01*
G01*
X99309Y-147521D02*
G03*
X106380Y-150450I7071J7071D01*
G01*
X118373Y-128956D02*
G03*
X124690Y-131573I6318J6318D01*
G01*
X136669Y-109377D02*
G03*
X137241Y-109613I571J571D01*
G01*
X162040Y-87234D02*
G03*
X167229Y-85084I0J7339D01*
G01*
X169630Y-63046D02*
G03*
X176701Y-60117I0J10000D01*
G01*
X174249Y-37381D02*
G03*
X181320Y-34452I0J10000D01*
G01*
X174712Y-10840D02*
G03*
X181742Y-7928I0J9942D01*
G01*
X174319Y15956D02*
G03*
X175614Y16492I0J1831D01*
G01*
X177643Y50178D02*
G03*
X179495Y54650I-4471J4471D01*
G01*
X166121Y72543D02*
G03*
X169050Y79614I-7071J7071D01*
G01*
X151714Y94216D02*
G03*
X154642Y101287I-7071J7071D01*
G01*
X133682Y113612D02*
G03*
X136611Y120683I-7071J7071D01*
G01*
X114542Y132370D02*
G03*
X115378Y134388I-2018J2018D01*
G01*
X92995Y160088D02*
G03*
X91441Y163840I-5306J0D01*
G01*
X69268Y167828D02*
G03*
X66339Y174899I-10000J0D01*
G01*
X43918Y173482D02*
G03*
X40989Y180553I-10000J0D01*
G01*
X17539Y174973D02*
G03*
X14610Y182044I-10000J0D01*
G01*
X3347Y165500D02*
X6849Y169003D01*
X-73895Y-158686D02*
X-68622Y-153414D01*
X175000Y67000D02*
Y67812D01*
X161886Y93614D02*
X162500Y93000D01*
X183500Y39500D02*
Y41659D01*
X152500Y61454D02*
Y61500D01*
X187000Y11000D02*
Y16218D01*
X186500Y-17500D02*
Y-14039D01*
X160000Y35368D02*
Y36500D01*
X163000Y9241D02*
Y12000D01*
X79500Y169500D02*
X80500Y170500D01*
X102206Y157794D02*
X104500Y155500D01*
X47719Y181460D02*
X52182D01*
X43000Y160000D02*
X43918D01*
X123438Y141062D02*
X127000Y137500D01*
X123437Y141063D02*
X123438Y141062D01*
X109698Y122711D02*
X111589Y120820D01*
X173000Y-72500D02*
X173026Y-72474D01*
X140319Y-86191D02*
X141286Y-85224D01*
X159500Y-98000D02*
X161574Y-95926D01*
X125726Y-105001D02*
X127839Y-102889D01*
X108517Y-122983D02*
X110000Y-121500D01*
X108517Y-122983D02*
X108517Y-122983D01*
X124317Y-140748D02*
X126390Y-138675D01*
X103056Y-157027D02*
X103741Y-156342D01*
X67618Y-150000D02*
X68000D01*
X43038Y-158000D02*
X44500D01*
X74000Y-172000D02*
X74665D01*
X47188Y-180912D02*
X50393D01*
X-12330Y190480D02*
X-9252Y187402D01*
X-39000Y180000D02*
Y180914D01*
X-61450Y177500D02*
X-61000D01*
X18000Y164500D02*
X20012D01*
X-31500Y162500D02*
X-29485D01*
X-55500Y155000D02*
X-55298Y155202D01*
X-90320Y163320D02*
X-88500Y161500D01*
X-98469Y132341D02*
X-97737Y133074D01*
X-113122Y148878D02*
X-111000Y151000D01*
X-118437Y115152D02*
X-116411Y117179D01*
X-118437Y115152D02*
X-118437Y115152D01*
X-134741Y96125D02*
X-133028Y97838D01*
X-136271Y128729D02*
X-133000Y132000D01*
X-136272Y128728D02*
X-136271Y128729D01*
X-167612Y84888D02*
X-166500Y86000D01*
X-156500Y49500D02*
Y50750D01*
X-163500Y24000D02*
Y25129D01*
X-179514Y54587D02*
Y55845D01*
X-185742Y26546D02*
Y28501D01*
X-58396Y-154250D02*
X-58310Y-154336D01*
X-33459Y-161500D02*
X-32000D01*
X-116000Y-147500D02*
X-113682Y-149818D01*
X15337Y-163243D02*
X17913D01*
X18500Y-186500D02*
X22731D01*
X-7793Y-164000D02*
X-6000D01*
X-10000Y-187500D02*
X-5234D01*
X-66000Y-175000D02*
X-65323Y-175677D01*
X-92000Y-163000D02*
X-90153Y-164848D01*
X-38500Y-183500D02*
X-36280D01*
X-162500Y-24500D02*
Y-22810D01*
X-164500Y-1500D02*
Y1256D01*
X-156500Y-49500D02*
Y-48912D01*
X-185500Y-29755D02*
Y-26000D01*
X-187618Y-2117D02*
Y2715D01*
X-179500Y-55573D02*
Y-53500D01*
X-121773Y-110498D02*
X-119662Y-112609D01*
X-135715Y-92774D02*
X-135714Y-92775D01*
X-136680Y-91808D02*
X-135715Y-92774D01*
X-119662Y-112609D02*
X-119661Y-112610D01*
X-136406Y-128935D02*
X-133721Y-131620D01*
X-169000Y-80796D02*
Y-80500D01*
X69870Y149485D02*
X70001D01*
X67393Y151962D02*
X69870Y149485D01*
X65990Y151962D02*
X67393D01*
X65902Y151874D02*
X65990Y151962D01*
X65088Y151874D02*
X65902D01*
X65000Y151962D02*
X65088Y151874D01*
X80500Y170500D02*
Y172000D01*
X-21693Y164012D02*
X-20528Y165177D01*
X-17599Y172248D02*
Y174161D01*
X-43977Y162935D02*
Y169434D01*
X-70002Y149486D02*
Y159101D01*
X-76461Y146052D02*
X-75999Y146514D01*
X-92263Y136926D02*
Y146379D01*
X-114588Y132330D02*
X-114518Y132260D01*
X-111590Y121821D02*
Y125189D01*
X-133445Y113288D02*
X-131901Y111745D01*
X-128972Y103162D02*
Y104674D01*
X-149173Y91592D02*
X-144085Y86503D01*
X-145828Y76329D02*
X-145598Y76560D01*
X-153767Y60110D02*
X-153767Y60109D01*
X-161406Y67748D02*
X-153767Y60110D01*
X-169856Y42317D02*
X-161364Y33825D01*
Y33785D02*
Y33825D01*
X-168518Y13489D02*
X-163873Y8844D01*
X-174708Y-10901D02*
X-171802D01*
X-164731Y-13830D02*
X-163885Y-14676D01*
X-170997Y-37441D02*
X-165019D01*
X-163030Y-63000D02*
X-151500D01*
X-148630Y-69053D02*
X-147931Y-69753D01*
X-149089Y-86191D02*
X-140320D01*
X-136631Y-109424D02*
X-135638Y-108431D01*
X-128567Y-105502D02*
X-126227D01*
X-109559Y-124371D02*
X-107582D01*
X-118327Y-128997D02*
X-116630Y-127300D01*
X-102418Y-128629D02*
X-100046Y-131000D01*
X-100000D01*
X-97251Y-145547D02*
X-92844Y-141141D01*
X-82000Y-142500D02*
X-80000Y-144500D01*
X-47520Y-164999D02*
X-41759Y-159238D01*
X-20092Y-167592D02*
X-16000Y-163500D01*
X7115Y-165305D02*
X8663Y-163757D01*
X4186Y-174998D02*
Y-172376D01*
X33778Y-161227D02*
X34742Y-160263D01*
X30849Y-172308D02*
Y-168298D01*
X56789Y-165580D02*
Y-157633D01*
X81397Y-154972D02*
Y-142748D01*
X88300Y-138200D02*
X89500Y-137000D01*
X102418Y-136675D02*
Y-127629D01*
X121000Y-115690D02*
Y-110000D01*
X123929Y-122761D02*
X124360Y-123192D01*
X136681Y-93599D02*
Y-91809D01*
X139610Y-100670D02*
X141707Y-102766D01*
X150948Y-75147D02*
X155733Y-79932D01*
X151000Y-64000D02*
X151086Y-63914D01*
X157968Y-47084D02*
X166109Y-55224D01*
X160000Y-38292D02*
Y-36500D01*
X163000Y-22000D02*
X168546Y-27546D01*
X163500Y-15394D02*
Y-12500D01*
X172177Y-2535D02*
X175030D01*
X164000Y1500D02*
X165106Y394D01*
X168181Y24212D02*
X173365D01*
X159657Y50390D02*
X167638D01*
X146599Y75060D02*
X157190D01*
X143173Y81168D02*
X143401Y80940D01*
X132500Y97000D02*
X140714D01*
X127613Y104019D02*
X128971Y102661D01*
X127265Y118929D02*
X127875Y119539D01*
X116000Y116000D02*
X120194D01*
X106476Y136004D02*
X108130Y137657D01*
X97737Y133075D02*
X99405D01*
X82516Y149215D02*
X85851Y152550D01*
X56093Y158400D02*
X61560Y163866D01*
X28044Y163561D02*
X35826Y171343D01*
X28043Y163560D02*
X28044Y163561D01*
X-153890Y108110D02*
X-151500Y110500D01*
X-154003Y-107908D02*
X-152244Y-109666D01*
X143472Y-120362D02*
X146076Y-117757D01*
X183158Y-41496D02*
Y-40718D01*
X143424Y120973D02*
X145866Y118532D01*
X74858Y172050D02*
X75929Y170979D01*
X24126Y185874D02*
X24500Y185500D01*
X19462Y186618D02*
X20206Y185874D01*
X24126D01*
X-44738Y180183D02*
X-35886Y171330D01*
X-66867Y169095D02*
X-61617Y163845D01*
X-74918Y172024D02*
X-73938D01*
X-89028Y155644D02*
X-85904Y152520D01*
X-100298Y158572D02*
X-96099D01*
X-109034Y138476D02*
X-108178Y137620D01*
X-123327Y141405D02*
X-116105D01*
X-143466Y120923D02*
X-131365D01*
X-157921Y98569D02*
X-144658D01*
X-165792Y75333D02*
X-158008D01*
X-173264Y72004D02*
X-172863Y72404D01*
X-172463Y50332D02*
X-167656D01*
X-182224Y44713D02*
X-179534Y47403D01*
X-174995Y24151D02*
X-173374D01*
X-186914Y16374D02*
X-182066Y21222D01*
X-187223Y-12349D02*
X-179197Y-4322D01*
X-182482Y-39182D02*
X-172581Y-29282D01*
X-171844Y-61037D02*
X-166089Y-55282D01*
X-174773Y-68259D02*
Y-68108D01*
X-159377Y-83658D02*
X-155705Y-79986D01*
X-162306Y-94137D02*
Y-90729D01*
X-143106Y-104251D02*
X-141671Y-102816D01*
X-146035Y-117808D02*
Y-111322D01*
X-126341Y-138719D02*
Y-128122D01*
X-104049Y-155502D02*
Y-140767D01*
X-81343Y-163754D02*
Y-155000D01*
X-53802Y-178247D02*
X-51675Y-180374D01*
X-56731Y-171176D02*
Y-165600D01*
X-30789Y-174754D02*
Y-172319D01*
X-27860Y-181825D02*
X-23537Y-186148D01*
X-1804Y-180603D02*
X5153Y-187559D01*
X22788Y-173641D02*
X33721Y-184575D01*
X48865Y-168089D02*
X55595Y-174819D01*
X85232Y-165800D02*
X87837D01*
X73950Y-158660D02*
X78161Y-162871D01*
X106380Y-150450D02*
X112116D01*
X97301Y-145513D02*
X99309Y-147521D01*
X124690Y-131573D02*
X133766D01*
X137241Y-109613D02*
X152282D01*
X151763Y-87234D02*
X162040D01*
X176701Y-60117D02*
X178257Y-58561D01*
X163300Y-63046D02*
X169630D01*
X181320Y-34452D02*
X185107Y-30665D01*
X171010Y-37381D02*
X174249D01*
X181742Y-7928D02*
X187619Y-2051D01*
X175614Y16492D02*
X185733Y26611D01*
X169841Y42377D02*
X177643Y50178D01*
X161382Y67805D02*
X166121Y72543D01*
X169050Y79614D02*
Y81408D01*
X149141Y91644D02*
X151714Y94216D01*
X154642Y101287D02*
Y106257D01*
X133405Y113335D02*
X133682Y113612D01*
X136611Y120683D02*
Y128617D01*
X115378Y134388D02*
Y147962D01*
X92995Y148303D02*
Y160088D01*
X69268Y160760D02*
Y167828D01*
X65361Y175878D02*
X66339Y174899D01*
X43918Y169449D02*
Y173482D01*
X37749Y183793D02*
X40989Y180553D01*
X17539Y174167D02*
Y174973D01*
X9252Y187402D02*
X14610Y182044D01*
D12*
X-178237Y-58623D02*
D03*
X-166089Y-55282D02*
D03*
X-170997Y-37441D02*
D03*
X-183144Y-40782D02*
D03*
D13*
X-9252Y187402D02*
D03*
Y174803D02*
D03*
X9252D02*
D03*
Y187402D02*
D03*
D14*
X-145598Y76560D02*
D03*
X-142402Y82440D02*
D03*
D15*
X-155630Y52850D02*
D03*
X-153370Y59150D02*
D03*
D16*
X-162636Y27215D02*
D03*
X-161364Y33785D02*
D03*
D17*
X-164127Y2156D02*
D03*
X-163873Y8844D02*
D03*
D18*
X-163115Y-21324D02*
D03*
X-163885Y-14676D02*
D03*
D19*
X-169078Y81349D02*
D03*
X-158008Y75333D02*
D03*
X-149173Y91592D02*
D03*
X-160243Y97607D02*
D03*
D20*
X-179514Y54587D02*
D03*
X-167656Y50332D02*
D03*
X-161406Y67748D02*
D03*
X-173264Y72004D02*
D03*
D21*
X-185742Y26546D02*
D03*
X-173374Y24151D02*
D03*
X-169856Y42317D02*
D03*
X-182224Y44713D02*
D03*
D22*
X-187618Y-2117D02*
D03*
X-175029Y-2596D02*
D03*
X-174325Y15895D02*
D03*
X-186914Y16374D02*
D03*
D23*
X-185096Y-30730D02*
D03*
X-172581Y-29282D02*
D03*
X-174708Y-10901D02*
D03*
X-187223Y-12349D02*
D03*
D24*
X-52190Y156489D02*
D03*
X-45810Y158511D02*
D03*
D25*
X-75999Y146514D02*
D03*
X-70002Y149486D02*
D03*
D26*
X-97737Y133074D02*
D03*
X-92263Y136926D02*
D03*
D27*
X-116411Y117179D02*
D03*
X-111590Y121821D02*
D03*
D28*
X-133028Y97838D02*
D03*
X-128972Y103162D02*
D03*
D29*
X-65422Y175855D02*
D03*
X-61617Y163845D02*
D03*
X-43977Y169434D02*
D03*
X-47782Y181444D02*
D03*
D30*
X-91498Y163808D02*
D03*
X-85904Y152520D02*
D03*
X-69324Y160735D02*
D03*
X-74918Y172024D02*
D03*
D31*
X-115430Y147922D02*
D03*
X-108178Y137620D02*
D03*
X-93047Y148270D02*
D03*
X-100298Y158572D02*
D03*
D32*
X-136656Y128569D02*
D03*
X-127917Y119495D02*
D03*
X-114588Y132330D02*
D03*
X-123327Y141405D02*
D03*
D33*
X-154680Y106203D02*
D03*
X-144658Y98569D02*
D03*
X-133445Y113288D02*
D03*
X-143466Y120923D02*
D03*
D34*
X-28307Y162988D02*
D03*
X-21693Y164012D02*
D03*
D35*
X-37813Y183780D02*
D03*
X-35886Y171330D02*
D03*
X-17599Y174161D02*
D03*
X-19527Y186611D02*
D03*
D36*
X182209Y44776D02*
D03*
X169841Y42377D02*
D03*
X173365Y24212D02*
D03*
X185733Y26611D02*
D03*
D37*
X186908Y16439D02*
D03*
X174319Y15956D02*
D03*
X175030Y-2535D02*
D03*
X187619Y-2051D02*
D03*
D38*
X92263Y136925D02*
D03*
X97737Y133075D02*
D03*
D39*
X70001Y149485D02*
D03*
X75999Y146515D02*
D03*
D40*
X46310Y159010D02*
D03*
X52691Y156990D02*
D03*
D41*
X21193Y164011D02*
D03*
X27807Y162989D02*
D03*
D42*
X-3347Y165500D02*
D03*
X3347D02*
D03*
D43*
X100243Y158607D02*
D03*
X92995Y148303D02*
D03*
X108130Y137657D02*
D03*
X115378Y147962D02*
D03*
D44*
X74858Y172050D02*
D03*
X69268Y160760D02*
D03*
X85851Y152550D02*
D03*
X91441Y163840D02*
D03*
D45*
X47719Y181460D02*
D03*
X43918Y169449D02*
D03*
X61560Y163866D02*
D03*
X65361Y175878D02*
D03*
D46*
X19462Y186618D02*
D03*
X17539Y174167D02*
D03*
X35826Y171343D02*
D03*
X37749Y183793D02*
D03*
D47*
X160863Y33285D02*
D03*
X162137Y26715D02*
D03*
D48*
X153869Y58149D02*
D03*
X156131Y51851D02*
D03*
D49*
X143401Y80940D02*
D03*
X146599Y75060D02*
D03*
D50*
X128971Y102661D02*
D03*
X133029Y97339D02*
D03*
D51*
X111589Y120820D02*
D03*
X116411Y116180D02*
D03*
D52*
X173239Y72064D02*
D03*
X161382Y67805D02*
D03*
X167638Y50390D02*
D03*
X179495Y54650D02*
D03*
D53*
X160209Y97663D02*
D03*
X149141Y91644D02*
D03*
X157982Y75388D02*
D03*
X169050Y81408D02*
D03*
D54*
X143424Y120973D02*
D03*
X133405Y113335D02*
D03*
X144623Y98620D02*
D03*
X154642Y106257D02*
D03*
D55*
X123278Y141448D02*
D03*
X114542Y132370D02*
D03*
X127875Y119539D02*
D03*
X136611Y128617D02*
D03*
D56*
X140319Y-86191D02*
D03*
X136681Y-91809D02*
D03*
D57*
X151369Y-63446D02*
D03*
X148631Y-69554D02*
D03*
D58*
X159386Y-39773D02*
D03*
X157614Y-46227D02*
D03*
D59*
X163383Y-15676D02*
D03*
X162617Y-22324D02*
D03*
D60*
X163372Y8344D02*
D03*
X163628Y1656D02*
D03*
D61*
X162339Y-94080D02*
D03*
X151763Y-87234D02*
D03*
X141707Y-102766D02*
D03*
X152282Y-109613D02*
D03*
D62*
X174797Y-68198D02*
D03*
X163300Y-63046D02*
D03*
X155733Y-79932D02*
D03*
X167229Y-85084D02*
D03*
D63*
X183158Y-40718D02*
D03*
X171010Y-37381D02*
D03*
X166109Y-55224D02*
D03*
X178257Y-58561D02*
D03*
D64*
X187227Y-12283D02*
D03*
X174712Y-10840D02*
D03*
X172591Y-29222D02*
D03*
X185107Y-30665D02*
D03*
D65*
X41258Y-158737D02*
D03*
X34742Y-160263D02*
D03*
D66*
X64604Y-151249D02*
D03*
X58396Y-153751D02*
D03*
D67*
X86876Y-138789D02*
D03*
X81124Y-142210D02*
D03*
D68*
X107581Y-123371D02*
D03*
X102418Y-127629D02*
D03*
D69*
X125726Y-105001D02*
D03*
X121274Y-109999D02*
D03*
D70*
X51738Y-180356D02*
D03*
X48865Y-168089D02*
D03*
X30849Y-172308D02*
D03*
X33721Y-184575D02*
D03*
D71*
X78661Y-170345D02*
D03*
X73950Y-158660D02*
D03*
X56789Y-165580D02*
D03*
X61500Y-177264D02*
D03*
D72*
X103741Y-156342D02*
D03*
X97301Y-145513D02*
D03*
X81397Y-154972D02*
D03*
X87837Y-165800D02*
D03*
D73*
X126390Y-138675D02*
D03*
X118373Y-128956D02*
D03*
X104099Y-140731D02*
D03*
X112116Y-150450D02*
D03*
D74*
X146076Y-117757D02*
D03*
X136669Y-109377D02*
D03*
X124360Y-123192D02*
D03*
X133766Y-131573D02*
D03*
D75*
X-82623Y-142710D02*
D03*
X-88377Y-139290D02*
D03*
D76*
X-58396Y-154250D02*
D03*
X-64604Y-151750D02*
D03*
D77*
X-35241Y-160762D02*
D03*
X-41759Y-159238D02*
D03*
D78*
X-9163Y-163756D02*
D03*
X-15837Y-163244D02*
D03*
D79*
X15337Y-163243D02*
D03*
X8663Y-163757D02*
D03*
D80*
X-87779Y-165831D02*
D03*
X-81343Y-155000D02*
D03*
X-97251Y-145547D02*
D03*
X-103686Y-156378D02*
D03*
D81*
X-61438Y-177286D02*
D03*
X-56731Y-165600D02*
D03*
X-73895Y-158686D02*
D03*
X-78602Y-170372D02*
D03*
D82*
X-33657Y-184587D02*
D03*
X-30789Y-172319D02*
D03*
X-48807Y-168106D02*
D03*
X-51675Y-180374D02*
D03*
D83*
X-5087Y-187561D02*
D03*
X-4125Y-174999D02*
D03*
X-22575Y-173586D02*
D03*
X-23537Y-186148D02*
D03*
D84*
X23602Y-186140D02*
D03*
X22635Y-173578D02*
D03*
X4186Y-174998D02*
D03*
X5153Y-187559D02*
D03*
D85*
X-157613Y-46227D02*
D03*
X-159388Y-39773D02*
D03*
D86*
X-148630Y-69053D02*
D03*
X-151370Y-62947D02*
D03*
D87*
X-136680Y-91808D02*
D03*
X-140320Y-86191D02*
D03*
D88*
X-121773Y-110498D02*
D03*
X-126227Y-105502D02*
D03*
D89*
X-102418Y-128629D02*
D03*
X-107582Y-124371D02*
D03*
D90*
X-167200Y-85142D02*
D03*
X-155705Y-79986D02*
D03*
X-163278Y-63103D02*
D03*
X-174773Y-68259D02*
D03*
D91*
X-152244Y-109666D02*
D03*
X-141671Y-102816D02*
D03*
X-151733Y-87286D02*
D03*
X-162306Y-94137D02*
D03*
D92*
X-133721Y-131620D02*
D03*
X-124317Y-123236D02*
D03*
X-136631Y-109424D02*
D03*
X-146035Y-117808D02*
D03*
D93*
X-112063Y-150489D02*
D03*
X-104049Y-140767D02*
D03*
X-118327Y-128997D02*
D03*
X-126341Y-138719D02*
D03*
D177*
X108517Y-122983D02*
D03*
X-118437Y115152D02*
D03*
D178*
X-9252Y174803D02*
X3500Y171000D01*
X-3500Y160000D02*
X-3347Y165500D01*
D179*
X77857Y160765D02*
D03*
X101143Y149235D02*
D03*
D180*
X8500Y183000D02*
D03*
X3500Y171000D02*
D03*
X-3500Y160000D02*
D03*
X-28500Y180000D02*
D03*
X57000Y177000D02*
D03*
X54500Y174500D02*
D03*
X58000Y173500D02*
D03*
X57000Y170000D02*
D03*
X53500Y170500D02*
D03*
X52500Y167000D02*
D03*
X56000Y166000D02*
D03*
X75503Y141837D02*
D03*
X76500Y144500D02*
D03*
X74000Y145500D02*
D03*
X78000Y140500D02*
D03*
X73000Y143000D02*
D03*
X65000Y151500D02*
D03*
X80500Y172000D02*
D03*
X-31500Y162500D02*
D03*
X-55500Y155000D02*
D03*
X-79000Y145000D02*
D03*
X-100500Y131500D02*
D03*
X-118500Y115000D02*
D03*
X-135000Y95500D02*
D03*
X-147000Y73500D02*
D03*
X-156500Y49500D02*
D03*
X-163500Y24000D02*
D03*
X-164500Y-1500D02*
D03*
X-162500Y-24500D02*
D03*
X-156500Y-49500D02*
D03*
X-147000Y-72000D02*
D03*
X-135000Y-94500D02*
D03*
X-119500Y-113000D02*
D03*
X-100000Y-131000D02*
D03*
X-80000Y-144500D02*
D03*
X-55500Y-155500D02*
D03*
X-32000Y-161500D02*
D03*
X-6000Y-164000D02*
D03*
X18500Y-163000D02*
D03*
X44500Y-158000D02*
D03*
X68000Y-150000D02*
D03*
X89500Y-137000D02*
D03*
X110000Y-121500D02*
D03*
X128000Y-102500D02*
D03*
X142000Y-83500D02*
D03*
X152500Y-60500D02*
D03*
X160000Y-36500D02*
D03*
X163500Y-12500D02*
D03*
X163000Y12000D02*
D03*
X160000Y36500D02*
D03*
X152500Y61500D02*
D03*
X142000Y84000D02*
D03*
X127000Y105500D02*
D03*
X109000Y123000D02*
D03*
X89500Y139000D02*
D03*
X43000Y160000D02*
D03*
X18000Y164500D02*
D03*
X-16000Y192000D02*
D03*
X-39000Y180000D02*
D03*
X-61000Y177500D02*
D03*
X-88500Y161500D02*
D03*
X-111000Y151000D02*
D03*
X-133000Y132000D02*
D03*
X-151500Y110500D02*
D03*
X-166500Y86000D02*
D03*
X-178000Y59500D02*
D03*
X-184500Y31500D02*
D03*
X-187500Y3000D02*
D03*
X-185500Y-26000D02*
D03*
X-179500Y-53500D02*
D03*
X-169000Y-80500D02*
D03*
X-155000Y-105500D02*
D03*
X-137000Y-127500D02*
D03*
X-116000Y-147500D02*
D03*
X-92000Y-163000D02*
D03*
X-66000Y-175000D02*
D03*
X-38500Y-183500D02*
D03*
X-10000Y-187500D02*
D03*
X18500Y-186500D02*
D03*
X47188Y-180912D02*
D03*
X74000Y-172000D02*
D03*
X99500Y-158500D02*
D03*
X122500Y-141500D02*
D03*
X143000Y-121500D02*
D03*
X159500Y-98000D02*
D03*
X173000Y-72500D02*
D03*
X181500Y-45500D02*
D03*
X186500Y-17500D02*
D03*
X187000Y11000D02*
D03*
X183500Y39500D02*
D03*
X175000Y67000D02*
D03*
X162500Y93000D02*
D03*
X146500Y117000D02*
D03*
X127000Y137500D02*
D03*
X104500Y155500D02*
D03*
X54500Y180500D02*
D03*
X24500Y185500D02*
D03*
M02*
