M48
;Layer_Color=9474304
;FILE_FORMAT=2:5
INCH,LZ
;TYPE=PLATED
T1F00S00C0.01968
T3F00S00C3.14961
%
T01
X-0137Y-01275
X-01195Y-0113
X-0135Y-00945
X-0155Y-01055
X-0169Y-00805
X-0147Y-0072
X-01565Y-00495
X-01795Y-00535
X-01Y-0131
X-0116Y-01475
X-008Y-01445
X-0092Y-0163
X-0066Y-0175
X-00555Y-01555
X-0032Y-01615
X-0006Y-0164
X00185Y-0163
Y-01865
X-001Y-01875
X-00385Y-01835
X0047188Y-0180912
X00445Y-0158
X0068Y-015
X0074Y-0172
X00995Y-01585
X00895Y-0137
X011Y-01215
X01225Y-01415
X0143Y-01215
X0128Y-01025
X0142Y-00835
X01595Y-0098
X0173Y-00725
X01525Y-00605
X01815Y-00455
X016Y-00365
X01635Y-00125
X0163Y0012
X0187Y0011
X01865Y-00175
X01835Y00395
X016Y00365
X01525Y00615
X0175Y0067
X01625Y0093
X0142Y0084
X0127Y01055
X-01185Y0115
X-0135Y00955
X-01515Y01105
X-01665Y0086
X-0147Y00735
X-01565Y00495
X-0178Y00595
X-01845Y00315
X-01635Y0024
X-01645Y-00015
X-01625Y-00245
X-01855Y-0026
X-01875Y0003
X-0133Y0132
X-01005Y01315
X-0111Y0151
X-00885Y01615
X-0079Y0145
X-00555Y0155
X-0061Y01775
X-0039Y018
X-00285
X-00315Y01625
X-00035Y016
X00035Y0171
X00085Y0183
X00245Y01855
X0018Y01645
X0043Y016
X00525Y0167
X00535Y01705
X0057Y017
X0058Y01735
X0057Y0177
X00545Y01745
Y01805
X0056Y0166
X0065Y01515
X0074Y01455
X00765Y01445
X0075503Y0141837
X0073Y0143
X0078Y01405
X00895Y0139
X01045Y01555
X0109Y0123
X00805Y0172
X-0016Y0192
X0127Y01375
X01465Y0117
T03
X0Y0
M30
